<svg width="1221" height="256" viewBox="0 0 1221 256" fill="none" xmlns="http://www.w3.org/2000/svg">
<path d="M24.0497 104.41L109.317 131.591C110.399 131.939 111.563 132.123 112.748 132.123H117.853C119.038 132.123 120.202 131.939 121.285 131.591L206.551 104.41C212.25 102.589 218.601 105.659 218.601 110.223V205.684C218.601 208.16 216.62 210.412 213.536 211.456L121.325 242.177C120.202 242.546 118.997 242.751 117.772 242.751H112.768C111.563 242.751 110.379 242.566 109.276 242.198L17.1262 212.111C14.0219 211.087 12 208.836 12 206.318V110.182C12 105.618 18.3516 102.568 24.0497 104.369V104.41Z" fill="#3FABAE" stroke="#3FABAE" stroke-miterlimit="10"/>
<path d="M117.875 131.101H111.543C111.092 131.101 110.727 131.468 110.727 131.92V243.182C110.727 243.634 111.092 244 111.543 244H117.875C118.326 244 118.692 243.634 118.692 243.182V131.92C118.692 131.468 118.326 131.101 117.875 131.101Z" fill="white"/>
<path d="M115.299 115.32C143.768 115.32 166.847 92.1913 166.847 63.6602C166.847 35.129 143.768 12 115.299 12C86.8295 12 63.7505 35.129 63.7505 63.6602C63.7505 92.1913 86.8295 115.32 115.299 115.32Z" fill="#FF611A"/>
<path d="M370.224 140.701H302.378V176.826H377.229L373.594 202.022H272.601V59.8333H373.206V85.0288H302.378V115.505H370.224V140.701Z" fill="#464646" stroke="#464646" stroke-miterlimit="10"/>
<path d="M493.868 51.4814V172.69C493.868 182.413 493.868 192.257 494.072 202.02H465.705C465.112 198.828 464.541 193.301 464.357 190.866C459.21 199.278 450.04 204.497 434.13 204.497C407.192 204.497 390.057 182.822 390.057 149.521C390.057 116.22 408.275 92.785 438.44 92.785C453.757 92.785 462.008 98.2089 464.357 102.998V51.4814H493.848H493.868ZM420.365 148.743C420.365 169.559 428.453 180.816 442.892 180.816C463.172 180.816 465.5 163.869 465.5 148.518C465.5 130.261 462.927 116.446 443.648 116.446C428.167 116.446 420.365 128.562 420.365 148.723V148.743Z" fill="#464646" stroke="#464646" stroke-miterlimit="10"/>
<path d="M613.832 171.012C613.832 181.307 613.853 192.483 614.037 202.041H585.138C584.729 199.175 584.525 193.465 584.341 189.719C578.031 200.444 568.615 204.517 555.014 204.517C533.304 204.517 519.457 191.295 519.457 164.831V95.282H548.927V158.895C548.927 170.685 552.583 180.427 565.348 180.427C578.786 180.427 584.362 173.243 584.362 152.1V95.282H613.853V171.012H613.832Z" fill="#464646" stroke="#464646" stroke-miterlimit="10"/>
<path d="M672.818 145.122V202.042H642.836V59.8333H705.188C736.13 59.8333 752.775 76.9032 752.775 98.8649C752.775 117.941 742.42 128.277 732.147 132.514C739.173 135.113 749.772 142.44 749.772 167.902V174.922C749.772 184.481 749.854 195.37 751.815 202.042H722.732C720.24 195.861 719.771 185.218 719.771 170.113V168.025C719.771 152.47 715.849 145.122 692.996 145.122H672.818ZM672.818 120.642H698.53C715.339 120.642 721.813 114.236 721.813 102.344C721.813 90.4528 714.277 84.3125 699.266 84.3125H672.818V120.642Z" fill="#464646" stroke="#464646" stroke-miterlimit="10"/>
<path d="M797.643 154.965C797.664 168.31 804.342 181.368 819.026 181.368C831.301 181.368 834.813 176.436 837.611 169.968H867.123C863.345 183.026 851.703 204.497 818.25 204.497C784.797 204.497 767.948 178.196 767.948 150.196C767.948 116.711 785.103 92.7847 819.312 92.7847C855.89 92.7847 868.328 119.311 868.328 145.959C868.328 149.582 868.328 151.916 867.94 154.965H797.643ZM838.776 136.831C838.571 124.407 833.608 113.948 819.251 113.948C804.893 113.948 799.44 123.711 798.256 136.831H838.776Z" fill="#464646" stroke="#464646" stroke-miterlimit="10"/>
<path d="M976.733 174.452C976.733 184.624 977.55 199.463 978.183 202.042H949.999C949.182 199.934 948.549 194.305 948.509 191.603C944.649 197.6 937.398 204.518 918.568 204.518C892.876 204.518 882.051 187.592 882.051 171.033C882.051 146.718 901.535 135.502 932.762 135.502H947.957V128.973C947.957 121.379 945.241 113.929 931.557 113.929C919.099 113.929 916.383 119.23 915.014 126.967H886.973C888.566 107.993 900.269 92.6426 932.66 92.8268C961.191 93.011 976.713 104.186 976.713 129.587V174.472L976.733 174.452ZM947.998 153.431H935.989C918.221 153.431 911.624 158.876 911.624 169.15C911.624 176.887 916.362 183.396 926.962 183.396C945.711 183.396 947.998 170.338 947.998 156.235V153.431Z" fill="#464646" stroke="#464646" stroke-miterlimit="10"/>
<path d="M1095.04 167.532C1091.37 185.319 1078.89 204.497 1047.15 204.497C1015.41 204.497 996.951 181.512 996.951 149.418C996.951 117.325 1016.15 92.7847 1048.56 92.7847C1084.48 92.7847 1094.45 118.615 1095.04 130.691H1066.25C1064.43 121.992 1059.51 115.913 1047.99 115.913C1034.51 115.913 1026.87 127.764 1026.87 148.456C1026.87 171.175 1034.96 181.553 1047.87 181.553C1058 181.553 1063.43 175.556 1066.06 167.532H1095.04Z" fill="#464646" stroke="#464646" stroke-miterlimit="10"/>
<path d="M1142.61 51.4814V107.89C1147.29 100.972 1155.93 92.8055 1173.12 92.8055C1193 92.8055 1208.8 104.595 1208.8 133.536V202.02H1179.5V137.957C1179.5 124.08 1174.57 116.691 1162.22 116.691C1145.84 116.691 1142.61 128.91 1142.61 145.387V202.02H1113.12V51.4814H1142.61Z" fill="#464646" stroke="#464646" stroke-miterlimit="10"/>
</svg>
