<svg width="589" height="115" viewBox="0 0 589 115" fill="none" xmlns="http://www.w3.org/2000/svg">
<path d="M7.2 46.01L48.95 59.29C49.48 59.46 50.05 59.55 50.63 59.55H53.13C53.71 59.55 54.28 59.46 54.81 59.29L96.56 46.01C99.35 45.12 102.46 46.62 102.46 48.85V95.49C102.46 96.7 101.49 97.8 99.98 98.31L54.83 113.32C54.28 113.5 53.69 113.6 53.09 113.6H50.64C50.05 113.6 49.47 113.51 48.93 113.33L3.8 98.65C2.28 98.15 1.29 97.05 1.29 95.82V48.85C1.29 46.62 4.4 45.13 7.19 46.01H7.2Z" fill="#0E1366" stroke="#1E1F53" stroke-miterlimit="10"/>
<path d="M53.14 59.05H50.04C49.8191 59.05 49.64 59.2291 49.64 59.45V113.81C49.64 114.031 49.8191 114.21 50.04 114.21H53.14C53.3609 114.21 53.54 114.031 53.54 113.81V59.45C53.54 59.2291 53.3609 59.05 53.14 59.05Z" fill="white"/>
<path d="M51.88 51.35C65.8197 51.35 77.12 40.0497 77.12 26.11C77.12 12.1703 65.8197 0.869995 51.88 0.869995C37.9403 0.869995 26.64 12.1703 26.64 26.11C26.64 40.0497 37.9403 51.35 51.88 51.35Z" fill="#1B68E2"/>
<path d="M177.26 63.75H144.04V81.4H180.69L178.91 93.71H129.46V24.24H178.72V36.55H144.04V51.44H177.26V63.75Z" fill="#0E1366" stroke="#1E1F53" stroke-miterlimit="10"/>
<path d="M237.8 20.16V79.38C237.8 84.13 237.8 88.94 237.9 93.71H224.01C223.72 92.15 223.44 89.45 223.35 88.26C220.83 92.37 216.34 94.92 208.55 94.92C195.36 94.92 186.97 84.33 186.97 68.06C186.97 51.79 195.89 40.34 210.66 40.34C218.16 40.34 222.2 42.99 223.35 45.33V20.16H237.79H237.8ZM201.81 67.69C201.81 77.86 205.77 83.36 212.84 83.36C222.77 83.36 223.91 75.08 223.91 67.58C223.91 58.66 222.65 51.91 213.21 51.91C205.63 51.91 201.81 57.83 201.81 67.68V67.69Z" fill="#0E1366" stroke="#1E1F53" stroke-miterlimit="10"/>
<path d="M296.54 78.5599C296.54 83.5899 296.55 89.0499 296.64 93.7199H282.49C282.29 92.3199 282.19 89.5299 282.1 87.6999C279.01 92.9399 274.4 94.9299 267.74 94.9299C257.11 94.9299 250.33 88.4699 250.33 75.5399V41.5599H264.76V72.6399C264.76 78.3999 266.55 83.1599 272.8 83.1599C279.38 83.1599 282.11 79.6499 282.11 69.3199V41.5599H296.55V78.5599H296.54Z" fill="#0E1366" stroke="#1E1F53" stroke-miterlimit="10"/>
<path d="M325.42 65.91V93.72H310.74V24.25H341.27C356.42 24.25 364.57 32.59 364.57 43.32C364.57 52.64 359.5 57.69 354.47 59.76C357.91 61.03 363.1 64.61 363.1 77.05V80.48C363.1 85.15 363.14 90.47 364.1 93.73H349.86C348.64 90.71 348.41 85.51 348.41 78.13V77.11C348.41 69.51 346.49 65.92 335.3 65.92H325.42V65.91ZM325.42 53.95H338.01C346.24 53.95 349.41 50.82 349.41 45.01C349.41 39.2 345.72 36.2 338.37 36.2H325.42V53.95Z" fill="#0E1366" stroke="#1E1F53" stroke-miterlimit="10"/>
<path d="M386.54 70.73C386.55 77.25 389.82 83.63 397.01 83.63C403.02 83.63 404.74 81.22 406.11 78.06H420.56C418.71 84.44 413.01 94.93 396.63 94.93C380.25 94.93 372 82.08 372 68.4C372 52.04 380.4 40.35 397.15 40.35C415.06 40.35 421.15 53.31 421.15 66.33C421.15 68.1 421.15 69.24 420.96 70.73H386.54ZM406.68 61.86C406.58 55.79 404.15 50.68 397.12 50.68C390.09 50.68 387.42 55.45 386.84 61.86H406.68Z" fill="#0E1366" stroke="#1E1F53" stroke-miterlimit="10"/>
<path d="M474.23 80.2399C474.23 85.2099 474.63 92.4599 474.94 93.7199H461.14C460.74 92.6899 460.43 89.9399 460.41 88.6199C458.52 91.5499 454.97 94.9299 445.75 94.9299C433.17 94.9299 427.87 86.6599 427.87 78.5699C427.87 66.6899 437.41 61.2099 452.7 61.2099H460.14V58.0199C460.14 54.3099 458.81 50.6699 452.11 50.6699C446.01 50.6699 444.68 53.2599 444.01 57.0399H430.28C431.06 47.7699 436.79 40.2699 452.65 40.3599C466.62 40.4499 474.22 45.9099 474.22 58.3199V80.2499L474.23 80.2399ZM460.16 69.9699H454.28C445.58 69.9699 442.35 72.6299 442.35 77.6499C442.35 81.4299 444.67 84.6099 449.86 84.6099C459.04 84.6099 460.16 78.2299 460.16 71.3399V69.9699Z" fill="#0E1366" stroke="#1E1F53" stroke-miterlimit="10"/>
<path d="M532.16 76.86C530.36 85.55 524.25 94.92 508.71 94.92C493.17 94.92 484.13 83.69 484.13 68.01C484.13 52.33 493.53 40.34 509.4 40.34C526.99 40.34 531.87 52.96 532.16 58.86H518.06C517.17 54.61 514.76 51.64 509.12 51.64C502.52 51.64 498.78 57.43 498.78 67.54C498.78 78.64 502.74 83.71 509.06 83.71C514.02 83.71 516.68 80.78 517.97 76.86H532.16Z" fill="#0E1366" stroke="#1E1F53" stroke-miterlimit="10"/>
<path d="M555.45 20.16V47.72C557.74 44.34 561.97 40.35 570.39 40.35C580.12 40.35 587.86 46.11 587.86 60.25V93.71H573.51V62.41C573.51 55.63 571.1 52.02 565.05 52.02C557.03 52.02 555.45 57.99 555.45 66.04V93.71H541.01V20.15H555.45V20.16Z" fill="#0E1366" stroke="#1E1F53" stroke-miterlimit="10"/>
</svg>
