<svg width="32" height="43" viewBox="0 0 32 43" fill="none" xmlns="http://www.w3.org/2000/svg">
<circle cx="16.3549" cy="32.6166" r="9.13225" stroke="#3DC2EE" stroke-width="0.75"/>
<circle cx="16.355" cy="32.6168" r="7.13043" fill="#3DC2EE" stroke="#3DC2EE" stroke-width="0.5"/>
<path d="M16.3547 28.457L17.2886 31.3311H20.3106L17.8657 33.1074L18.7996 35.9815L16.3547 34.2052L13.9099 35.9815L14.8437 33.1074L12.3989 31.3311H15.4209L16.3547 28.457Z" fill="white"/>
<path d="M19.7159 21.3238L31.2089 1.41797H24.8754L13.3828 21.3238H19.7159Z" stroke="#3DC2EE" stroke-width="0.75"/>
<path d="M1.50081 1.12109L1.17551 1.30766L0.85345 0.746094H1.50081V1.12109ZM16.6808 15.7896C16.7838 15.9692 16.7217 16.1984 16.5421 16.3014C16.3624 16.4045 16.1332 16.3424 16.0302 16.1628L16.6808 15.7896ZM7.83428 1.12109V0.746094H8.05149L8.15956 0.934504L7.83428 1.12109ZM1.50081 1.12109L1.82611 0.934532L13.4127 21.1374L13.0874 21.324L12.7621 21.5106L1.17551 1.30766L1.50081 1.12109ZM16.3555 15.9762L16.0302 16.1628L7.509 1.30768L7.83428 1.12109L8.15956 0.934504L16.6808 15.7896L16.3555 15.9762ZM7.83428 1.12109V1.49609H1.50081V1.12109V0.746094H7.83428V1.12109Z" fill="#3DC2EE"/>
<path d="M18.1367 21.3238L29.6297 1.41797" stroke="#3DC2EE" stroke-width="0.75"/>
<path d="M16.3555 21.3238L27.8484 1.41797" stroke="#3DC2EE" stroke-width="0.75"/>
</svg>
