<svg xmlns="http://www.w3.org/2000/svg" width="366" height="340" fill="none"><rect width="154.756" height="154.756" x="211.244" y="101.798" fill="#FFF4DE" rx="77.378"/><path stroke="#1E3C70" stroke-miterlimit="10" stroke-width="1.2" d="M267.249 176.157c-.564.266-1.128.03-1.692 0-2.821-.18-4.657 1.318-6.191 3.482-1.379 1.944-2.308 4.129-3.441 6.201-.913 1.671-2.226 2.697-3.903 3.497-2.01.954-3.898 2.18-4.775 4.365-.882 2.19-1.661 4.426-2.384 6.672-.324 1.015.041 2.139-.154 3.175-.282 1.518-.888 2.974-1.139 4.492-.405 2.457-1.41 4.765-1.641 7.268-.144 1.538-.031 3.056.026 4.585.066 1.789-.354 3.472-1.103 5.077-.646 1.39-.631 2.81-.318 4.287.174.816.667.995 1.313.872.759-.143 1.497-.148 2.19.129 3.549 1.415 6.888.646 10.165-.908.231-.108.497-.154.692-.308.621-.492 1.185-.359 1.59.215.769 1.093 1.718 1.18 2.903.801 2.328-.744 4.759-.795 7.17-.893 1.066-.041 2.02-.261 2.779-1.02.657-.652 1.37-.759 2.298-.734 2.621.072 5.18-.323 7.58-1.533.882-.441 1.667-.857 1.893-1.913a.9.9 0 0 1 .297-.493c2.103-1.795 3.072-4.379 4.523-6.616 2.067-3.179-.128-7.128-3.533-7.564-.477-.062-.872.01-1.298.123"/><path stroke="#F16622" stroke-miterlimit="10" stroke-width="1.2" d="M315.36 128.045c-.313-.518-.831-.385-1.292-.395-4.985-.103-9.965.082-14.94.22-3.021.088-6.047.077-9.062.206-2.698.112-5.38-.124-8.068-.026-.297.01-.595 0-.902.061-.416.088-.852.159-.759.621s.313 1 .964 1c3.882 0 7.77.087 11.652-.015 6.672-.18 13.345-.339 20.022-.282 1.036.01 1.682-.703 2.39-1.293"/><path stroke="#1E3C70" stroke-miterlimit="10" stroke-width="1.2" d="M310.181 190.004c-.359-.493-.779-.323-1.195-.098-.21.113-.394.375-.6.38-1.856.046-1.625 1.456-1.682 2.605-.097 1.99.067 3.985-.107 5.975-.129 1.492-.165 2.99-.313 4.482-.2 1.954.087 3.831.707 5.678 1.006 2.985 1.99 5.98 2.99 8.965.631 1.872.929 3.841 1.965 5.595.841 1.426 1.943 2.467 3.41 3.175.267.128.539.256.795.4 1.293.707 1.959.543 2.79-.698 1.169 1.026 2.58 1.062 3.985.098.077-.052.123-.149.2-.195 1.241-.723 1.769-1.626 1.436-3.201-.667-3.143-.087-6.318.287-9.452.518-4.297.252-8.447-1.19-12.57-.989-2.831-1.979-5.611-3.918-7.96-.964-1.169-1.949-2.302-3.195-3.184M301.713 195.481c-.312 5.37 1.047 10.498 2.308 15.632.559 2.262.662 4.498.282 6.78-.512 3.052.236 5.713 2.39 7.97.903.949 1.867 1.815 2.99 2.487M256.689 186.316c-.431 2.524-.898 5.042-1.328 7.565-.965 5.657-1.631 11.345-2.257 17.037-.215 1.96-.4 3.919-.6 5.878"/><path stroke="#1E3C70" stroke-miterlimit="10" stroke-width="1.2" d="M323.531 196.076c-.051.436.067.831.298 1.195 1.728 2.667 2.21 5.698 2.477 8.77.236 2.718.441 5.442.482 8.165.026 1.964-.226 3.934.236 5.877.374 1.58.826 3.134 1.79 4.483M328.311 148.564c.348 2.59.092 5.18.035 7.77-.035 1.657.236 3.329.472 4.98.487 3.395 1.144 6.765 1.544 10.165.215 1.836.108 3.718.015 5.575-.071 1.431-.118 2.857-.061 4.282.067 1.831-.4 1.893-1.708 1.298M311.776 186.414c1.395-1.057 2.898-1.169 4.482-.477-.041.415-.071.81.047 1.287.2.816.205 1.749.01 2.565-.159.676.056 1.148.359 1.595 1.749 2.605 2.785 5.482 3.041 8.58.18 2.174-.651 4.133-1.959 5.877-.851 1.139-1.826 2.17-2.626 3.359-1.302 1.934-1.846 4.031-1.959 6.298-.01.2-.046.4-.092.744-1.082-1.036-1.462-2.144-1.216-3.534.344-1.959 1.052-3.826 1.385-5.78.297-1.743.672-3.508-.062-5.282-.492-1.19-1.312-2.139-2.015-3.175-1.487-2.2-1.852-4.621-1.359-7.17.102-.538.41-1.051.831-1.533.861-.99 1.466-2.144.748-3.564-.384-.77.667-2.375 1.677-2.678 1.119-.333 2.124.016 2.975.713.421.344.585.903.313 1.477M252.31 194.486c-1.052 2.149-1.847 4.411-2.052 6.775-.184 2.144-.256 4.308.041 6.473.57 4.113.405 8.205-.579 12.252-.046.195-.067.4-.103.595"/><path stroke="#F16622" stroke-miterlimit="10" stroke-width="1.2" d="M281.296 129.84c.22 3.851.272 7.698.02 11.555-.277 4.277-.343 8.564-.118 12.847M303.709 173.469c-6.175 0-12.35.01-18.53-.01-1.005 0-2 .061-2.985.226-.656.112-1.261.061-1.897-.098-.488-.123-.549-.462-.585-.815-.041-.488.349-.426.682-.518.41-.113.872-.185 1.19-.047.826.365 1.667.262 2.503.262 4.78.01 9.565.01 14.344 0 1.462 0 2.924-.072 4.385-.087.365 0 .729.061 1.098.092"/><path stroke="#1E3C70" stroke-miterlimit="10" stroke-width="1.2" d="M253.007 147.467c-2.128.113-4.251.225-6.446.338.548 1.231 1.189 2.318 1.595 3.534.738 2.215 1.097 4.477 1.148 6.785.072 3.564.108 7.139-.661 10.662-.098.436.128.939.066 1.39-.143 1.082-.364 2.098-.923 3.124-.831 1.528-.897 3.338-.523 5.041.308 1.4.682 2.164 3 1.693.236-1.411-.123-2.785-.338-4.175a9.4 9.4 0 0 1-.098-1.693c.016-.733.262-.82.893-.512.641.312.744.728.713 1.41-.123 2.821-.108 5.647-.241 8.467-.087 1.893-.031 3.801-.375 5.683-.036.184.057.395.093.595M271.435 198.471c-.133 1.99-.287 3.985-.395 5.975-.123 2.303.215 4.585.395 6.872.092 1.195.369 2.36.231 3.59-.103.924.461 1.765.877 2.58.277.544.538 1.134 1.082 1.503M302.611 213.011c.467 1.39.611 2.841.58 4.282-.067 3.016.261 5.97 1.118 8.862.528 1.795 1.323 3.442 2.677 4.796.713.713 1.528.892 2.395.569 2.518-.928 5.047-.687 7.575-.169 1.036.21 2.031.056 2.985-.241.831-.257 1.641-.406 2.498-.375M281.296 154.939c-.836-.292-1.672-.107-2.272.421-1.174 1.041-2.574 1.149-4.005 1.272-1.893.164-3.785.107-5.678.082-.774-.01-1.056.297-1.323 1.005-.708 1.898-.328 3.785-.174 5.688"/><path stroke="#F16622" stroke-miterlimit="10" stroke-width="1.2" d="M309.088 146.969c-6.386.364-12.781.58-19.125 1.493"/><path stroke="#1E3C70" stroke-miterlimit="10" stroke-width="1.2" d="M326.716 157.129c.462 3.442.175 6.975 1.113 10.355.554 2.005.636 4.036.677 6.083.01.43-.025.866.005 1.292.067.821-.318 1.333-1.097 1.175-2.18-.447-4.277-.006-6.375.446-.6.128-1.18.061-1.693-.062-1.153-.282-1.877.416-2.692.939-.431.277.005.882-.4 1.19M328.91 199.861c1.164 1.851 2.298 3.723 3.293 5.672.066.133.215.21.195.4-.129 1.2.692 2.041 1.215 2.975.369.656.472 1.261.169 1.902-1.138 2.375-2.605 4.544-4.277 6.575-.149.185-.308.38-.595.303"/><path stroke="#F16622" stroke-miterlimit="10" stroke-width="1.2" d="M311.078 136.512c-.657.492-1.462.436-2.195.472-3.257.174-6.514.297-9.76.61-.728.072-1.472.041-2.19-.19-1.185-.379-2.344-.246-3.549.226-.292-.897.574-1.339.759-2.021"/><path stroke="#1E3C70" stroke-miterlimit="10" stroke-width="1.2" d="m296.636 173.664-.2 17.432"/><path stroke="#F16622" stroke-miterlimit="10" stroke-width="1.2" d="M308.289 153.447c-1.795.2-3.56.615-5.38.723-2.154.128-4.278.097-6.375-.421-.359-.087-.728-.133-1.093-.205-2.287-.426-2.513-.318-3.487 1.693q-2.415-1.996-4.508-.175c-.169-.359-.6-.549-.569-1.02"/><path stroke="#1E3C70" stroke-miterlimit="10" stroke-width="1.2" d="M298.826 192.594c-1.031.01-1.903-.467-2.785-.903-.61-.303-1.226-.579-1.898-.687-1.312-.21-2.231.487-2.866 1.497-.611.97-.754 2.026-.026 3.078 1.174 1.697 2.415 3.343 2.836 5.467.133.687 1.057.605 1.651.805M277.21 180.439c-.134-.133-.313-.241-.39-.4-.872-1.79-2.518-1.339-3.99-1.395-.518-.021-.975.21-1.169.615-.262.539-.724.816-1.149 1.211 1.128 2.267.8 4.682.497 7.041-.328 2.565.503 4.472 2.621 5.883 2.282 1.523 3.436 3.733 4.011 6.37.353 1.615.928 3.19 1.666 4.687"/><path stroke="#F16622" stroke-miterlimit="10" stroke-width="1.2" d="M310.283 143.287c-2.589.051-5.19-.421-7.775.277-1.451.39-2.959.6-4.477.513-.764-.041-1.528-.134-2.292-.195-.631-.051-1.195.041-1.477.728-1.18-.728-2.375-.749-3.606-.231"/><path stroke="#1E3C70" stroke-miterlimit="10" stroke-width="1.2" d="M260.376 146.072c-.533.533-1.025 1.102-1.6 1.585-1.133.943-1.631 2.174-1.79 3.595-.046.4-.123.8-.205 1.292.626.451 1.113 1.154 1.923 1.564-.215.949-.625 1.888-1.333 2.611-.805.826-1.513 1.785-2.662 2.231-.236.092-.456.492-.487.774-.221 1.749-.462 3.503-.41 5.39 1.19-.077 2.282-.159 3.379-.2.329-.01.657-.03 1.001.072 1.03.298 2.01.236 3-.354.877-.528 1.82-.225 2.672.272M315.463 157.032c.292 1.574.066 3.144-.221 4.677-.446 2.375-.954 4.739-.877 7.175.016.574.082 1.133.18 1.698.087.487.113 1.02-.18 1.492M324.727 225.063c.533 1.036.456 2.18.594 3.287.016.129 0 .267 0 .4.062 1.554.298 1.795 1.683 1.17 2.384-1.077 4.78-.564 7.18-.257.446.057.866.108 1.297-.02"/><path stroke="#F16622" stroke-miterlimit="10" stroke-width="1.2" d="M313.571 129.64c-.031.43-.092.861-.097 1.292a800 800 0 0 0 0 8.765c.015 2.292-.262 4.58-.006 6.872.011.098.036.216 0 .298-.666 1.287-.456 2.61-.364 3.99.067.938-.523 1.923-.831 2.882-.302.933.021 1.785.416 2.585.359.723 1.226.985 2.174.805.775-.149.898-.81.98-1.395.185-1.354.282-2.718.415-4.082"/><path stroke="#1E3C70" stroke-miterlimit="10" stroke-width="1.2" d="M304.502 193.486c-.477 2-.492 4.041-.589 6.077-.129 2.775.118 5.529.589 8.268"/><path stroke="#F16622" stroke-miterlimit="10" stroke-width="1.2" d="M313.467 157.232c-.174 1.123-.2 2.251-.2 3.385 0 3.19.005 6.375-.005 9.565 0 .328.118.682-.092.995"/><path stroke="#1E3C70" stroke-miterlimit="10" stroke-width="1.2" d="M264.264 148.564c.902-.261 1.384-.861 1.497-1.795.195-1.62.426-3.241.298-4.882 0-.031-.011-.072 0-.098.543-1.374-.154-2.236-1.195-2.995-1.154-.836-2.406-1.189-3.785-.784-1.852.543-3.319 1.564-3.775 3.579-.149.647-.144 1.324-.21 1.99"/><path stroke="#F16622" stroke-miterlimit="10" stroke-width="1.2" d="M281.297 158.627c.164 4.513.333 9.031.497 13.545"/><path stroke="#1E3C70" stroke-miterlimit="10" stroke-width="1.2" d="M306.894 190.599c-1.159-.159-2.026.513-2.877 1.113-.508.359-.964.667-1.6.805-1.385.297-1.898 1.457-2.298 2.662-.508 1.528-.528 3.108-.374 4.677.051.539-.077.928-.277 1.416-.323.764-.349 1.651-.544 2.472-.303 1.246-.626 2.477-.503 3.79.057.595.129 1.036.795 1.323.759.323 1.447.81 2.303.867M263.864 165.099c-1.661.421-3.072 1.544-4.785 1.775-1.605.22-3.087.877-4.677 1.123-.774.118-1.523.041-2.293.015-.871-.031-1.082-.513-1.2-1.221-.359-2.118-.256-4.241-.215-6.374.046-2.426.451-4.791.826-7.17.066-.431.174-.857.092-1.298M316.956 189.306c.702-1.107 1.544-2.123 2-3.385.744-2.071.441-3.928-.898-5.687-2.62-3.462-7.441-1.744-9.293.79-1.702 2.328-1.831 6.231.416 8.385.066.067.072.195.102.292M298.128 210.123c-2.231-.661-5.903.149-6.99 2.385-1.262 2.6-.133 6.488 2.416 7.76.466.231 1 .461 1.256.836 1.272 1.815 3.067 1.692 4.908 1.467 1.139-.139 2.216-.452 2.99-1.39M273.326 178.449c.913-1.057 1.836-2.046 3.052-2.846 1.682-1.103 2.272-2.939 1.805-4.919-.446-1.872-1.59-3.215-3.559-3.692-3.493-.847-6.467 1.333-6.888 4.979-.159 1.39-.036 2.734.754 3.857.354.508-.22 1.052.349 1.436.513.349.733.944 1.005 1.482.231.467.467.929.698 1.395M318.352 191.296c.979-.118 1.682.559 2.482.918 2.533 1.139 3.913 3.267 5.031 5.739 1.098 2.416 1.226 4.985 1.744 7.493.784 3.775 1.066 7.596 1.031 11.452-.021 2.242 1.128 4.211 1.846 6.283.636 1.846 1.492 3.513 3.01 4.77a54 54 0 0 0 2.19 1.692c.262.195.59.123.893.103M273.326 219.088c-.184.82.462 1.318.816 1.877 1.338 2.098 1.697 2.805-1.221 4.19-1.221.58-2.539.862-3.882 1.005a2.23 2.23 0 0 1-1.195-.2M324.926 161.812c.154 3.769.343 7.533.995 11.257.025.159 0 .333 0 .497M315.16 149.159c.836.913 1.964.8 2.985.662a46 46 0 0 1 3.595-.364c.826-.046 1.872.615 2.39 1.59.185.338.241.759.621 1.02.446-.195.995-.189 1.369-.63-.231-.842-.436-1.688-.415-2.58.015-.857.764-1.58.466-2.539-.574.272-.779.903-1.318 1.067-.395-.318-.297-.733-.338-1.118-.041-.41.205-.903-.477-1.139-.262-.092-.154-.697-.103-1.051.241-1.718-.02-3.462.354-5.19.241-1.103-.928-2.462-2.256-2.98-1.59-.621-3.806.082-4.57 1.498-.41.764-.6 1.589-.01 2.384M253.705 176.454c-.098 1.031-.252 2.057-.288 3.088-.097 2.856-.143 5.708-.21 8.564M275.019 196.076c-1.682-.241-3.369-.215-4.975.323-1.784.6-2.687 2.098-3.42 3.749-.288.641-.354 1.421-.97 1.903M324.429 178.546c-.031 1.595-.052 3.19-.108 4.78-.021.6-.144 1.195-.185 1.795-.015.241-.128.421-.313.482-.215.077-.369-.025-.507-.277-.626-1.128-.903-2.313-.682-3.595M279.203 157.827c.487-.416.892-.898 1.472-1.231.502-.287 1.061-.759.728-1.564-.092-.221.139-.411.282-.595a87 87 0 0 0 3.713-5.262c.175-.267.205-.61.436-.81.621-.047 1.062.169 1.293.61-2.057 3.436-4.503 6.534-6.919 9.724-.99-1.195-2.221-.908-3.287-.446-2.847 1.22-5.847 1.636-8.878 1.964M312.873 171.376c.261.38.564.688.99.908.569.293.543.775-.103 1.016-.621.236-1.277.369-1.99.184-1.733-.446-4.308.554-5.257 2.088-.538.872-1.174 1.349-2.21 1.184"/><path stroke="#1E3C70" stroke-miterlimit="10" stroke-width="1.2" d="M324.125 140.097c1.462-.267 2.918-.544 4.385-.795.728-.123 1.482-.133 2.185-.323.672-.185.764.118.697.615-.323 2.524-.672 5.047-.984 7.57-.077.631-.329.857-1.001.929-1.164.123-2.302.456-3.487.369M261.475 152.647c-.861 1.118-.99 2.451-1.092 3.785-.057.697.02 1.39-.093 2.092-.307 1.949-1.595 3.262-3.595 3.585M257.587 203.651c-.046 3.087-.344 6.134-1.4 9.062-.17.477-.395.934-.595 1.395M266.454 192.891c-.297.344-.703.298-1.097.298-.765 0-1.529.02-2.293 0-2.313-.067-2.549.697-3.169 2.102a8.1 8.1 0 0 0-.713 3.18M268.445 176.751c-.683-.056-1.021-.43-1.211-1.092-.41-1.441-1.456-2.59-2.544-3.405-.871-.652-2.21-1.103-3.523-.693-1.303.411-2.564.846-3.698 1.682-2.39 1.775-2.59 4.473-1.954 6.981.19.759.313 1.661 1.17 2.097"/><path stroke="#1E3C70" stroke-miterlimit="10" stroke-width="1.2" d="M268.146 156.832c-.164-.298-.261-.693-.508-.882-1.102-.841-1.251-2.124-1.569-3.308-.349-1.308-.938-2.488-1.713-3.58-.487-.687-1.918-.739-2.482-.103-1.287 1.462-2.334 3.077-3.093 4.878M249.021 180.341c.026.288-.22.477-.22.795 0 2.857-.031 5.714-.103 8.565-.01.359.462.78-.077 1.098M305.898 176.557c.277.395-.036.743-.113 1.092-.164.739-.282 1.467.016 2.195.231.564.113 1.149-.026 1.687a10.6 10.6 0 0 0-.287 1.698c-.133 1.487.615 2.359 1.903 2.887M260.475 188.706c.836 1.636 2.349 1.99 3.985 2.087 1.359.082 2.723.134 4.082.206.59.03 1.123.235 1.595.594M298.031 212.313c-1.303.021-2.523.298-3.662 1.011.451.497.975.579 1.472.677 2.708.538 4.477 2.144 5.488 4.682.292.734.538 1.544 1.384 1.898M312.771 171.176c-1.159-.959-2.339-1.846-3.77-2.431-.759-.312-1.39-.317-2 .057-1.385.851-2.498 1.964-2.995 3.569M298.729 173.664c.21 2.693.036 5.38-.093 8.067-.02.431-.097.877.093 1.293M298.627 189.701c.605.959.487 2.011.174 2.98-.508 1.59-1.41 3-2.585 4.175-.954.954-1.082 1.938-.579 3.108.169.394.307.81.513 1.189.082.144.123.359.076.39-.8.518-.184 1.021.016 1.503.2.477.415.959.697 1.39.503.764.585 1.477.344 2.41-.231.898-.287 1.913-.051 2.877M316.355 149.959a6.77 6.77 0 0 0 2.401 3.375c1.338 1.01 2.933.739 3.979-.585.426-.538.862-1.061 1.293-1.595M328.311 182.731c-.312 1.949-.23 3.919-.307 5.878-.026.667-.123 1.328-.195 1.99-.051.456-.241.82-.698.995M319.248 185.619c.78.225 1.282.836 1.78 1.405.42.482.902.636 1.507.59 1.867-.139 3.098.866 3.857 2.4.626 1.262 1.021 2.646 1.523 3.969.236.626.298 1.216-.297 1.693M280.198 192.096c.867-1.441 1.154-3.041 1.293-4.682.056-.698-.052-1.395.092-2.093.051-.246 0-.548-.097-.789-.713-1.775-1.929-3.088-3.678-3.883-.082-.036-.195 0-.323 0-.282 3.036-.574 6.078-1.667 8.965"/><path stroke="#1E3C70" stroke-miterlimit="10" stroke-width="1.2" d="M265.653 153.842c-.302 1.513.113 2.944.487 4.385.313 1.21.595 2.446.103 3.677-.113.287-.323.533-.492.8M327.316 201.753c.498-.697.98-1.405 1.498-2.087.446-.59.518-1.241.082-1.785-1.708-2.154-2.903-4.698-4.965-6.585-.928-.851-1.631-2-3.087-2.108-.344-.025-.667-.138-1 .021M299.822 201.256c.543 3.882 1.687 7.611 2.815 11.421a4.6 4.6 0 0 1-1.82 1.031c-1.442.431-2.59-.451-2.59-1.995 0-.979.02-1.959.4-2.887M289.765 207.934c-.877.251-1.79.297-2.688.287-1.866-.021-3.718.184-5.58.318-.169.01-.333.128-.497.19M265.957 141.892c-.862 1.031-1.718 2.067-2.59 3.088-.641.748-1.005.805-1.482.194-.231-.292-.293-.81-.8-.677-.534.139-.498.642-.508 1.083 0 .066-.067.128-.118.22.231.385.61.554 1.021.672M279.501 205.041c.606 1.492 1.242 2.97 1.503 4.58.236 1.477.103 1.687-1.297 2.103-.795.23-1.595.205-2.396.184-.902-.025-1.784-.287-2.831-.148.211-.831.442-1.467.836-2.037M249.12 195.281c-1.241 2.477-1.995 5.129-2.79 7.77M321.141 178.146c-.138 2.257-.169 4.514 0 6.775.026.334.067.662.098.995M322.432 214.406c-.041 3.2-1.585 5.61-3.985 7.57M257.289 198.271c1.051 2.421 1.816 4.918 1.99 7.57M262.869 155.837c-.789 1.467-1.092 3.092-1.487 4.682-.261 1.067-.749 1.934-1.8 2.39M306.395 188.506c-.63-.025-1.261 0-1.892-.082-.954-.128-1.81.144-2.487.877a530 530 0 0 1-2.688 2.888M323.428 139.999c-1.662.241-3.328.144-4.975-.036-1.092-.117-2.123.211-3.313-.02.077 1.451-.107 2.744-.148 4.041-.016.472-.139.923-.139 1.395 0 .529.185.749.713.703.41-.036.8.102 1.2.179.554.103.846.349.898.913.046.544-.324.775-.708.99-.246.139-.534.303-.79.287-1.226-.051-1.426.841-1.575 1.713-.066.385-.133.723-.42.99l-.898-.2M294.641 201.656c-.513.918-1.513 1.22-2.303 1.779a79 79 0 0 1-4.38 2.888 4.66 4.66 0 0 1-2.082.702c-1.636.129-3.282.262-4.882-.282-.149-.051-.329-.005-.498-.005M273.824 166.592c-.369-1.801-2.092-3.103-3.98-3.319-2.138-.246-3.236 1.047-4.282 2.519-1.323 1.866-1.482 3.985-1.298 6.174M293.446 220.38c-.549 1.272-.38 1.718.898 1.867.759.087 1.266.472 1.569 1.036.626 1.169 1.554 1.385 2.708 1.077.569-.154 1.087.036 1.374.421 1.072 1.431 2.606 1.651 4.206 1.779M289.363 198.866c-1.467.169-2.764.559-3.713 1.872-.723 1-1.662 1.852-2.575 2.698-.825.769-1.83 1.097-2.979.81M327.91 176.254c.098 1.626.236 3.251.277 4.882.01.493.257.913.221 1.395M297.032 207.333c-.698.031-1.411-.02-2.088.118-1.887.385-2.338.626-2.79 2.775M323.931 140c-.897-.662-1.795-1.329-2.687-1.99-.431-.318-.836-.431-1.303-.005-.631.569-1.395.995-1.785 1.8M325.623 181.736a18.4 18.4 0 0 0 0 5.775"/><path stroke="#1E3C70" stroke-miterlimit="10" stroke-width="1.2" d="M283.188 197.471c-1.061 1.98-1.718 4.139-2.856 6.093-.708 1.215-1.795 1.78-2.924 2.364-.969.503-1.949 1-3.179.888.579 1.215.912 2.384 1.584 3.4M292.251 197.574c-1.938.241-3.856 0-5.774-.2M304.006 177.151c-2 1.77-1.523 4.837-.585 6.77.544 1.118 1.477 1.97 2.303 2.877.472.518.734 1.021.79 1.713.056.672.379 1.221 1.174.882.559-.241.641.354 1.006.416M317.053 227.653c.405 1.056 1.436 1.154 2.297 1.364 1.411.344 2.595.974 3.58 2.021M281.691 185.321c.477.257.538.785.677 1.2.969 2.872 2.138 5.668 3.554 8.334.708 1.334.349 2.365-.087 3.519-1.683-.252-2.698-1.098-3.616-2.554-1.41-2.247-3.211-4.262-5.601-5.637-1.723-.99-3.595-1.497-5.487-1.979M323.429 156.232c-1.677 1.421-3.77 2.267-5.38 3.785M298.129 184.326c.754.877.882 1.821.415 2.898-.225.518-.246 1.092-.133 1.692.195 1.057.036 2.124-.082 3.185M291.554 218.791c-1.308.435-2.61.871-3.964 1.323.436.948 1.082.815 1.774.569.8-.282 1.539-.482 2.221.369.292.364.949.328 1.462.123M251.509 149.559c-.59-.164-1.185-.271-1.964-.112.651 2.718.708 5.467 1.067 8.18M320.643 191.994c.026-.975-.774-1.662-.908-2.59-.031-.2-.277-.216-.487-.205-.908.046-1.821.082-2.687.4"/><path stroke="#F16622" stroke-miterlimit="10" stroke-width="1.2" d="M294.441 135.117c-.076.149-.041.375-.297.4-1.769.19-3.359.934-4.985 1.575-.426.169-.631.441-.79.81"/><path stroke="#1E3C70" stroke-miterlimit="10" stroke-width="1.2" d="M319.843 217.396c-1.051 1.153-3.708 2.005-4.98 1.595M277.712 174.464c.513 1.697.472 3.333-.497 4.882M255.396 145.277c.298.097.605.184.898.302.81.323.795-.4.99-.805.215-.446.205-.959-.303-1.164-.282-.118-1.056-.067-.928.246.4.99-.57 1.282-.887 1.452-1.165.636-1.724 1.595-2.18 2.743-.21.529-.58 1.006-1.041 1.436-.734.688-1.575 1.436-1.323 2.657M324.623 152.847c-.01.943.226 1.841.611 2.682.692 1.533 1.246 1.826 2.877 1M256.493 147.77c-1.071.784-1.159 1.138-.81 2.297.282.944.349 1.929 0 2.882-.143.39-.323.734.01 1.098M265.957 184.024c.754 1.472 1.349 3.036 2.493 4.282M292.549 192.891l1.292 4.082M314.268 173.664c1.615.651 2.072 2.072 2.39 3.585M323.428 147.267c-.549-.457-.41-1.406-1.185-1.734-.707.6.031 1.241-.118 1.836-.389.031-.641-.302-.979-.395-.205.113-.308.359-.195.482.4.447.672.888.405 1.513-.031.077.18.257.282.39M261.674 186.516c.451 1.652 1.528 2.631 3.19 2.99M332.198 207.133c-.621.616-1.436.903-2.195 1.288-.59.302-1.144.02-1.692-.195"/><path stroke="#F16622" stroke-miterlimit="10" stroke-width="1.2" d="M290.856 142.984c-1.472.031-2.683.688-3.837 1.657-.272-.631-.138-1.195.052-1.759"/><path stroke="#1E3C70" stroke-miterlimit="10" stroke-width="1.2" d="M286.174 199.861c-1.262-.113-2.544.041-3.785-.298M302.611 181.336c-1.426.662-2.857 1.329-4.283 1.99M283.086 155.237c.585.533.728 1.041.005 1.6-.369.287-.651.677-1.01.98-.318.271-.682.533-1.093.107M255.197 149.462c-.482-.087-.775.195-1.103.487-.969.857-2 1.641-3.185 2.19-.205.092-.461.077-.692.108M283.686 190.599c-1.082.877-2.026 1.938-3.288 2.59M254.602 157.329c-1.144.216-2.267.036-3.385-.2M256.689 152.75c-1.446 1.461-1.585 3.446-2.077 5.282-.062.231-.128.549.082.795M273.424 172.571c-.544-.441-.518-1.277-1.277-1.636-.446-.21-.841-.364-1.313-.353M324.926 193.588c.395.888.41 1.924 1.097 2.688M250.914 167.289c-1.113.462-1.467 1.503-1.893 2.493M263.264 160.617c-.313.692-.508 1.436-1.077 2.01-.231.231-.405.385-.718.38M319.643 150.257c.866 1.123 1.271 1.174 2.492.297M323.827 157.232c-.625.918-1.574 1.482-2.389 2.19M259.582 147.267c.59.821 1.498 1.098 2.39 1.395M279.204 218.591c-.446.138-.887.282-.795.897.102.677.702.482 1.097.58.277.067.595-.046.893-.082M251.611 174.464c.231.2.503.369.693.605.754.949 1.764 1.462 2.897 1.79M314.765 144.877c-.723.287-.523 1.267-1.195 1.595M287.77 206.636c.533.431 1.169.728 1.595 1.292M324.029 145.277c-.436.446-.293 1.072-.498 1.595M265.459 165.699c-.4-.364-.877-.569-1.395-.698"/><path stroke="#F16622" stroke-miterlimit="10" stroke-width="1.2" d="M288.866 137.01c-.082-.749-.446-.657-.897-.298M292.153 142.39c-1.431.241-1.631 1.318-1.692 2.492"/><path stroke="#1E3C70" stroke-miterlimit="10" stroke-width="1.2" d="m299.924 191.994.995 1.195M306.694 186.019c-.344.246-.457.625-.6.995M297.631 205.938c.323-.051.272.462.6.4"/><g clip-path="url(#a)"><rect width="134.749" height="134.749" x="112.977" fill="#FFF4DE" rx="67.375"/><path stroke="#1E3C70" stroke-miterlimit="10" stroke-width="1.2" d="M185.929 56.104c-.425.764-.866 1.523-1.261 2.303-.162.324-.324.47-.724.486-3.286.137-6.425-.47-9.462-1.762-.815 4.511-1.929 8.977-2.187 13.569-.142 2.561-.061 5.128.126 7.695.213 2.992.496 5.98.825 8.961.147 1.322.441 2.623 1.261 3.727.395.526.972.8 1.585.946 1.225.289 2.45.593 3.726.41a.46.46 0 0 0 .314-.167M207.983 113.379c-1.149.324-2.329.152-3.493.212-2.218.112-4.44.122-6.663.097-3.463-.041-6.931-.087-10.394-.249-3.549-.167-7.093-.43-10.632-.759a188 188 0 0 1-17.613-2.466c-5.954-1.124-11.807-2.627-17.528-4.612-.875-.304-1.746-.633-2.617-.952M195.209 33.098c.582 1.69 1.155 3.387 1.752 5.078.349.982.734 1.949 1.256 2.86.572 1.008 1.372 1.595 2.546 1.666 1.737.101 3.473.258 5.159-.395.77-.299.729-.258.405-.962a187 187 0 0 1-2.541-5.63c-1.504-3.519-3.767-6.364-7.149-8.247-1.23-.689-2.496-1.225-3.969-.805-.648.187-1.236-.415-1.853-.208-.421-.855-.583-1.736-.598-2.642-.02-.993-.02-1.93 1.175-2.41.739-.294.901-1.205.572-1.96-.132-.303-.304-.536-.643-.547-.294 0-.415.233-.577.451-.096.132-.036.405-.299.41M119.449 89.022c1.165.5 2.44.44 3.651.698 2.799.598 5.639.942 8.485 1.2 2.718.243 5.447.45 8.171.638 3.013.207 6.03.395 9.042.557 2.061.111 4.127.137 6.187.253 2.749.152 5.503.213 8.252.456 2.162.192 4.339.238 6.501.42 1.853.157 3.711.167 5.559.415.972.127 2 .035 3.007.121 2.512.213 5.023.385 7.539.557.526.036 1.058.005 1.585.005M185.692 63.085c.476.977.415 2.06.537 3.098.399 3.377.364 6.77.025 10.151-.061.578 0 1.175-.096 1.742-.451 2.714-.805 5.448-1.595 8.085-.522 1.737-1.509 3.266-2.521 4.764-.426.633-1.175.836-1.747 1.271M120.482 89.498c.618 2.328 1.934 4.232 3.57 5.948 3.134 3.286 6.991 5.509 11.027 7.453.982.471 2.004.855 3.012 1.276M205.365 42.935c.344 1.478.678 2.962 1.032 4.44.233.967-.04 1.337-1.032 1.352-2.583.035-4.977-.76-7.291-1.767-1.914-.835-3.954-1.27-5.883-2.035-.061-.026-.157.045-.238.07M242.648 103.223c-1.189 1.64-2.404 3.26-3.559 4.926-.486.704-1.027 1.362-1.519 2.055-.4.567-1.058.451-1.594.532-2.375.344-4.749.699-7.134.997-4.141.527-8.293.967-12.459 1.246-2.593.172-5.185.319-7.777.481-.106.005-.213.05-.319.076M183.787 29.767c-.172-1.327-.765-2.446-1.661-3.403-2.632.44-4.678 1.823-6.45 3.787-2.202 2.436-4.293 4.962-6.414 7.473.541 2.703 1.721 5.063 3.731 6.982.273.263.577.136.876.08M198.221 41.821c-.82-.435-1.736-.46-2.617-.638-2.516-.506-4.977-1.24-7.458-1.909-.319-.086-.633-.111-.951-.162-1.302-.207-1.454-.116-1.909 1.12-.238.642-.441 1.28-.486 1.984-.071 1.068.05 1.341 1.048 1.747M224.088 108.063c-4.385 1.873-9.002 2.683-13.725 3.012a746 746 0 0 0-3.332.238M169.586 39.68c-2.962-.264-5.924-.542-8.885-.785-1.317-.107-2.522-.659-3.808-.871-1.129-.187-2.273-.122-3.407.005-.324.035-.678.132-.871.466.248.293.588.435.947.552.334.11.435.308.243.632-.238.4-.456.805-.683 1.215.891.765 1.797.897 2.744.37M158.164 42.06c1.62.207 3.038 1.002 4.516 1.594a30 30 0 0 1 4.045 1.98c2.086 1.235 3.99.926 5.797-.562l.395-.32M198.459 91.163c1.083-.081 2.167-.157 3.25-.238 2.765-.207 5.473-.754 8.167-1.367.486-.111 1.063-.076 1.422-.658a230 230 0 0 0 5.605 8.748c-2.375 1.003-4.744 1.945-7.26 2.486-2.279.491-4.572.871-6.901 1.033-.162.01-.319.101-.476.152"/><path stroke="#1E3C70" stroke-miterlimit="10" stroke-width="1.2" d="M187.514 85.772c-.081 1.113-.217 2.222.071 3.336.051.192-.061.42-.066.633-.07 2.729.031 5.452.249 8.171.318 3.959.789 7.903 1.893 11.741.375 1.301.79 2.592 1.185 3.888M187.669 69.272c-.05.977-.141 1.954-.152 2.936-.04 3.675-.06 7.351-.086 11.027 0 .106.051.238-.076.319M175.535 77.043c-.673 3.336-.299 6.546 1.018 9.685.744 1.762 2.01 2.618 3.898 2.613M157.289 41.426c.927.608 1.251 1.691 1.954 2.486a14.4 14.4 0 0 0 4.081 3.215c3.331 1.762 6.865 2.319 10.627 1.944 3.417-.34 6.546-1.438 9.503-3.073.845-.466 1.726-.962 2.394-1.716"/><path stroke="#1E3C70" stroke-miterlimit="10" stroke-width="1.2" d="M202.035 101.162c-3.807.304-7.579.157-11.265-.957-.901-.273-1.726-.724-2.541-1.184M190.449 22.704c1.291-.653 2.284-1.646 2.992-2.87.557-.968.492-1.56-.379-2.36-1.327-1.22-2.901-2.096-4.44-3.017-.648-.39-1.342-.71-1.975-1.124-.871-.572-1.701-.461-2.541.01-.613.339-1.195.729-1.833 1.017-.466.208-.572.527-.547.967q.037.714.081 1.428c.005.107.015.253.081.309 1.16.952.841 2.36 1.089 3.58.192.961.253 1.949.329 2.93.06.796.329 1.474.957 1.985M247.727 96.955c-.81.096-1.59-.101-2.38-.233-1.179-.197-2.364-.339-3.569-.339-2.461 0-4.916.01-7.377-.045-3.619-.081-7.244-.01-10.869-.03-1.084-.006-2.167-.097-3.251-.153M236.223 99.097c-2.228 3.402-5.519 5.523-8.966 7.452-.947.532-1.945.982-3.013 1.514 1.246 1.235 2.445 2.521 3.807 3.645M186.006 44.044c.081.08.207.242.233.227.612-.35.881.01 1.21.476.501.709 1.195.684 1.878.314.39-.213.759-.43 1.195-.547.638-.167 1.149.03 1.428.643 1.402 3.124 2.997 6.147 4.703 9.108.526.917 1.002 1.894 1.807 2.628M156.574 41.902c-.106.896.096 1.762.319 2.617 1.013 3.909 3.453 6.683 6.931 8.693 1.175-1.109 2.263-2.263 2.916-3.772.051-.116.051-.212.071-.324"/><path stroke="#1E3C70" stroke-miterlimit="10" stroke-width="1.2" d="M189.103 45.39c.228.906-.041 1.803-.096 2.699-.137 2.278-.35 4.551-.542 6.824-.127 1.534-.279 3.068-.39 4.602-.101 1.403-.177 2.8-.238 4.203-.071 1.61-.116 3.224-.157 4.84-.005.222-.111.465.223.648 1.666.896 3.458 1.2 5.321 1.18M176.805 33.73c-.319 1.24-.562 2.512-.967 3.722-.775 2.313-1.448 4.657-1.777 7.067a24.4 24.4 0 0 0-.192 4.516M186.242 79.108c.258 1.21.375 2.44.618 3.656.552 2.784 1.883 5.144 3.66 7.3.375.456.81.45 1.352.512 1.083.121 2.157.339 3.255.38.314.01.638.03.952.05.279.015.436.101.395.405"/><path stroke="#F16622" stroke-miterlimit="10" stroke-width="1.2" d="M167.84 92.991c.197-2.126.405-4.248.784-6.344 1.246-.248 1.641-.643 1.762-1.797-7.189.476-14.414-.131-21.603.73.056.754.608.83 1.134.895.329.04.501.01.674.471.516 1.347.602 2.775.982 4.142.101.359.111.739.167 1.108"/><path stroke="#1E3C70" stroke-miterlimit="10" stroke-width="1.2" d="M208.696 114.174c-.79-.866-1.184-1.98-1.792-2.901-2.278.091-4.521.177-6.774.066-1.453-.071-2.906-.203-4.359-.299-1.863-.121-3.752-.304-5.478-1.154M217.025 97.831l7.139 9.994M184.577 68.158c.02 3.154-.481 6.257-.952 9.36M200.367 68.715c1.615 3.174 3.225 6.349 4.84 9.518.142.273.314.531.476.795M220.676 84.9c-1.453 1.291-3.225 2-5.002 2.694-1.362.531-2.749 1.012-4.121 1.514M198.936 47.932c-.025.157-.076.319-.076.475-.035 2.83-.066 5.666-.309 8.49-.02.26.096.527.147.796M171.334 49.36c-.157 1.215-.344 2.43-.466 3.65-.066.694-.608 1.17-.719 1.919-2.182-.096-4.217-.623-6.116-1.686"/><path stroke="#F16622" stroke-miterlimit="10" stroke-width="1.2" d="M163.318 77.838c-.669-.633-1.57-.709-2.38-.764-2.435-.157-4.688.455-6.663 1.954"/><path stroke="#1E3C70" stroke-miterlimit="10" stroke-width="1.2" d="M195.842 80.537c.992 1.544 2.587 2.212 4.212 2.754 1.362.455 2.724.86 3.893 1.752.137.106.335.136.38.334.025.1 0 .212 0 .329a2.84 2.84 0 0 1-1.59-.086c-.633-.213-1.21-.061-1.569.48-.299.451-.679.866-.81 1.418M224.244 88.389c2.643 2.713 5.498 5.2 8.409 7.614"/><path stroke="#F16622" stroke-miterlimit="10" stroke-width="1.2" d="M202.748 102.828c-1.671.886-3.357 1.737-4.841 2.931-1.696 1.373-3.326 2.8-4.126 4.922"/><path stroke="#1E3C70" stroke-miterlimit="10" stroke-width="1.2" d="M225.91 90.374c-1.002 2.293-3.038 3.549-4.886 5.037-1.316 1.058-2.693.689-4.075.734-.284.01-.582-.07-.871.02M190.608 26.511c-2.698 1.646-4.4 4.035-5.235 7.063M192.512 26.749c.394.344.445.663 0 1.038-1.008.84-2.056 1.63-2.942 2.612-.937 1.033-1.681 2.172-2.136 3.494M188.07 78.633c.147.41.552.456.876.541 2.005.532 3.995 1.013 6.101 1.1 1.296.05 2.597-.006 3.888.1"/><path stroke="#F16622" stroke-miterlimit="10" stroke-width="1.2" d="M212.109 101.081c-1.003 1.448-1.889 2.977-3.089 4.288-2.85 3.119-6.414 4.85-10.555 5.473-.081.01-.157.051-.238.076M211.076 88.47c.592-.653.633-1.499.795-2.299.456-2.222.415-4.42-.324-6.581-.157-.461-.339-.917-.871-1.286-.785.987-1.569 1.924-1.822 3.19M192.434 110.681c-.026.364-.375.471-.557.714-.537.718-.319 1.356.557 1.589.896.238 1.711-.096 2.445-.501.557-.309 1.18-.628 1.524-1.24"/><path stroke="#1E3C70" stroke-miterlimit="10" stroke-width="1.2" d="m182.835 82.759-.714 1.822a2.5 2.5 0 0 1-1.113 1.261c-1.074.618-1.945.547-2.613-.628l-.319-.557M212.109 75.615c-1.514 1.236-3.169 2.233-4.997 2.937-2.582.997-5.23 1.686-8.014 1.741"/><path stroke="#F16622" stroke-miterlimit="10" stroke-width="1.2" d="M207.983 83.549c-.673 1.382-.724 2.875-.699 4.364.01.689.198 1.377.304 2.06"/><path stroke="#1E3C70" stroke-miterlimit="10" stroke-width="1.2" d="M210.518 96.004c-.147.506-.056 1.113-.618 1.458-.48-.259-.556-.745-.718-1.15-.35-.865-.522-1.043-1.352-.774-1.236.395-2.44-.04-3.656-.046-1.878-.01-3.756-.197-5.629-.374-1.717-.162-3.448-.112-5.164-.436-1.079-.202-2.218-.07-3.327-.116-.82-.03-1.64-.102-2.46-.157M195.447 80.456c-.298.587.188 1.007.299 1.508.233 1.043.526 2.066.8 3.094.137.511.288 1.012.486 1.503M199.016 70.3c.309 4.14.446 8.272-.395 12.373M189.656 20.086c-.051 1.084.106 2.167.015 3.256-.035.42-.217.699-.491.947-.931.85-3.655 1.62-4.688 1.265-.445.567-.592 1.079-.091 1.767.486.673.947 1.413 1.053 2.284"/><path stroke="#F16622" stroke-miterlimit="10" stroke-width="1.2" d="M153.719 79.185c.157-.051.354-.193.471-.147 1.529.653 3.012 1.392 4.131 2.683.501.577.643 1.321.952 1.985"/><path stroke="#1E3C70" stroke-miterlimit="10" stroke-width="1.2" d="M242.335 103.147c-1.676-.79-3.104-1.965-4.592-3.033-1.403-1.008-2.709-2.152-4.055-3.235"/><path stroke="#F16622" stroke-miterlimit="10" stroke-width="1.2" d="M194.889 108.458c-1.291-.329-2.587-.289-3.893-.152 0 .547.344.81.638 1.099.324.318.618.648.714 1.113"/><path stroke="#1E3C70" stroke-miterlimit="10" stroke-width="1.2" d="M246.774 97.117c-1.058 1.904-2.42 3.605-3.651 5.392-.126.187-.263.37-.394.557M195.291 81.488c-.492 1.57-.765 3.22-1.747 4.602-.299.42-.582.846-.876 1.271"/><path stroke="#F16622" stroke-miterlimit="10" stroke-width="1.2" d="M153.4 79.185c-1.726 1.544-2.729 3.427-2.698 5.791"/><path stroke="#1E3C70" stroke-miterlimit="10" stroke-width="1.2" d="M201.953 62.447c-1.322 1.301-3.028 1.57-4.759 1.742a18.7 18.7 0 0 1-4.446-.071c-.126-.015-.263.046-.394.076M199.893 95.37c.764 1.96 1.534 3.914 2.298 5.873"/><path stroke="#F16622" stroke-miterlimit="10" stroke-width="1.2" d="M155.148 74.826c-1.073 1.3-2.542 1.63-4.126 1.665-.663.016-1.322 0-1.985 0"/><path stroke="#1E3C70" stroke-miterlimit="10" stroke-width="1.2" d="M185.215 15.247c1.347 1.402 3.068 2.222 4.764 3.083.314.162.638.288.866.567M197.195 87.042c-.77.233-1.15.982-1.818 1.362-.628.36-1.281.612-1.99.699-.759.086-1.357-.193-1.746-.871M190.369 44.757c-.238 1.25-.005 2.496.101 3.727.284 3.255.643 6.51 1.018 9.756.218 1.908.577 3.802.759 5.715.081.83-.101 1.697-.222 2.537-.061.44-.446.754-.795.921-.299.147-.405.355-.547.598.699.729 1.483.126 2.228.147"/><path stroke="#F16622" stroke-miterlimit="10" stroke-width="1.2" d="M149.518 76.648c.941.86 2.172 1.21 3.255 1.823.886.5.937.673.8 1.67-.213 1.6-.446 3.215.547 4.678"/><path stroke="#1E3C70" stroke-miterlimit="10" stroke-width="1.2" d="M200.843 69.823a21.5 21.5 0 0 1-7.538.633M205.76 79.266c1.822 3.078 3.417 6.293 5.387 9.285.081.121.06.314.086.47M190.531 45.152c.431.689.623 1.469.871 2.223 1.271 3.878 2.83 7.645 4.364 11.422.096.233.162.476.238.714M194.02 72.922c.308-.456.698-.213 1.027-.07 1.342.576 2.324 1.61 3.256 2.688.258.298.415.683.795.87M198.302 63.956c-.218-.264-.157-.557-.188-.871-.136-1.276-.379-2.547-.87-3.777-.4.106-.74.193-1.084.284M165.855 51.263c1.383.658 2.881.82 4.365.856 4.946.121 9.3-1.504 13.087-4.663.233-.193.476-.37.714-.557M215.516 96.004c-1.403.11-2.805-.071-4.203-.092-.713-.01-1.427-.136-2.141.01"/><path stroke="#F16622" stroke-miterlimit="10" stroke-width="1.2" d="M166.094 79.585c.881.86 1.741 1.746 1.974 3.017.137.729.167 1.478.248 2.217"/><path stroke="#1E3C70" stroke-miterlimit="10" stroke-width="1.2" d="M205.68 67.763c-1.372 1.108-3.017 1.605-4.678 2.06"/><path stroke="#F16622" stroke-miterlimit="10" stroke-width="1.2" d="M161.652 79.585c.238.344.446.713.719 1.027 1.104 1.24 2.273 1.286 3.564.162M212.741 101.081c-1.513-.44-3.037-.212-4.516.106-1.255.269-2.531.512-3.736 1.003-.516.213-1.058.375-1.585.562"/><path stroke="#1E3C70" stroke-miterlimit="10" stroke-width="1.2" d="M187.038 44.52c-.724 1.503-1.438 2.992-2.527 4.293-2.136 2.562-4.713 4.349-7.933 5.346-1.975.613-3.934.856-5.964.825-.106 0-.238.051-.319-.076M216.393 80.375q3.408 3.531 6.824 7.062M198.46 65.064c-1.61.082-2.957.795-4.314 1.732 1.418 1.033 2.957 1.433 4.552 1.68M208.615 71.332c1.322 1.56 2.638 3.129 3.969 4.678.993 1.15 2.005 2.278 3.013 3.412M197.588 34.444c.116 1.423.273 2.835.881 4.167.911-.537 1.017-.501 1.336.435.254.735.481 1.479.719 2.223M187.99 63.323c1.19.516 2.476.516 3.726.714.157.025.319.05.476.08"/><path stroke="#F16622" stroke-miterlimit="10" stroke-width="1.2" d="M165.379 77.362c.633 1.787.972 3.6.405 5.483.714.501 1.235 1.16 1.418 2.05"/><path stroke="#1E3C70" stroke-miterlimit="10" stroke-width="1.2" d="M197.746 84.344c.36.764.086 1.458-.238 2.141-.146.304-.258.572-.177.957.218 1.048-.521 1.924-.633 2.932-.02.202-.162.405-.136.729.546-.066 1.103.086 1.66-.091M156.256 40.95c.106.081.314-.142.299 0-.081.942.607 1.615.825 2.456.233.9.749 1.686 1.306 2.5-.349.183-.678.35-1.002.517M186.643 14.852c1.27.794 2.536 1.584 3.807 2.38"/><path stroke="#F16622" stroke-miterlimit="10" stroke-width="1.2" d="M207.507 101.557c-.476 1.306-.061 2.516 1.984 3.094M164.904 77.124c-2.01.734-3.58 2-4.587 3.893-.375.704-.552 1.504-.734 2.294-.122.526-.385 1.033-.152 1.59"/><path stroke="#1E3C70" stroke-miterlimit="10" stroke-width="1.2" d="M162.842 47.694c-.293.536-.825.87-1.276 1.362 1.033.8 2.096 1.428 3.261 1.888.202.081.425.122.557.32M178.709 56.58c1.169.485 2.395.667 3.65.713M193.938 73.08c.207 1.867.41 3.74.946 5.553.152.522.269 1.058.4 1.585M188.146 59.91q1.748.198 3.489 0M186.004 55.627c-.329.451.269.542.345.866.212.917.698 1.732 1.164 2.542.081.147.208.268.314.4"/><path stroke="#F16622" stroke-miterlimit="10" stroke-width="1.2" d="M155.148 75.14c.06 1.022-.299 1.969-.542 2.936-.04.167-.233.37-.01.551"/><path stroke="#1E3C70" stroke-miterlimit="10" stroke-width="1.2" d="M197.67 75.14c-.607 1.483-1.822 1.599-3.174 1.427M186.325 22.309c-.117-.754-.567-.87-1.271-.82-.587.04-1.149.248-1.742.187M205.76 67.525c-.051-.05-.122-.096-.157-.162-.775-1.413-2.051-2.01-3.569-2.223-.137-.02-.264-.1-.395-.157-1.14 1.195-1.109 2.39.076 3.099"/><path stroke="#F16622" stroke-miterlimit="10" stroke-width="1.2" d="M209.092 92.434c.714 1.033 1.271 2.127 1.346 3.412M208.377 92.277c-1.094.825-1.676 1.98-2.061 3.25"/><path stroke="#1E3C70" stroke-miterlimit="10" stroke-width="1.2" d="M201.477 61.733c.82 1.109 1.645 2.217 2.45 3.336.127.177.294.37.243.628M205.203 66.968c-1.463 1.084-3.154 1.448-4.916 1.585M200.525 83.71c-.293 1.049-.309 2.107-.157 3.175M199.412 77.281c1.413 1.848 1.899 3.909 1.428 6.187M192.354 64.588l.713 4.44q.115.714.238 1.428M189.498 21.514c-.851.466-1.955.284-2.699 1.033-1.266-.364-2.182.921-3.412.714M194.257 55.151c-1.022.208-2.06.152-3.093.157"/><path stroke="#F16622" stroke-miterlimit="10" stroke-width="1.2" d="M208.934 81.645c1.103.952 1.812 1.048 3.012.395"/><path stroke="#1E3C70" stroke-miterlimit="10" stroke-width="1.2" d="M158.797 46.104c.739 1.099 1.655 2.035 2.643 2.901-.35.486-.912.618-1.296.987M191.558 91.087c-.172.405.218.522.405.71.861.87 1.707 1.786 3.089 1.75M198.779 65.622c.699.875.998 1.959 1.509 2.936M198.859 57.769c.598.982 1.327 1.889 1.823 2.937M173.713 51.977v2.856M198.303 64.113c.592 1.782.304 3.66.633 5.473.035.182.055.37.081.557M187.67 89.184c.911.329 1.792.764 2.774.87M176.168 51.42l.319 2.699"/><path stroke="#F16622" stroke-miterlimit="10" stroke-width="1.2" d="M210.68 89.498c-.238 1.048-.921 1.827-1.584 2.617"/><path stroke="#1E3C70" stroke-miterlimit="10" stroke-width="1.2" d="M205.441 108.539c.542.825.957 1.716 1.347 2.617M185.133 13.186c.471 1.463.076 2.43-1.428 3.488-.389.273-.789.531-1.189.795M173.788 49.198c-.025.87-.051 1.746-.081 2.617M197.508 88.47c.288.87.582 1.746.871 2.617M201.24 65.064c-.82-.182-1.641-.288-2.461 0M195.366 91.087c-.668.633-1.438 1.033-2.38 1.033M192.035 92.12c-.41.77-.481 1.61-.476 2.46M188.623 54.99c.79.09 1.57.308 2.38.237M188.229 14.852c.815.496 1.655.951 2.379 1.584M180.457 49.598c.354.729.456 1.524.633 2.298M193.387 70.619c.096.78.126 1.574.476 2.298M196.48 28.81c-.784.212-1.62.303-2.222.951M196.08 92.596c.299.739.365 1.513.395 2.298M186.243 44.363c-.339.992-1.291 1.463-1.903 2.222M205.916 67.844l1.747 2.141M219.166 96.322c-.567.618-1.402.805-2.061 1.271M196.479 54.438c-.632.48-1.402.546-2.141.713M183.625 46.028c.608.542.835 1.332 1.271 1.985M198.621 82.835c-.268.496-.258 1.058-.395 1.585-.04.162-.015.354-.238.394"/><path stroke="#F16622" stroke-miterlimit="10" stroke-width="1.2" d="M207.582 90.135c.228.679.486 1.337.78 1.99.187.42.41.202.648.152"/><path stroke="#1E3C70" stroke-miterlimit="10" stroke-width="1.2" d="M198.621 57.845c0 .815-.364 1.341-1.189 1.508"/><path stroke="#F16622" stroke-miterlimit="10" stroke-width="1.2" d="M165.779 83.073c-.365.648-.967 1.134-1.271 1.822"/><path stroke="#1E3C70" stroke-miterlimit="10" stroke-width="1.2" d="M192.592 64.827c.795.384 1.159 1.225 1.822 1.746M175.773 49.36l.395 1.904M174.665 91.563c-.005.638.035 1.28-.157 1.904M196.4 91.563c-.213.754-.704 1.316-1.271 1.823M184.025 26.116c-.567.005-1.139-.055-1.666.238M194.1 49.992c-1.544.72-3.154.512-4.759.299a6 6 0 0 1-.4-.06M183.944 14.69c-.526.475-1.058.951-1.585 1.427M194.577 67.287c-.43.4-1.007.527-1.509.795"/><path stroke="#F16622" stroke-miterlimit="10" stroke-width="1.2" d="M160.067 81.088c-.546.107-1.103.193-1.508.633"/><path stroke="#1E3C70" stroke-miterlimit="10" stroke-width="1.2" d="M181.171 92.12c-.157.471-.046.952-.081 1.428M179.742 47.932c.405.39.425.977.714 1.427M190.926 113.698c.187.45.369.901.557 1.346M173.632 54.99c.172.161.122.4.066.551-.263.73-.02 1.2.648 1.514"/><path stroke="#F16622" stroke-miterlimit="10" stroke-width="1.2" d="M208.695 81.57q-.32.676-.633 1.346"/><path stroke="#1E3C70" stroke-miterlimit="10" stroke-width="1.2" d="M200.13 68.477c-.415.167-.845.035-1.271.08M160.069 45.077c-.233.506-.77.567-1.19.794M178.553 40.87c.121.303.167.622.157.95M191.32 90.688c.279.455.729.48 1.19.475M180.137 39.918c-.238.156-.476.318-.709.47.05.269.101.532.157.8M178.553 39.918q.036.356.081.713M179.342 40.394c-.526.212-1.058.425-1.584.632M196.956 91.64c-.349-.213-.734-.153-1.108-.158"/></g><g clip-path="url(#b)"><rect width="211.245" height="211.245" y="128.276" fill="#FFF4DE" rx="105.622"/><path stroke="#F16622" stroke-miterlimit="10" stroke-width="1.2" d="M243.769 328.11c.305-.586.727-1.089.75-1.839.153-4.899.493-9.797.493-14.695 0-4.769-.083-9.574-.575-14.32-.621-6.034-1.535-12.046-2.8-18.01a168 168 0 0 0-5.789-20.542c-3.586-10.207-8.332-19.886-14.144-29.003-8.648-13.581-19.229-25.475-31.92-35.459a136.8 136.8 0 0 0-26.448-16.323c-8.086-3.797-16.523-6.644-25.171-8.73-4.488-1.078-9.105-1.817-13.745-2.367-3.551-.434-7.113-.551-10.663-.973-2.473-.293-5.016-.023-7.524-.058-2.706-.036-5.39.492-8.073.515-3.34.035-6.644.516-9.902 1.031-4.887.785-9.738 1.84-14.53 3.188a151 151 0 0 0-15.234 5.156c-15.726 6.292-29.74 15.28-42.197 26.67-12.246 11.203-22.335 24.14-30.339 38.705-4.464 8.133-8.202 16.57-11.179 25.347-.164.48-.246.972-.375 1.464"/><path stroke="#F16622" stroke-miterlimit="10" stroke-width="1.2" d="M233.307 318.935c.562-1.371.457-2.824.339-4.219-.234-2.812.106-5.66-.211-8.437-.351-3.058-.48-6.14-.96-9.198-.411-2.684-.739-5.379-1.172-8.074a129 129 0 0 0-3.703-16.335c-2.473-8.32-5.473-16.464-9.363-24.234-5.543-11.085-12.316-21.362-20.53-30.678-7.535-8.542-16.078-15.913-25.546-22.182a116.3 116.3 0 0 0-29.74-14.144 121 121 0 0 0-17.05-3.961c-3.914-.621-7.852-.89-11.777-1.312-3.269-.352-6.609-.164-9.902-.047-3.375.129-6.75.316-10.101.738-5.449.68-10.851 1.664-16.16 3.082-14.377 3.832-27.654 10.019-39.841 18.55-12.62 8.835-23.425 19.499-32.506 31.944a150 150 0 0 0-14.695 24.784c-4.382 9.339-7.84 18.995-10.276 29.014a156 156 0 0 0-2.953 15.245c-.774 5.554-1.372 11.109-1.454 16.71-.023 1.898-.668 3.773-.175 5.695.093.363-.035.668-.364.926-2.964 2.32-4.78 5.625-7.171 8.437-1.36 1.594-1.57 3.832-3.07 5.379-.364.375-.164 1.3-.235 1.98"/><path stroke="#F16622" stroke-miterlimit="10" stroke-width="1.2" d="M199.697 296.354c-.187-3.457-1.195-6.761-2.027-10.101-1.992-8.039-4.804-15.761-8.179-23.354-4.594-10.336-10.476-19.804-17.741-28.393-7.242-8.555-15.691-15.75-25.476-21.351-6.89-3.949-14.214-6.832-21.877-8.718-3.399-.832-6.914-1.266-10.441-1.629-4.172-.422-8.367-.504-12.492-.199-7.09.527-14.026 2.039-20.764 4.476-11.472 4.148-21.527 10.558-30.467 18.761-8.59 7.886-15.562 17.026-21.34 27.139-5.167 9.047-9.221 18.55-12.233 28.487-1.465 4.863-2.894 9.761-3.34 14.859"/><path stroke="#F16622" stroke-miterlimit="10" stroke-width="1.2" d="M-35.134 339.5c12.55 0 25.1.153 37.639-.047 9.667-.152 19.347.117 29.014-.175 9.55-.293 19.1-.036 28.65-.129 7.348-.071 14.695.129 22.03-.047 10.653-.27 21.305.082 31.945-.188 9.187-.222 18.362-.082 27.537-.14 17.32-.094 34.639.011 51.959-.235 15.796-.222 31.58 0 47.376-.164 2.508-.023 5.015-.375 7.629.071.609-1.653-.001-3.387.398-5.133-2.883-.879-1.195-3.305-1.09-4.828.176-2.496.434-5.039.527-7.546.176-4.524.235-9.07 0-13.582-.328-6.527-.902-13.019-2.085-19.475-.879-4.805-1.793-9.586-3-14.308-1.934-7.605-4.488-14.999-7.547-22.206-4.042-9.492-8.952-18.515-14.835-27.01-6.035-8.73-12.855-16.746-20.554-24.069-5.964-5.672-12.327-10.828-19.147-15.351-8.964-5.941-18.479-10.863-28.604-14.566a151 151 0 0 0-18.726-5.507 123.3 123.3 0 0 0-20.577-2.86 133 133 0 0 0-14.144 0c-5.741.293-11.425.856-17.061 1.828-5.086.879-10.101 2.121-15.07 3.598-14.343 4.265-27.584 10.745-39.841 19.288-13.511 9.421-25.042 20.87-34.663 34.182-7.98 11.038-14.39 22.956-19.159 35.775-2.93 7.863-5.308 15.843-6.984 24.058a179 179 0 0 0-2.601 16.897c-.375 3.609-.914 7.254-.75 10.84.246 5.331-.27 10.651.34 15.995.445 3.843.703 7.71 1.207 11.554"/><path stroke="#F16622" stroke-miterlimit="10" stroke-width="1.2" d="M-27.612 324.993c-.68-4.09-.398-8.203-.176-12.304.165-3 .258-6.011.575-9 .562-5.425 1.441-10.804 2.46-16.171 1.149-6.035 2.754-11.94 4.559-17.776 1.594-5.144 3.61-10.16 5.812-15.07 3.879-8.636 8.507-16.85 13.945-24.608 6.21-8.87 13.218-17.003 21.28-24.268 6.632-5.976 13.698-11.308 21.327-15.948 9.128-5.555 18.83-9.844 29.026-13.008 5.343-1.652 10.78-2.859 16.323-3.773 4.336-.715 8.683-1.324 13.054-1.511a150 150 0 0 1 11.941-.024c7.019.27 13.921 1.102 20.729 2.566a122.6 122.6 0 0 1 25.722 8.578c10.933 5.051 20.952 11.484 30.104 19.288 8.472 7.219 15.889 15.41 22.393 24.432 6.175 8.59 11.273 17.812 15.409 27.55 1.535 3.621 2.801 7.347 4.301 10.98.152.375-.527.75.164 1.008 2.262-.106 4.465.644 6.761.667"/><path stroke="#F16622" stroke-miterlimit="10" stroke-width="1.2" d="M17.012 258.528c2.144-3.856 4.148-7.793 6.456-11.555 7.84-12.772 17.53-23.846 29.694-32.728 7.453-5.438 15.48-9.785 24.093-12.949 5.566-2.039 11.331-3.468 17.237-4.312 2.754-.399 5.519-.797 8.273-.832 6.199-.07 12.375.082 18.562 1.125 6.046 1.019 11.929 2.59 17.577 4.769a94 94 0 0 1 25.545 14.8c11.848 9.656 21.316 21.292 28.663 34.686 4.394 8.015 7.816 16.429 10.441 25.17 1.676 5.59 3.094 11.25 3.949 17.062.293 2.016.469 4.078.996 6.082.129.48.258 1.136-.152 1.64"/><path stroke="#F16622" stroke-miterlimit="10" stroke-width="1.2" d="M176.378 284.226c.339-2.379-.633-4.559-1.125-6.785-1.207-5.391-2.848-10.687-4.969-15.785-6.585-15.831-15.819-29.658-30.432-39.326-6.117-4.042-12.726-6.913-19.862-8.355-5.789-1.172-11.683-1.265-17.624-.48-13.933 1.828-25.452 8.343-35.612 17.683-7.206 6.62-13.124 14.307-17.964 22.78a118 118 0 0 0-8.144 17.413c-1.664 4.464-3.011 8.999-4.195 13.593"/><path stroke="#F16622" stroke-miterlimit="10" stroke-width="1.2" d="M43.998 255.036c8.132-14.32 18.374-26.741 32.319-35.799 7.921-5.144 16.534-8.66 25.897-9.867 12.819-1.652 24.842 1.09 35.975 7.652 9.269 5.473 16.756 12.89 23.143 21.48 4.757 6.398 8.683 13.323 11.859 20.6 2.871 6.574 5.402 13.324 7.054 20.343.48 2.039 1.113 4.031 1.617 6.07.117.457.469.972.023 1.465"/><path stroke="#F16622" stroke-miterlimit="10" stroke-width="1.2" d="M58.13 253.747c1.77-2.567 3.493-5.18 5.333-7.699 6.269-8.555 13.499-16.136 22.768-21.468 7.523-4.324 15.667-6.632 24.397-5.859 8.367.738 15.89 3.996 22.569 8.988 10.066 7.523 17.589 17.237 23.53 28.241.739 1.371 1.582 2.695 2.379 4.042"/><path stroke="#1E3C70" stroke-miterlimit="10" stroke-width="1.2" d="M110.102 321.138c.82 3.164 2.601 5.964 3.574 9.023 1.242 3.855 3.714 5.285 7.441 5.296 5.894 0 11.823.282 17.624-1.113 2.343-.562 4.253-1.64 4.828-4.383.457-2.191 1.3-4.288 1.98-6.433M70.07 298.006c-4.534 6.305-9.08 12.586-13.58 18.913a248 248 0 0 0-13.371 20.952c-.176.317-.75.387-.586.903M119.651 225.658c-.515.598-.351 1.324-.363 2.016-.258 9.796.539 19.581.375 29.377-.047 2.461-.316 4.945.539 7.347M227.798 325.357c3.269-.739 5.085-4.254 3.656-7.149-.223-.445-.668-.796-1.09-1.101-6.281-4.582-12.562-9.187-19.101-13.394-3.738-2.414-7.499-4.816-11.39-6.96-5.367-2.953-10.933-5.555-16.3-8.52a118 118 0 0 0-14.53-6.749c-1.535-.586-3.129-1.043-5.015-1.652.878 3.62 1.57 6.878 2.495 10.077.399 1.371-.117 2.109-1.16 2.566-2.988 1.313-6.175 1.957-9.351 2.602a95 95 0 0 1-9.913 1.453c-.738.07-1.324.387-1.629.949-.961 1.781-1.816 3.621-2.941 5.332-.129.187-.153.644.375 1.113 3.609-.234 7.406-.598 11.167-1.312"/><path stroke="#F16622" stroke-miterlimit="10" stroke-width="1.2" d="M116.897 224.557c-2.613-.949-5.32-1.219-8.074-1.535-4.687-.539-9.187.176-13.581 1.57-6.82 2.168-12.785 5.894-18.011 10.792-6.878 6.457-12.41 13.922-16.933 22.206-3.902 7.16-7.359 14.484-9.878 22.241"/><path stroke="#1E3C70" stroke-miterlimit="10" stroke-width="1.2" d="M15.171 262.195c-3.011 8.203-5.929 16.453-7.827 24.983-1.008 4.524-1.969 9.094-2.274 13.758M91.55 227.311c.059.246.176.492.176.738 0 5.999.082 11.999 0 17.999-.117 8.085-.48 16.159-.457 24.233 0 2.742-.223 5.519.106 8.261M59.42 259.805c2.015.422 4.043.035 6.058.024 3.797-.036 7.594-.141 11.379.164 4.769.386 9.55.082 14.32.187M41.984 258.153c-1.348 2.941-2.742 5.859-4.031 8.824-2.145 4.921-4.242 9.866-5.707 15.046-.539 1.898-1.441 3.691-1.652 5.695M40.33 284.05c-2.566.351-4.862 1.547-7.136 2.613-6.046 2.824-12 5.859-17.858 9.093-8.953 4.957-17.823 9.996-26.249 15.82-3.89 2.683-7.757 5.378-11.19 8.648a7.9 7.9 0 0 1-2.204 1.464M60.522 257.79c1.382.832 3.011.562 4.405.468 7.898-.515 15.797-.152 23.695-.293.363 0 .738-.117 1.101-.175M200.623 328.661c1.898-.492 2.215-2.203 2.73-3.68.961-2.718 1.324-5.624 2.59-8.249.117-.246.246-.493.363-.727-.258-.726-.82-.281-1.09-.164-4.265 1.816-6.538 5.051-5.331 10.441.152.68.363 1.348.55 2.015M135.436 322.977c.96-1.171 2.05-1.898 3.679-1.3.609.222 1.219-.2 1.828-.34 1.477-.34 2.719-.141 3.879 1.066 2.601 2.731 5.25 5.414 8.249 7.711.481.363.375.75.328 1.125-.175 1.617.528 2.519 2.016 3.164 1.383.597 2.73 1.031 4.242 1.066 3.75.082 7.476 0 11.015-1.477M114.87 273.949c-2.25 3.609-4.453 7.242-6.457 11.003-.574 1.066-.949 2.215-1.195 3.328-.293 1.359.598 2.297 1.945 2.754 1.359.445 2.66 1.101 4.055 1.429 2.378.563 3.89 1.922 4.593 4.254.399 1.359.856 2.695 1.277 4.043M80.724 310.486c-.305.176-.621.352-.926.539-3.093-3.668-9.175-4.347-13.417-1.148 4.5.176 8.472 1.828 12.702.984M93.578 225.471c.48.609.363 1.324.363 2.015 0 3.246-.023 6.492 0 9.726.047 5.449.246 10.898.118 16.335-.047 2.18.152 4.289.398 6.246h13.429c3 0 6 .164 9-.187M55.564 258.153c-2.871 6.164-6.293 12.07-8.414 18.561-.515 1.582-1.77 2.848-1.875 4.582M208.335 330.688c1.64-1.195 1.652-3.07 1.793-4.781.187-2.191.047-4.406.047-6.773-3.059 2.718-3.82 7.464-2.016 11.542M146.087 257.977c.398 4.898-1.265 9.293-3.914 13.183-3.539 5.215-7.464 10.171-12.058 14.542"/><path stroke="#1E3C70" stroke-miterlimit="10" stroke-width="1.2" d="M117.073 257.426c-3.855.282-7.71.176-11.566.047-3.609-.129-7.218.082-10.827.141M15.91 320.587c.503-2.367.785-4.722.585-7.16-.14-1.628-1.171-2.554-2.25-3.468-.527-.446-1.23-.446-1.253.527-.117 3.808.058 7.582 1.511 11.32-3.105.07-6.163.387-9.128-.867.727-1.477 2.191-2.121 3.937-2.016 1.57.094 2.766 1.149 4.219 1.488M117.073 236.673c-2.508 0-5.015-.058-7.523.012-4.898.141-9.796.352-14.694.539M113.218 331.602c-2.567.188-5.145.434-7.711.539-4.523.176-9.058.258-13.581.387M132.495 232.818c-4.546-3.527-9.362-6.538-15.057-8.038v41.834M41.246 325.731c.691-1.09 1.828-.211 2.789-.644 2.45-1.113 4.055-2.93 5.46-5.051.54-.82 1.02-1.687 1.57-2.625-1.71-.832-2.917.211-4.124.985-2.062 1.336-3.117 3.515-4.418 5.496"/><path stroke="#1E3C70" stroke-miterlimit="10" stroke-width="1.2" d="M42.347 324.993c-.199-1.957.176-3.925-.175-5.882-.492-2.719-1.922-4.125-4.219-3.832 1.629 3.082 2.625 6.316 3.105 9.714M70.436 279.269c-3.246.117-6.492.27-9.726.363-3.363.094-6.808-.293-10.078.305-3.539.656-6.96 2.074-10.136 3.879.469 1.242.574 2.531.328 3.703-.304 1.453 0 2.835.094 4.23.117 1.687 1.184 2.777 2.894 3.129M46.388 316.181c1.453-4.113-1.324-8.202-5.683-8.074 1.969 2.672 3.586 5.403 3.305 8.812M82.375 321.138c-.21-1.547-.34-3.047-1.605-4.277-.48-.469-.89-.586-1.336-.469-3.727.949-9.07 3.433-9.937 8.425-.27 1.582-.398 3.094.855 4.582 1.196-2.812 2.45-5.449 4.64-7.546 1.747-1.664 3.622-2.836 6.082-2.93.188 0 .364-.234.551-.352M148.654 260.356c-1.606 6.808-4.336 13.054-9 18.362M47.853 295.428c-3.527-.879-6.234 1.336-6.597 5.507-.059.704.2.961 1.101.786 1.465-.282 2.239-1.243 3.13-2.239 1.136-1.277 1.651-3.023 3.105-4.054M94.305 260.356c-.434 4.769-.363 9.55-.363 14.32v3.855M47.854 302.588c.809 1.019 1.582 2.086 1.992 3.316.715 2.109.774 4.148-1.547 5.976-1.136-3.433-1.277-6.691-.633-10.019M77.782 332.153c-3.738.246-7.465.504-11.203.726-.984.059-1.312.563-1.289 1.477.035 1.465 0 2.941 0 4.406M181.337 321.876c-.422-.996-.223-2.086-.493-3.14-1.019-3.891-3.714-5.789-7.769-5.543-1.64.094-2.777.785-4.078 1.652-3.07 2.051-6.55 1.992-10.066 1.36-1.593-.282-3.058-.797-4.406-1.676M199.521 264.586c2.743-.023 5.391.762 8.086 1.031 3.691.375 7.324 1.149 11.003 1.547 2.391.258 4.77.609 7.16.914"/><path stroke="#1E3C70" stroke-miterlimit="10" stroke-width="1.2" d="M111.752 278.355c-3.117-.562-6.257-.047-9.362.082-2.871.117-5.754 0-8.637.234-3.714.293-7.464.176-11.19.235M37.754 329.95c.879-1.019 1.394-2.261 1.816-3.492 1.207-3.539-1.723-6.726-5.636-6.023 1.535 3.387 2.449 6.961 3.644 10.441M49.319 291.936c1.898-.492 2.964-1.64 3.093-3.679.07-1.055.27-2.074.434-3.106-2.215-.703-4.172.821-4.465 3.293-.199 1.676.657 3.059.95 4.594M152.884 271.934c2.402 4.23 3.035 9.069 4.558 13.593.199.586.176 1.207-.867 1.511-3.41.961-6.679 2.438-10.124 3.188-4.453.961-8.004 2.859-10.09 7.042-.375.762-.855 1.477-1.277 2.203M31.883 303.326c.023-1.945-.082-3.89-.926-5.683-.41-.867-.867-1.746-2.332-1.91.855 2.847.55 5.847 2.344 8.332M188.132 301.123c-.047-1.488.867-2.859.398-4.418-.269-.902-.375-1.968-1.5-1.968-1.23 0-1.066 1.113-1.113 1.968-.106 2.086-.246 4.16-.352 6.246-.058 1.055.082 1.77 1.489 1.149.468-.211 1.195.187 1.816.316M198.044 338.211c.094-1.84-.586-3.656.27-5.695h-10.546M160.957 263.297c1.535 3.668 3.07 7.335 4.582 11.015.597 1.453 1.113 2.929 1.664 4.406M174.176 260.907c3.726.117 7.335 1.078 11.015 1.465 1.289.128 2.566.246 3.855.374M45.1 284.226c.106.574.293 1.007-.128 1.687-.785 1.301-.188 5.402.96 6.714.211-2.425-.046-4.499-.468-6.573M188.132 260.356c-4.793-.352-9.562-.95-14.32-1.641-.105-.012-.246.117-.363.176M85.129 321.138c-1.887-.117-3.727.176-5.508.75-2.074.668-2.601 1.511-2.378 3.656.328 3.187.726 6.363 1.09 9.55.105.902.374 1.359 1.464 1.523 3.246.493 6.433.645 9.55-.597M201.901 298.733c-1.91 1.98-1.875 4.254-.903 6.609.575 1.406 1.243 1.476 2.192.375 1.054-1.219 1.476-2.672 1.64-4.23.047-.41-.058-.832.375-1.102M29.492 338.024c.598-2.66-.129-5.766-2.203-6.598-.152-.058-.363 0-.867 0 .656 2.403.234 5.11 2.883 6.609M169.958 313.24c-4.312-2.027-8.753-1.641-13.218-.727-.433.094-.855.247-1.289.364M193.276 309.572c3.27-1.031 3.727-3.773 4.008-6.644-2.273 1.371-4.57 2.707-4.383 5.906"/><path stroke="#1E3C70" stroke-miterlimit="10" stroke-width="1.2" d="M152.334 272.109c-.68 1.172-.235 2.449-.363 3.668-.34 3.246-1.618 6.164-3.118 9q-.386.72-.808 1.441c1.418.504 2.672-.035 3.926-.363.761-.199.972-1.02.89-1.629-.457-3.234.059-6.386.586-9.55M122.768 319.122c.668-1.324 1.125-2.765 1.066-4.218-.117-2.801.961-5.192 2.25-7.523.867-1.582 2.179-2.332 4.171-1.899-.363 2.274-.574 4.512-1.089 6.668-.75 3.129-2.578 5.402-5.848 6.246M138.189 305.893c-2.344-2.25-4.852-4.137-8.262-4.43-1.945-.164-3.878-.504-5.695.574M191.074 325.18c1.16.434 2.309.938 3.492 1.254.785.211 1.875.82 2.203-.703.235-1.113-.363-1.629-1.289-2.027-1.863-.809-3.339-.41-5.144 1.476M126.624 269.355c-.433 1.465-.796 2.965-1.3 4.406-.938 2.696-2.672 4.735-5.098 6.305-.937.609-1.5 1.793-2.238 2.707s-1.5 1.816-2.449 2.964c4.582 3.246 8.484 7.031 9.972 12.644M218.986 329.036c-5.05-2.297-10.042 2.343-9.913 6.972.597.059 1.031-.316 1.265-.738 1.371-2.402 3.844-3.352 6.094-4.547a21 21 0 0 0 2.367-1.5M153.434 258.528c-.843 1.125-.386 2.472-.468 3.679-.188 2.567-.329 5.145-.61 7.711-.07.597.106 1.219.164 1.84M85.492 320.95c1.676 0 3.316.27 4.969.492 1.394.188 1.43.821 1.289 1.899-.516 3.855-.996 7.71-1.477 11.566-.047.363 0 .738 0 1.101M184.828 312.326c2.18-.117 4.359-.281 6.609-.867-2.051-2.625-3.961-2.684-6.421-.41M132.318 233.369c-2.425.609-4.804 1.277-6.808 2.918-1.219.996-2.109 2.168-2.965 3.48-.996 1.535-.972 3.176-.445 4.594 1.301 3.515 2.32 7.242 4.91 10.101 2.367 2.625 5.543 3.363 8.613.387 1.558-1.512 2.671-3.328 3.492-5.332M120.203 308.471c.023 1.921-.645 3.761-.61 5.695 0 .422-.023.843.047 1.289.375 2.285.223 2.425-2.191 3.316-1.852.68-3.82.48-5.707.855-.75.153-1.535.106-2.097.68-.762-.668-.364-1.066.07-1.559.551-.621.855-1.429 1.664-1.828 3.339-1.628 3.41-2.402 1.312-6.257-.926-1.699-1.886-3.293-3.597-4.441 1.57-1.348 3.222-.656 4.851-.317M59.784 294.151c.07-2.59-1.758-3.914-3.352-5.543-1.605 2.508-.597 4.934 2.063 5.543M130.115 259.805c.551 3.258 2.297 5.285 5.684 5.918 1.804.34 3.398 1.265 4.23 3.082M198.596 308.834c1.113 3.715 1.3 7.3-1.453 10.535.515.363.222 1.242.902 1.582M132.682 233.181c.75.703 1.722.363 2.566.574 4.054 1.02 7.5 5.227 7.453 9.515-.024 1.84-1.172 3.528-2.672 4.77M74.665 288.632c-2.168.246-4.253-.586-6.433-.387-1.957.176-3.855.363-5.496 2.016 3.446 1.206 6.738 2.495 10.535 2.753-.633.985-1.09 1.699-1.547 2.414M3.23 318.384c1.29 2.402 1.77 5.039 1.993 7.711.093 1.09-.082 2.179-1.266 2.754-.445.222-.363.562-.187.914M70.26 285.702c-1.395-1.816-3.188-2.859-5.555-3.129.703 3.047 1.875 3.926 4.453 3.504"/><path stroke="#1E3C70" stroke-miterlimit="10" stroke-width="1.2" d="M123.869 277.066c.445.492.058.996-.012 1.465-.398 2.32-.246 4.499 1.301 6.433 2.613 3.281 2.859 7.253 3.117 11.191.047.668 0 1.347 0 2.015M209.435 316.368c.492-.855 1.137-1.664 1.43-2.589.304-.973.679-2.133-.422-2.988-2.121 1.476-2.426 2.554-1.559 5.39M198.42 307.732c-1.277 2.145-1.863 4.535-1.957 6.984-.047 1.325-.152 2.801.68 4.043M3.232 317.283c-1.993 3.867-1.184 7.64.363 11.378M184.652 321.876c.117.117.246.352.363.352 3.586.164 3.293 1.089 2.953 4.054-.222 1.945-.258 3.914-.387 5.871-.105 1.758-.89 2.777-2.578 2.906a37 37 0 0 1-5.683 0c-1.863-.141-2.191-.844-2.425-2.906-.27-2.391-.129-4.816-.704-7.16M3.232 329.587c-.867.293-.82-.516-1.102-.926-2.402-3.468-4.84-3.996-8.46-1.851-.106.07-.363-.106-.54-.164M171.797 313.603c-.703 2.918-.375 5.883-.328 8.812.058 3.551-.551 7.101-.059 10.652.024.164-.223.363-.351.551M86.782 309.572c-1.09-.539-1.64.305-2.18.937a9 9 0 0 0-1.288 2.016c-.598 1.289-1.606 1.945-2.953 2.191-2.297-2.953-6.34-2.953-9.527.352 3.21.058 6.082.609 8.976-.176M152.884 296.717c-.152 2.063-.023 4.09.727 6.059 1.195 3.128 1.254 6.456 1.664 9.726 0 .058.023.14 0 .175-2.344 3.457-.867 7.523-1.828 11.203-.012.059 0 .117 0 .351-2.109-.914-3.574-2.589-5.32-3.843-1.172-.844-2.145-1.969-3.492-2.566M66.955 294.702c-1.395.445-2.532 1.347-3.657 2.226-.609.469-1.206.316-1.84.422-1.71.293-3.608-.41-5.155.844M167.941 301.674c1.688.363 1.934 2.004 2.754 3.129.516.714 1.113 1.406 1.453 2.214.938 2.262 2.684 3.305 4.98 3.656M116.159 303.689c0 1.348.188 2.649 0 4.067-.211 1.675.996 3.539 1.664 5.296.141.364.668.574.527 1.113M85.13 294.514c-.574 2.191-1.101 4.371-2.543 6.269-1.957 2.578-3.445 3.047-6.082 1.442-2.027-1.231-4.16-1.465-6.644-1.114 1.254 1.653 2.356 3.047 3.691 4.242 1.512 1.36 2.953 1.43 4.782.375 1.406-.808 2.87-1.488 4.265-2.308 1.5-.891 3.375-.809 4.91.469M86.782 312.326c3.234-.223 6.21.41 8.612 2.882.235-2.273-.691-3.925-2.554-4.71-2.121-.891-5.672-.598-5.883.937-.433 3.129-3.199 5.238-3.105 8.425M168.117 257.977c-3.141-.211-6.27-.527-9.363-1.09-.281-.047-.609.106-.914.164M41.057 284.413c1.851.316 1.664 1.957 1.78 3.129.212 2.191.024 4.418-.304 6.609"/><path stroke="#1E3C70" stroke-miterlimit="10" stroke-width="1.2" d="M187.957 323.892c-3.387.925-6.75.761-10.102-.188M178.582 315.255c-.996 3.457-2.801 6.41-5.496 8.824-.387.352-.738.668-1.289.539M158.941 258.704c2.848.222 5.66.632 8.449 1.265.539.129 1.172.141 1.652-.351M34.636 333.067c-.445-3.363-2.613-5.098-5.695-5.848-.714-.175-1.605-.246-2.203.528 1.301 1.91 2.906 3.562 4.605 5.121 1.735 1.581 3.2 1.699 4.758.562M93.027 284.964c-1.887.949-2.356 2.765-2.977 4.582-.69 2.015.434 3.257 1.512 4.605M140.393 250.442c-.059 2.508 1.019 4.606 2.613 6.387.773.867 2.449.89 3.246.785 2.109-.293 4.195.082 6.269-.199M170.145 286.804c0 .867.808.797 1.289 1.101 2.66 1.711 4.171 3.34 2.191 5.707.058.117.105.258.199.351.914.809 1.477 2.344 3.117 1.829 1.266-.399 2.379-2.696 2.191-4.383-.07-.68-.351-1.348.012-2.016M13.707 325.731c1.734 1.934 2.566 4.231 2.765 6.797.07.914-.011 1.851-.937 2.156-.785.258-1.312-.527-1.816-1.066-.235-.258-.375-.598-.563-.914M175.652 298.92c-1.078-3.421-5.062-5.062-8.449-3.492M23.797 330.137c-1.008-2.812-2.73-5.003-5.52-6.234-.726-.316-1.535-.679-2.238.223 1.184 1.781 2.156 3.726 3.703 5.273.867.867 1.875 1.371 3.129 1.277M87.144 310.849c-.433-.773-.047-1.488.27-2.226-.88-.563-1.664-.399-2.473.023-2.367 1.207-3.468 3.492-3.14 6.246.105.902-.094 1.828-.153 2.754"/><path stroke="#1E3C70" stroke-miterlimit="10" stroke-width="1.2" d="M100.738 280.558c-1.313-.75-2.192.422-2.883.984-1.957 1.594-3.21 3.715-4.195 6.129-.727 1.781-1.312 3.667-2.285 5.367M130.115 257.426c-2.754.117-5.508.27-8.262.34-.421 0-.55.422-.914.399M178.77 311.4c1.183-1.992 2.718-3.515 5.109-3.879.808.692.621 1.5.644 2.414.082 2.836-1.722 5.567-.363 8.52.844.093 1.769.199 2.695.292"/><path stroke="#1E3C70" stroke-miterlimit="10" stroke-width="1.2" d="M101.289 279.82c-.832 3.047-2.531 5.531-4.969 7.523-.668.551-1.418 1.09-2.379.562M64.013 284.776c-1.336.387-2.859-.093-4.09 1.055-.456.422-1.054.656-1.3 1.301 1.184.703 1.629.492 4.277-1.981M164.262 301.486c-1.828 1.407-1.383 3.481-1.418 5.32-.023 1.16.305 2.403 1.231 3.305M88.984 300.76c.434-1.16.938-2.308 1.266-3.492 1.031-3.691 3.761-5.425 7.324-6.609.152 1.184-.621 1.688-1.031 2.414-1.067 1.863-2.59 3.281-4.078 4.746-.645.633-1.442 1.008-2.38.562M160.043 271.382c1.043 2.508 2.133 5.004 3.082 7.547.187.492.504.738.773 1.09M140.391 303.326c-.914-1.875-2.777-2.777-4.441-3.398-4.335-1.617-8.823-2.215-13.382-.504-1.406.527-2.109 1.043-1.652 2.625.551 1.898-1.547 1.5-2.004 2.789.551.703.34 2.156 1.102 3.257"/><path stroke="#1E3C70" stroke-miterlimit="10" stroke-width="1.2" d="M85.305 292.862c.539 2.59 1.535 5.039 2.414 7.523.27.75 1.336.515 1.793 1.137 1.71-.797 2.835-2.672 5.109-2.614-1.16 2.133-2.578 3.985-4.172 5.707M13.332 327.196c.773 1.781.023 3.539-.492 5.098-.352 1.089-.856 2.238-1.348 3.339M157.652 296.354q1.394 1.933-1.195 4.687c-.926-1.043-1.336-2.32-1.746-3.585M177.855 306.818c3.047-.492 5.671-3.562 5.507-6.445-2.66.34-3.937 2.672-5.859 4.09-.14.105-.035.586-.011.89.129 2.051.011 4.125.914 6.059M28.754 313.603c3.527-1.183 4.125-4.476 5.414-7.335-3.176-.504-5.637 2.601-5.04 6.234M26 313.24c-.035-3.68-3.34-6.281-6.082-4.77 1.969 2.203 3.925 4.406 5.894 6.598M152.509 331.79c-2.753.058-5.507.117-8.261.187M80.172 286.804c1.347-.481 2.402-1.77 4.23-1.383-.117 1.98-.726 3.902-1.476 5.789-.329.832-.914 1.593-.739 2.566M37.94 310.674c-.667-.457-1.382-.129-1.804.211-1.992 1.628-3.011 3.785-2.965 6.398M51.521 315.079c1.407-1.664 3.551-2.542 4.793-4.394-2.285-2.062-5.39.352-6.07 2.742-.117.41-.129.856-.187 1.277M117.073 234.107c-2.144.117-4.289.234-6.421.375-3.551.234-7.113.351-10.664.621-1.852.141-3.785.363-5.683.117M127.175 260.18c-1.277 1.137-3.011 1.43-4.417 2.367-2.778 1.875-4.735 4.371-6.27 7.348-1.804 3.503-1.945 3.468.598 6.433 1.019 1.195 2.191 2.261 2.929 3.679M27.839 316.181c-.984 3.246.129 6.586 2.742 7.793.937-3.164-.762-5.531-2.191-7.98M7.274 313.427c.117-2.706-1.418-4.605-3.094-6.468-.914 1.91.41 5.543 2.918 8.121M204.655 327.935c-1.887 2.507-2.121 5.308-1.524 8.659 2.766-2.543 1.465-5.46 1.524-8.109M116.347 326.833c.856-1.289 1.606-2.66 2.602-3.832 1.336-1.57 4.089-1.359 5.273.363.551.797 1.043 1.629 1.804 2.285 1.055-1.675.586-3.199-1.593-5.413-1.113-1.137-4.465-1.243-6.246-.188-2.18 1.301-2.789 3.293-1.84 6.058M2.318 330.501c-1.582-.246-3.035-.938-4.37-1.711-1.208-.691-2.45-1.23-3.704-1.781M20.316 300.76c1.57.515 3.106 1.066 4.23 2.379 1.395 1.64 1.465 3.175.176 4.956M206.682 301.486c-.539.305-.457.867-.34 1.278.621 2.214 1.313 4.417 2.121 7.077.949-1.828 2.555-2.941 2.074-5.05M24.535 294.327c-.925 3.035.235 5.542 2.016 7.898M1.216 331.79c-2.73-.551-5.132-.059-6.984 2.191-.21.258-.128.492-.246 1.136 2.965-.292 5.59-1.148 7.969-2.777M-1.902 309.021c-.808 2.743-.41 5.309.938 7.922 1.699-2.191 1.417-5.203-.575-7.922M40.144 306.63c-.351-3.409-2.367-6.398-4.78-6.831 1.312 2.39.023 5.589 2.765 7.382M147.74 244.935c.223 1.277.668 2.542.188 3.855-.188.515.14.914.375 1.277 1.382 2.098 3.093 4.043 4.113 6.293.703 1.558 1.968 2.109 3.023 3.093 1.77 1.641 3.586 3.281 4.43 5.672M185.565 317.646c-.726-.328-.433-.996-.152-1.254 1.676-1.605 3.527-2.73 6.035-2.449 1.371.152 2.015.914 2.168 2.062.199 1.5.914 3.164-.692 4.418-.047.035.106.352.164.528M88.621 305.342c2.46-.82 4.875-.949 7.582.68-2.848 1.113-5.332 2.074-8.133 1.148M144.799 307.732c-.575 2.953-2.836 4.16-5.321 5.145a2 2 0 0 0-.363.187M165.914 305.893c1.266 1.417 2.344 3.081 4.347 3.515.516-.199.551-.691.399-.937-.738-1.184-1.418-2.438-2.555-3.317-1.3-1.019-2.039-.703-2.402.914-.234 1.032-.246 2.215-1.453 2.754"/><path stroke="#1E3C70" stroke-miterlimit="10" stroke-width="1.2" d="M89.171 298.557c-.375-.645-.058-1.359-.187-2.016-.563-2.718-1.57-3.597-4.605-4.042-1.875 1.335-3.774 2.648-6.047 3.292-.152.047-.363-.105-.55-.175M117.623 302.037c.867-.879 1.934-1.945 3.094-1.57 1.992.633 3.761 1.851 4.605 3.961.305.773.504 1.582.75 2.378M78.334 279.456c1.254-.328 2.262-1.124 3.246-1.886.926.375.738.949.656 1.699-.305 2.578-1.37 4.851-2.425 7.16M55.201 307.732c.645-2.555.047-4.066-2.004-5.531-.597-.433-1.09-.398-1.664-.164M158.204 309.572c-1.488-3.187-1.008-5.754 1.359-6.832 1.019.645.996 1.606.645 2.602-.504 1.418-1.09 2.824-1.641 4.23M9.29 328.661c1.1-.504 1.92-1.371 2.753-2.203.867-.879.27-1.477-.55-1.594-.763-.117-1.583.199-2.38.316M55.565 302.225c1.734 1.371 2.402 4.218 1.464 6.245M167.016 295.979c1.828 1.5 3.773 2.754 6.046 3.539.949.328 1.582.328 2.215-.41M39.956 332.891c2.859-.141 3.937-2.344 5.366-4.359-2.402-.563-5.074 1.101-5.636 3.644-.14.633-.75.984-.645 1.629M74.84 283.124c-.667-.82-.199-1.851-.538-2.765-.633-1.735-1.606-3.059-3.645-3.563-.715 1.852.258 3.516.797 5.004.598 1.652 1.336 3.328 2.742 4.722 1.043 1.043 1.23 2.953 1.734 4.5.317.949.516 1.922 1.113 2.754M39.23 289.007c.27 2.402.434 4.793-.914 6.972M9.84 302.412c.715 2.027 1.57 3.996 1.312 6.246-.117 1.008-.27 1.922-1.125 2.566M166.465 282.397c.551 2.262 1.101 4.535 1.652 6.797M38.492 310.486c-1.078 1.043-1.758 2.309-2.426 3.656-.984 2.004-2.554 3.504-4.734 4.242M38.68 288.819c-1.313 2.074-2.075 4.289-1.653 6.797"/><path stroke="#1E3C70" stroke-miterlimit="10" stroke-width="1.2" d="M10.216 304.24c-1.242 1.781-2.25 3.586-1.324 5.894.152.375.375.61.586.903M143.884 311.037c2.191 2.425 1.441 5.367-.34 7.909-.457.645-1.348 1.032-1.313 2.004M31.695 290.108c1.98 1.758 3.258 3.832 2.942 6.609M175.828 303.877c-1.934-1.57-4.09-2.355-6.609-1.84M78.884 300.022c-1.043-2.555-3.175-3.75-5.695-4.184-1.77-.304-3.68-.996-5.542.457 2.331 1.488 4.827 2.391 6.292 4.652M57.404 295.803c-.668-.117-1.348-.316-2.016-.351-2.765-.164-3.292.281-3.855 3.105M178.769 316.181c.715 1.348.457 2.73-.023 4.031-1.348 3.621-4.219 5.976-7.137 8.273M181.523 294.514c-.082.586-.492.984-.925 1.266-3.047 1.992-3.668 4.933-3.293 8.273M145.349 262.934c-2.332 1.019-4.523 2.203-5.507 4.769M30.957 290.835c.621 2.121 2.05 3.961 2.203 6.246M91.55 322.603c-4.148 1.453-8.402 1.312-12.667.726-.258-.035-.492-.234-.739-.351M111.94 310.299c-.785 2.062-.773 4.148-.187 6.246M133.783 256.5c.023.657.949.891.257 2.039-2.121.645-4.699 1.559-7.605 1.325-1.816-.153-3.668.199-5.507.316M122.217 243.283c1.699 1.043 3.515 1.746 5.507 2.027 1.735.246 3.235-.188 4.395-1.488.562-.633 1.043-1.301 1.757-1.653.633.082.774.586 1.008.938q1.992 3.07 4.605 4.769"/><path stroke="#1E3C70" stroke-miterlimit="10" stroke-width="1.2" d="M180.785 295.979c-.352 2.332-1.008 4.488-3.305 5.695M139.666 248.239c.422 3.246 3.832 4.5 6.972 2.567M3.42 336.559c-1.793-.352-3.551-.574-5.332.164-.656.269-1.371.351-1.64 1.125M189.234 304.24c2.004-.75 3.738-1.863 4.992-3.656-3.41-1.465-7.054.27-7.382 3.469M205.392 308.096c-1.429 1.57-1.242 3.667-1.839 5.507M35.363 338.762c1.125-1.195 2.941-1.465 4.031-3.047-2.285-.445-4.124.036-5.683 1.582M65.853 300.209c-2.507.047-3.761 1.993-5.32 3.492M87.696 304.615c-3.117-.093-4.992 2.028-6.715 4.113-.515.621-.234 2.11.47 3.059M50.795 302.037c1.687 1.477 2.472 3.445 3.117 5.508M183.913 308.471c-1.207 1.851-2.414 3.714-4.594 4.582-.843.328-.715 1.007-.726 1.663M19.941 317.283c1.887.316 3.785.55 5.508 1.464M191.988 314.341c-.011 1.875 0 3.738.739 5.508M191.261 314.154c-.914 1.699-1.805 3.445-3.867 4.019-.539.152-.258.504-.363.75-.867 1.969-2.918 3.094-5.133 3.164-1.347.035-2.695.457-4.043.691M135.623 323.892c-.493-.961-2.649-2.121-3.668-1.817-1.758.528-3.539.528-5.332.528M178.769 290.471c-2.238 1.945-2.273 4.769-2.941 7.347M121.115 303.689c.528 2.801 1.899 5.332 2.567 8.074M170.871 287.905c.152 2.121 1.406 3.703 2.566 5.32M81.45 294.702c.222 1.265-1.044 1.863-1.302 2.929-.199.82-.597 1.594-.902 2.391M135.072 305.717c1.266 1.183 2.461 2.367 2.789 4.218.199 1.125.996 2.11 1.067 3.317M109.914 320.399c1.676 1.512 3.902 1.254 5.871 1.84M22.52 335.645c-.81-.293-1.184-1.043-1.63-1.664-.796-1.113-1.745-1.887-3.14-2.004M21.418 301.486c.598 1.723 1.582 3.305 1.84 5.145M130.479 314.892c1.617.82 3.468.563 5.144 1.102M138.741 313.603c-2.074 2.297-.984 4.969-.914 7.523M134.521 313.24c-1.664.34-3.55.023-4.769 1.652M135.986 322.239c-.492-2.965-4.933-4.558-7.711-2.39M17.927 303.877c-.305.059-.621.105-.914.187-2.075.575-2.262.879-1.828 3.188 1.722-.656 3.328-1.488 4.804-2.543-.352-1.113-1.383-.305-1.887-.832M176.566 332.34l-4.957.551M159.492 271.195c-1.605 1.266-3.012 2.778-4.769 3.856M164.638 295.252c.058 1.254-.493 2.203-1.348 3-.949-.304-.586-1.007-.668-1.535M185.754 306.08c1.582.644 3.152 1.289 4.945 2.016.082-1.571-.937-2.368-1.641-3.305"/><path stroke="#1E3C70" stroke-miterlimit="10" stroke-width="1.2" d="M135.26 306.268c0 2.507.75 4.769 2.226 6.773.317.422.903.609 1.453.199M142.42 306.818c-1.594 1.09-2.063 3.153-3.668 4.219M201.9 308.283c-.703 1.535.047 3.059 0 4.594M85.492 316.544c.563 1.196-.094 2.332-.176 3.492s-.129 2.321-.187 3.492M21.969 321.876c1.77.34 3.117 1.406 4.406 2.566M137.275 315.806c-2.074.176-2.789 1.957-3.855 3.305M88.621 318.747c-.234-1.664-.855-3.023-2.754-3.304M196.029 330.501c-1.383-.715-2.812-.317-4.218-.188M56.478 295.803c-1.078 1.125-2.414 1.84-3.855 2.391M119.277 314.705c-.867-.832-1.875-.211-2.742-.106-.773.082-1.476.035-2.215-.07M56.665 283.862c-.785-.574-1.558-1.136-2.367-1.734-.387 1.488.211 2.801 1.254 3.41.867.504.855-.188 1.113-.574M170.871 283.862c1.559.645 2.016 2.391 3.305 3.305M89.348 301.674c-1.22 1.57-1.043 3.539-1.454 5.332-.105.445-.246.796-.574 1.101M77.97 279.269c-1.218.094-2.46-.176-3.667.188M6.91 332.153c.363 1.219.738 2.449 1.102 3.668M132.13 321.876c-2.238-1.664-4.699-2.554-7.523-2.203M146.275 243.47c-1.101-.551-2.203.14-3.304 0M80.348 305.166l.55 3.305M135.81 310.849c-1.066-.351-1.816-1.488-3.468-1.406 1.289 2.391 2.543 4.418 4.933 5.449M78.146 279.82c-1.03 1.054-2.156 2.027-2.94 3.304M1.578 336.922c-1.043.586-2.11 1.09-3.305 1.289M198.596 262.196c1.675-.563 3.316.07 4.956.222 3.867.363 7.711.949 11.578 1.418 3.176.387 6.363.738 9.55 1.102M164.449 301.861c.926.774.235 2.145 1.102 2.942M175.828 299.284c.727.703-.105 2.191 1.289 2.566M59.057 301.123c1.488 1.852 1.664 2.918.55 5.508M9.29 323.892c-1.079 1.429-.247 2.929-.188 4.406M75.943 291.76c-.914.364-1.84.739-2.754 1.102M79.07 300.385c.024 1.535.164 3.023 1.29 4.218"/><path stroke="#1E3C70" stroke-miterlimit="10" stroke-width="1.2" d="M141.868 304.064c-.105 1.899.528 3.282 2.567 3.668M183.726 318.571l-2.39 1.653M141.318 303.326c-1.793.059-2.285 1.5-2.929 2.766-.317.632-.504 1.336-.75 2.015M152.333 285.878c.481.703-.363 1.512.188 2.203M181.887 305.342c.609.668 1.218 1.347 1.839 2.015M117.262 302.225c-1.184.96-2.321 1.98-3.117 3.304M46.201 259.442c.656.305 1.348.141 2.016.187M147.928 286.429c-.493.668-.985 1.347-1.465 2.015M186.117 304.615c-.703 1.02-.691 2.414-1.652 3.305M183.176 303.139h2.015M75.03 283.499c-.247.914-.493 1.84-.739 2.754M121.115 306.631c-.726.246 0 1.219-.738 1.465M9.665 311.4c-.128.68.61.914.739 1.465M117.447 302.588c.446.433.914.844 1.102 1.465M200.986 336.747c-.058.433-.117.855-.187 1.289M114.145 306.268l1.289 1.289M146.087 288.819c-.058.446-.949.657-.363 1.289M24.535 262.195h1.29"/></g><g clip-path="url(#c)"><rect width="87.057" height="87.057" x="14.799" y="31.34" fill="#FFF4DE" rx="43.528"/><path stroke="#1E3C70" stroke-miterlimit="10" stroke-width="1.2" d="M74.233 74.168c.071.43-.123.817-.25 1.196-.486 1.405-.17 2.78.086 4.169.49 2.672.72 5.375.874 8.088a9.1 9.1 0 0 1-.628 3.924c-.583 1.446-1.549 1.707-2.892 1.063-3-1.44-5.217-3.827-7.598-6.024a.71.71 0 0 1-.24-.644c.189-1.568.265-3.142.24-4.72M59.984 108.754c.29 1.333 1.236 2.212 2.263 2.933.853.598 1.574 1.257 2.14 2.11.553.833 1.16 1.63 1.666 2.493.328.552.455 1.16.184 1.84-.817 2.074-1.916 4.006-2.897 5.998-2.125 4.318-4.215 8.646-5.758 13.213M41.007 80.253c-1.237 2.243-1.876 4.711-2.632 7.128-.94 3.015-1.855 6.045-2.565 9.126-.373 1.614-.879 3.208-.966 4.884-.107 2.121-.265 4.231-.628 6.326-.112.649.419 1.17 1.349 1.517 1.783.67 3.653.941 5.523 1.196 3.347.45 6.72.439 10.086.404.854-.011 1.707-.072 2.606-.113.532-2.56 1.099-5.155 1.313-7.812.02-.266.051-.542-.076-.802M63.663 86.655c-.338 1.068-.246 2.192-.389 3.286-.44 3.382-.833 6.775-1.21 10.168-.246 2.186-.43 4.378-.65 6.565a9 9 0 0 1-.24 1.278c-.138.521-.684.403-.95.367-1.61-.199-3.209-.49-4.803-.781-.179-.031-.48-.062-.486-.389"/><path stroke="#1E3C70" stroke-miterlimit="10" stroke-width="1.2" d="M69.348 69.125c-.21 1.364-1.374 3.096-3.352 3.485-.664.133-1.354.398-2.013.674-1.083.45-1.4 1.477-1.563 2.412-.49 2.774-1.66 5.303-2.601 7.92-.583 1.63-1.211 3.244-1.753 4.884-.853 2.59-2.176 4.982-3.096 7.537-.404 1.124-1.068 1.716-2.105 2.176-1.211.532-2.172-.046-3.117-.536-.833-.43-1.665-.946-2.197-1.717-.46-.102-.28.49-.623.465M48.692 110.997c.802 1.277 2.069 2.095 3.122 3.122 1.037 1.017 2.15 1.967 3.101 3.061 1.104 1.267 1.257 2.82.726 4.383-.787 2.31-2.024 4.405-3.276 6.49a271 271 0 0 1-3.852 6.238c-.516.802-.475 1.543-.066 2.33M59.34 71.685c.296 1.006-.18 1.854-.562 2.723-1.17 2.647-2.627 5.145-4.017 7.68-1.129 2.064-2.14 4.194-3.418 6.177-.189.296-.23.684-.332 1.001-1.037.21-1.752-.28-2.32-1.088-1.64-2.315-3.265-4.64-4.644-7.128M38.606 98.188c.684.316 1.43.362 2.161.485 2.713.46 5.35 1.231 8.002 1.931.827.22 1.665.148 2.529.307-.23.414-.634.465-1.007.557-3.04.751-5.922.204-8.727-1.037-.771-.343-1.538-.69-2.457-.736-.379 1.553-.772 3.101-1.135 4.66-.117.505-.342.986-.327 1.517M44.37 67.362c.582-1.114.847-2.376 1.532-3.439.398-.623.874-1.206 1.36-1.757.27-.307.704-.327 1.098-.445 2.192-.654 4.389 0 6.575-.102 2.545-.117 5.054-.383 7.527-.986 1.236-.302 1.313-.583.812-1.763-.853-2.008-2.529-2.8-4.496-2.922-2.56-.164-5.023.28-7.215 1.793-.766.531-1.246 1.221-1.686 2.008-.312.557-.214 1.022.015 1.533M34.441 108.754c.128 2.682.961 5.13 2.57 7.281 1.57 2.095 3.792 3.29 6.157 4.246.445.179.905.322 1.36.485"/><path stroke="#1E3C70" stroke-miterlimit="10" stroke-width="1.2" d="M55.978 61.675c.393 1.436-.383 2.576-.828 3.858-.695-.307-.787-.894-1.083-1.308-.455-.628-.848-.674-1.206.015-.409.782-.43 1.63-.24 2.478.112.501.378.736.96.583.353-.092.685-.164.956-.42M70.39 76.968c-.295.03-.244.311-.316.48a12.6 12.6 0 0 1-2.974 4.476c-.618.603-.827.536-1.44-.153-1.186-1.324-2.397-2.621-3.597-3.93"/><path stroke="#1E3C70" stroke-miterlimit="10" stroke-width="1.2" d="M71.03 74.49c-1.13 1.129-1.697 2.626-2.555 3.929-.307.465-.603.93-.956 1.364-.419.516-.802.475-1.297.153-1.334-.863-2.376-2.048-3.52-3.127M63.584 67.28l1.88-4.94c-.827-.225-1.333.352-1.874.71-1.288.863-1.717 2.233-2.019 3.668-.148.706-.378 1.395-.792 2.003"/><path stroke="#F16622" stroke-miterlimit="10" stroke-width="1.2" d="M66.385 64.802c.005-1.165 1.323-1.83 2.641-1.9.128-.006.332.076.475.045.281-.056.614-.122.563-.546-.041-.338-.353-.297-.562-.399-.041-.02-.108-.01-.159 0-1.405.153-2.739-.24-4.088-.552-.28-.066-.608-.082-.873 0-1.318.43-2.621.705-3.74 1.773-1.068 1.017-1.283 1.972-1.002 3.265.051.235.108.47-.358.69-.832.393-1.548 1.093-1.548 2.187"/><path stroke="#1E3C70" stroke-miterlimit="10" stroke-width="1.2" d="M48.532 61.839c.082.93-.475 1.696-.638 2.565-.276 1.492-.521 2.994-.813 4.48-.128.655-.301 1.314-.95 1.682M49.254 61.839c.107 1.2.174 2.406.332 3.602.2 1.502.5 2.99.69 4.486.04.337.291.368.424.557M59.82 67.28c.343.537.41 1.216.935 1.66-1.415 1.212-2.968 1.57-4.695 1.043-.363-.112-.685-.158-1.047-.066-.961.24-1.988.199-2.887.715-.41.235-.859.087-1.313-.092-.271.552-.057 1.088.035 1.62.225 1.287-.122 1.507-1.282 1.921-.772.27-1.405.787-2.07 1.221-1.686 1.099-3.32 2.279-4.971 3.429-.47.327-.864.735-1.2 1.2M70.872 69.682c-.47 1.69-.557 3.377.342 4.95.271.476.276.736-.107 1.053-.537.445-.705.971-.578 1.686.21 1.196-.071 2.397-.076 3.598 0 1.44-.092 2.881-.148 4.322"/><path stroke="#1E3C70" stroke-miterlimit="10" stroke-width="1.2" d="M49.815 74.168c-.082.215-.117.465-.25.634-.276.347-.194.608.087.889.516.526 1.067 1.027 1.512 1.604 1.099 1.43 1.558 3.091 1.61 4.874M70.392 71.123c-.476 1.144-1.513 1.573-2.565 1.91-1.482.466-2.938 1.002-4.4 1.538-.184.067-.347.225-.562.077M40.525 89.7c1.196 1.442 2.402 2.877 3.771 4.16.89.833 1.804 1.64 2.877 2.248M49.494 89.22c-.787 2.187-1.549 4.379-2.08 6.648"/><path stroke="#F16622" stroke-miterlimit="10" stroke-width="1.2" d="M76.154 62.641c.092.782.486 1.344 1.267 1.666 1.043-1.36 2.243-2.632 3.95-3.403-.444-.578-1.012-.567-1.533-.49-.787.117-1.481.495-2.084 1.026-.455.404-.981.69-1.523.96"/><path stroke="#F16622" stroke-miterlimit="10" stroke-width="1.2" d="M80.078 61.839c.455.639.96 1.252 1.349 1.926.782 1.364.787 3.137-.705 4.241-.123.087-.215.21-.322.317"/><path stroke="#1E3C70" stroke-miterlimit="10" stroke-width="1.2" d="M75.188 68.077c-.378.245-.04.475.025.639.159.398.225.771-.025 1.124-.639.889-.465 1.763 0 2.647.092.173.138.352.01.562-.373.613-1.45 1.369-2.488 1.64.332-.685.623-1.278.945-1.937-.776-.296-1.655.322-2.31-.342.185-.368.64-.296.885-.567"/><path stroke="#F16622" stroke-miterlimit="10" stroke-width="1.2" d="M76.072 62.477c-.383-.071-.5.19-.649.476-.72 1.41-.746 2.85-.24 4.327.087.25.373.557 0 .792M70.469 63.438c-.905 1.707-.792 3.418.02 5.125.25-.02.542-.235.782.076"/><path stroke="#1E3C70" stroke-miterlimit="10" stroke-width="1.2" d="M51.256 73.049c.102.28.169.552.383.812 1.354 1.681 2.902 3.107 4.9 3.99"/><path stroke="#F16622" stroke-miterlimit="10" stroke-width="1.2" d="M73.191 62.8c-.444 1.24-.761 2.493-.577 3.847.092.68.373 1.252.659 1.84"/><path stroke="#1E3C70" stroke-miterlimit="10" stroke-width="1.2" d="M67.667 65.2c.246.287.736.333.823.844-.27.337-.67.414-1.063.52-1.129.308-2.284.578-2.882 1.759-.056.107-.117.21-.153.322-.025.071 0 .158 0 .357.716-.23 1.4-.444 2.08-.68.899-.306 1.68-.183 2.325.563"/><path stroke="#F16622" stroke-miterlimit="10" stroke-width="1.2" d="M72.148 63.198c-.526 1.574-.776 3.157-.352 4.813.035.133.148.649-.327.71"/><path stroke="#1E3C70" stroke-miterlimit="10" stroke-width="1.2" d="M70.309 68.645c-.986.398-1.967.827-2.963 1.19-.71.256-1.15.608-.966 1.451.107.5-.506.782-.47 1.278M42.447 101.228c-.629 1.609-1.18 3.244-1.441 4.961M69.027 83.697c-1.14 1.334-1.87 2.897-2.555 4.486-.04.097.02.246-.163.24"/><path stroke="#F16622" stroke-miterlimit="10" stroke-width="1.2" d="M79.36 63.361c.526 1.503.618 2.98-.24 4.405M75.434 62.56c-.614-.251-1.216-.226-1.845-.006-1.114.394-2.228.746-3.439.741-.93 0-1.916.74-2.672 1.875-1.333-.654-2.279.169-3.25.915M60.54 63.52c-.205 1.062.02 2.094.24 3.121.07.322.112.66.398.88"/><path stroke="#1E3C70" stroke-miterlimit="10" stroke-width="1.2" d="M67.75 81.612c.91.854 1.512 1.927 1.972 3.056.18.444.802.608.675 1.19"/><path stroke="#F16622" stroke-miterlimit="10" stroke-width="1.2" d="M76.312 63.438c-.23.046-.22.235-.24.398-.117 1.125-.189 2.249.077 3.363"/><path stroke="#1E3C70" stroke-miterlimit="10" stroke-width="1.2" d="M46.611 102.668c-.291 1.283-.587 2.56-.879 3.843"/><path stroke="#F16622" stroke-miterlimit="10" stroke-width="1.2" d="M62.303 62.237c-.736 1.032-1.022 2.187-.961 3.444"/><path stroke="#1E3C70" stroke-miterlimit="10" stroke-width="1.2" d="M73.514 70.085c-.527.067-1.053.133-1.523.404-.235.138-.567.164-.567.557s.332.368.562.48c.087.041.163.108.24.159M55.737 66.483c.02.547-.342.986-.414 1.518-.081.613-.102 1.195.174 1.763"/><path stroke="#F16622" stroke-miterlimit="10" stroke-width="1.2" d="M78.076 64.158c-.373 1.053-.45 2.12-.158 3.204"/><path stroke="#1E3C70" stroke-miterlimit="10" stroke-width="1.2" d="M42.927 115.8c-.695.322-1.39.638-2.08.96M48.855 77.852c-.541.465-.337 1.23-.72 1.762"/><path stroke="#F16622" stroke-miterlimit="10" stroke-width="1.2" d="M74.954 68.322c-.598.01-1.201-.066-1.763.24-.465.25-.95.21-1.441.082"/><path stroke="#1E3C70" stroke-miterlimit="10" stroke-width="1.2" d="M48.053 79.773c.22.562-.072 1.073-.158 1.6M73.671 71.526c-.429.082-.853.159-1.282.24M71.188 69.605c.332.332.802.312 1.2.48M41.486 115.319l.399.803"/><path stroke="#F16622" stroke-miterlimit="10" stroke-width="1.2" d="M77.198 68.24c-.404.164-1.124.016-.95.798.188.828.367 1.017 1.266.96a26 26 0 0 0 1.681-.158c.88-.112 1.12-.455 1.043-1.436-.992-.03-1.988.087-2.964-.163"/></g><rect width="34.823" height="34.823" x="264.652" y="49.622" fill="#143164" rx="17.411"/><rect width="53.975" height="53.975" x="216.771" y="255.947" fill="#3DC2EE" rx="26.988"/><rect width="18.282" height="18.282" x="13.059" y="125.362" fill="#143164" rx="9.141"/><defs><clipPath id="a"><rect width="134.749" height="134.749" x="112.977" fill="#fff" rx="67.375"/></clipPath><clipPath id="b"><rect width="211.245" height="211.245" y="128.276" fill="#fff" rx="105.622"/></clipPath><clipPath id="c"><rect width="87.057" height="87.057" x="14.799" y="31.34" fill="#fff" rx="43.528"/></clipPath></defs></svg>