<svg width="155" height="155" viewBox="0 0 155 155" fill="none" xmlns="http://www.w3.org/2000/svg">
<rect x="0.0996094" y="0.125" width="154.6" height="154.6" rx="77.3" fill="#FFF4DE"/>
<path d="M39.2302 84.7398C38.8279 83.465 38.4121 82.1969 38.0269 80.9187C37.3281 78.5905 36.6463 76.2589 35.9612 73.9308C35.7533 73.2286 35.5896 72.5128 35.351 71.8208C34.9352 70.6312 34.1171 69.8915 32.8456 69.6495C31.6321 69.4177 30.422 69.1518 29.2256 68.845C27.3883 68.378 25.5408 67.9655 23.6932 67.5429C22.6672 67.3077 21.648 67.035 20.6254 66.7929C19.2346 66.4657 17.8439 66.1555 16.4531 65.8351C14.8442 65.467 13.2319 65.1056 11.6264 64.7273C10.4674 64.4546 9.30846 64.1682 8.15631 63.8683C7.77794 63.7694 7.4473 63.9058 7.09961 63.9739" stroke="#3DC2EE" stroke-linecap="round" stroke-linejoin="round"/>
<path d="M47.1715 96.1048C46.4796 96.3844 45.7706 96.5582 45.0104 96.5173C44.5809 96.4934 44.1787 96.3741 43.8106 96.1935C43.4526 96.0196 43.4015 95.6003 43.3061 95.2493C42.8459 93.5415 42.4028 91.8303 41.9426 90.1225C41.5847 88.7897 41.2336 87.4569 40.8177 86.1412C40.6677 85.6708 40.5893 85.2106 40.2382 84.839C40.1735 84.7675 40.1394 84.6447 40.136 84.5425C40.1019 83.4244 39.5769 82.4359 39.3247 81.3758C38.9395 79.7805 38.3975 78.2329 37.951 76.6547C37.501 75.0697 37.0306 73.488 36.5398 71.9132C36.2841 71.0917 36.0387 70.3247 35.3604 69.7589C34.8763 69.3567 34.2627 69.3089 33.6969 69.1692C31.5494 68.6408 29.4087 68.0818 27.2578 67.5705C25.5024 67.1546 23.74 66.7422 21.9914 66.3127C19.7723 65.7673 17.5532 65.2253 15.341 64.6526C13.2378 64.1072 11.1278 63.5652 9.00758 63.0812C8.67012 63.0028 8.31902 62.9244 7.95429 62.9653C7.38503 63.0267 7.11915 63.2721 7.04416 63.8243C7.0203 64.0118 6.92486 64.1925 6.901 64.3799C6.86009 64.714 6.97599 65.0174 7.08166 65.3412C7.73272 67.3251 8.33607 69.326 8.95645 71.3201C9.70978 73.7334 10.4597 76.1502 11.2232 78.5602C11.4141 79.1635 11.513 79.7907 11.772 80.3702" stroke="#3DC2EE" stroke-linecap="round" stroke-linejoin="round"/>
<path d="M81.5176 18.8668C81.2211 18.8259 81.2211 18.5395 81.1767 18.3623C80.9961 17.5817 80.5393 17.0158 79.8474 16.6715C79.5678 16.5318 79.3906 16.3648 79.2474 16.1057C78.1669 14.1389 76.3739 13.2731 74.2741 12.8265C72.8731 12.5266 71.4551 12.4243 70.0507 12.5572C67.8521 12.7686 65.6535 13.0515 63.7582 14.3877C62.347 15.3831 61.3176 16.6681 60.5983 18.2191C59.7598 20.0223 59.0235 21.8664 58.3827 23.748C58.2668 24.0923 58.0895 24.4093 58.1747 24.8047C58.2838 25.3195 58.7304 25.4728 59.0917 25.6978C59.4326 25.9092 59.8348 26.0217 60.1893 26.2159C60.6188 26.4546 60.612 26.6386 60.2472 26.9693C60.07 27.1261 59.7973 27.1908 59.7428 27.4669" stroke="#1E3C70" stroke-linecap="round" stroke-linejoin="round"/>
<path d="M119.335 67.7949C118.523 69.2095 118.046 70.7435 117.671 72.3183C117.32 73.7909 117.119 75.2839 117.129 76.7939C117.143 78.7403 117.45 80.6492 117.968 82.5274C118.459 84.3033 119.246 85.9497 120.02 87.6132C120.606 88.8676 120.906 90.2209 120.896 91.6287C120.893 92.065 120.92 92.5013 120.944 92.9376C120.971 93.4012 121.124 93.5478 121.595 93.5375C122.423 93.5205 123.2 93.2273 124.008 93.0842C124.516 92.9955 125.017 92.8592 125.518 92.7365C125.75 92.6785 125.944 92.7467 126.121 92.8899" stroke="#1E3C70" stroke-linecap="round" stroke-linejoin="round"/>
<path d="M79.9088 57.1328C79.7725 58.3599 79.1487 59.4098 78.6442 60.4972C77.3455 63.2958 75.8047 65.9852 74.8844 68.9508C74.3628 70.6347 73.9572 72.3459 73.6129 74.0775C73.3061 75.6319 73.0777 77.1965 72.8357 78.7577C72.6414 80.0019 72.5903 81.2699 72.4676 82.5277C72.3346 83.9014 72.0245 85.2274 71.2473 86.3898C71.1109 86.5909 71.0734 86.8091 70.9609 87.0034" stroke="#1E3C70" stroke-linecap="round" stroke-linejoin="round"/>
<path d="M77.748 111.744C78.0411 112.116 77.9286 112.559 77.8843 112.951C77.7275 114.311 77.7821 115.671 77.8639 117.024C77.932 118.153 78.1707 119.267 78.2354 120.395C78.2934 121.381 78.4331 122.369 78.3513 123.361C78.2218 124.892 77.898 126.381 77.4071 127.84C76.9742 129.122 76.3572 130.322 75.9277 131.603C75.4675 132.97 75.4437 134.33 75.6789 135.731C75.7777 136.324 75.9414 136.969 75.338 137.439C75.0346 137.323 74.9119 137.057 74.7824 136.785C74.3733 135.915 73.8007 135.131 73.47 134.221C73.4291 134.105 73.3098 134.017 73.2246 133.918" stroke="#1E3C70" stroke-linecap="round" stroke-linejoin="round"/>
<path d="M63.1137 54.0176C62.7183 54.0892 62.5785 54.4266 62.4115 54.7232C60.7071 57.7501 58.8664 60.6953 57.0939 63.6813C55.8906 65.7095 54.8101 67.8126 53.7874 69.9465C52.9046 71.7906 52.1342 73.679 51.2991 75.5402C51.173 75.8197 51.0673 76.1231 51.1457 76.4435C51.19 76.6276 51.115 76.8117 51.0332 76.9412C50.3992 77.9468 50.1572 79.1057 49.7209 80.1863C49.2948 81.2464 48.7596 82.2588 47.8767 83.036C47.6927 83.1996 47.6722 83.4484 47.6722 83.687C47.6722 84.9619 47.4916 86.2163 47.2154 87.4571C47.0314 88.2786 46.6053 88.7081 45.7599 88.6126C45.1055 88.541 44.8396 87.9513 44.7578 87.2048C44.6691 86.3867 44.9009 85.5959 45.0032 84.7915C45.0543 84.3926 45.0782 83.987 45.1055 83.5848C45.1157 83.4177 45.0748 83.2984 44.918 83.1689C44.6964 82.9917 44.5941 83.1485 44.4544 83.2337C43.7829 83.6495 43.1523 84.1677 42.4296 84.4574C41.8126 84.7062 41.424 85.2789 40.7832 85.4425" stroke="#1E3C70" stroke-linecap="round" stroke-linejoin="round"/>
<path d="M134.418 92.1343C134.418 93.5591 134.383 94.984 134.431 96.4088C134.462 97.3121 134.169 98.1507 134.08 99.0267C134.002 99.8141 133.845 100.574 133.664 101.338C132.798 105.05 130.855 107.917 127.331 109.594C126.209 110.129 125.146 110.787 124.011 111.305C123.861 111.373 123.677 111.479 123.656 111.7" stroke="#1E3C70" stroke-linecap="round" stroke-linejoin="round"/>
<path d="M89.7617 39.0292C91.8888 38.9985 93.7601 39.7689 95.5463 40.8358C97.8165 42.1891 100.059 43.5832 102.531 44.5684C104.508 45.3558 106.505 45.9796 108.67 45.9284C109.713 45.9046 110.705 45.6217 111.68 45.3353C112.586 45.0694 113.074 43.648 112.747 42.7004C112.685 42.5197 112.644 42.3323 112.593 42.1482" stroke="#3DC2EE" stroke-linecap="round" stroke-linejoin="round"/>
<path d="M131.907 68.6985C132.125 68.4122 131.995 68.1054 131.896 67.8463C130.843 65.058 129.541 62.389 127.98 59.8495C126.862 58.0326 125.236 56.8021 123.31 55.9192C121.104 54.9068 118.865 53.9797 116.622 53.0559C116.298 52.923 115.984 52.7559 115.664 52.606" stroke="#1E3C70" stroke-linecap="round" stroke-linejoin="round"/>
<path d="M111.084 32.4441C108.869 31.943 106.817 30.9238 104.598 30.4296C103.302 30.1398 101.986 29.9694 100.674 29.7819C98.8197 29.516 96.9552 29.5706 95.094 29.5842C93.4544 29.5978 91.9069 29.9694 90.4104 30.6716C88.5629 31.5374 87.5062 32.9793 87.121 34.9154C86.9779 35.6415 87.121 36.3982 87.3869 37.1277C87.6903 37.9731 88.1027 38.7673 88.4641 39.582C88.5493 39.7729 88.7095 39.9365 88.8629 40.0865C89.7321 40.9489 89.8957 41.9783 89.5583 43.1032C89.2617 44.0951 89.081 45.1143 88.8663 46.1233C88.7197 46.8187 89.3026 47.5652 90.0661 47.7322C90.4036 47.1289 90.8842 46.9209 91.5762 47.0777C91.9989 47.1732 92.909 46.713 92.9738 46.321C93.0351 45.9597 92.7829 45.7313 92.4829 45.5677" stroke="#3DC2EE" stroke-linecap="round" stroke-linejoin="round"/>
<path d="M125.971 69.5029C126.513 70.0108 126.687 70.7232 126.966 71.3675C127.624 72.8878 128.152 74.4592 128.623 76.0442C129.25 78.1577 129.836 80.2847 130.327 82.4322C130.651 83.857 130.975 85.2921 131.155 86.751C131.237 87.4055 131.336 88.0634 131.462 88.711C131.517 88.9905 131.489 89.2496 131.452 89.5189" stroke="#1E3C70" stroke-linecap="round" stroke-linejoin="round"/>
<path d="M76.0899 59.2465C76.1649 58.6841 76.6387 58.3807 76.9591 58.0024C78.6226 56.0185 80.5144 54.2528 82.3756 52.4598C82.9994 51.8598 83.647 51.2804 84.2299 50.6429C84.9424 49.8623 86.6331 49.7601 87.458 50.5475C88.6953 51.7303 89.6668 53.1211 90.6145 54.5289C90.969 55.0572 91.0644 55.7015 91.1939 56.3287C91.3473 57.065 91.1939 57.7058 90.8735 58.3432C90.594 58.8988 90.744 59.5431 90.4781 60.1055C90.2156 60.6646 90.0895 61.2713 89.9157 61.861C89.493 63.2961 89.2237 64.7584 88.9987 66.2344C88.7772 67.6729 88.6204 69.1216 88.3886 70.5566C88.2045 71.7088 87.9693 72.8575 87.625 73.9858C87.158 75.5129 86.5649 76.9991 86.1899 78.5535C86.1252 78.816 86.0706 79.0239 86.1695 79.3205C86.2786 79.6477 86.2479 80.0772 86.132 80.4112C85.8968 81.0896 85.9002 81.7884 85.7911 82.4769C85.6343 83.4689 85.44 84.4574 85.2321 85.4425C85.2014 85.5959 85.1196 85.7697 84.9014 85.8686C84.7072 85.9572 84.5844 86.2265 84.4276 86.3867C83.5141 87.3173 82.6142 88.2649 81.5405 89.0353C80.9439 89.4614 80.6235 90.1806 80.3747 90.876C79.8566 92.3179 79.3487 93.7632 78.9601 95.2494C78.6465 96.4458 78.3431 97.6423 78.1488 98.8694C77.9511 100.114 77.7466 101.358 77.1159 102.5C76.6762 103.297 75.9877 103.798 75.2889 104.296C74.2867 105.012 73.138 105.343 71.9245 105.516C70.6189 105.704 69.3066 105.816 68.0044 105.983C66.9648 106.116 65.9183 106.191 64.8821 106.348C63.9038 106.498 62.905 106.519 61.9165 106.621C61.6097 106.652 61.2722 106.641 61.0098 106.866" stroke="#1E3C70" stroke-linecap="round" stroke-linejoin="round"/>
<path d="M23.4362 92.5356C23.2726 93.0367 23.3544 93.214 23.8351 93.5958C24.4861 94.1105 25.2735 94.3457 26.0064 94.6865C26.9677 95.1365 27.9664 95.5251 28.805 96.1727C29.531 96.7318 30.3491 96.7761 31.1808 96.8613C32.1012 96.9533 33.025 97.0113 33.9453 97.1204C34.668 97.2056 35.3906 97.1919 36.1064 97.1545C38.1448 97.0488 40.1355 97.3522 42.0887 97.8771C44.0862 98.4157 46.0462 99.1281 48.0778 99.5031C49.6322 99.7894 51.2275 99.8917 52.8023 99.4826C53.1602 99.3906 53.4602 99.1826 53.8079 99.0736" stroke="#1E3C70" stroke-linecap="round" stroke-linejoin="round"/>
<path d="M131.504 68.3994C132.124 68.7607 132.162 69.4357 132.291 70.0117C132.612 71.4229 132.912 72.8478 133.096 74.2829C133.358 76.3042 133.522 78.3358 133.713 80.364C133.89 82.2252 134.064 84.0829 134.21 85.9475C134.275 86.7519 134.575 87.5393 134.394 88.3608" stroke="#1E3C70" stroke-linecap="round" stroke-linejoin="round"/>
<path d="M37.2654 118.582C37.2381 119.322 36.9825 120.021 36.8495 120.743C36.5632 122.277 36.1883 123.794 35.861 125.321C35.6156 126.466 35.3156 127.601 35.0838 128.747C34.9304 129.517 34.7975 130.308 34.7191 131.102C34.6509 131.808 34.6509 132.517 34.5793 133.219C34.4941 134.061 34.6509 134.927 34.7293 135.782C34.7805 136.352 34.8623 136.921 34.9032 137.49" stroke="#1E3C70" stroke-linecap="round" stroke-linejoin="round"/>
<path d="M47.373 96.6569C47.8469 97.0693 48.3548 96.725 48.8286 96.6875C49.4558 96.6364 50.0693 96.4387 50.6897 96.3058C50.7374 96.2955 50.8056 96.3262 50.8397 96.3023C51.443 95.8626 52.2645 96.2955 52.8543 95.8013C53.5701 96.0297 54.2109 95.5831 54.9131 95.5558C55.6085 95.532 56.3209 95.3275 57.0265 95.1911C58.315 94.9389 59.6035 94.7071 60.8988 94.4855C62.0953 94.281 63.2747 93.9912 64.4712 93.7969C65.6097 93.6129 66.6936 93.3368 67.6447 92.6414C67.8594 92.4846 68.0128 92.3516 67.989 92.079C67.9651 91.7858 67.7776 91.5165 67.5356 91.4961C67.0584 91.4552 66.7005 91.2165 66.3289 90.9745C65.9608 90.7325 65.5244 90.8075 65.1256 90.7155C63.5951 90.3644 62.0748 89.986 60.5477 89.6179C58.8877 89.2156 57.231 88.81 55.5676 88.4112C52.9702 87.7874 50.3727 87.1704 47.7753 86.5466C47.6901 86.5262 47.6082 86.4818 47.523 86.4478" stroke="#3DC2EE" stroke-linecap="round" stroke-linejoin="round"/>
<path d="M111.539 58.7422C111.44 59.2978 110.99 59.7546 110.434 59.7375C108.706 59.6932 107.39 60.5249 106.211 61.66C105.331 62.5054 104.466 63.3678 103.596 64.2234C103.225 64.5881 102.799 64.8131 102.304 65.0142C101.749 65.2392 101.394 65.8187 101.237 66.4357C100.29 70.1375 100.174 73.9144 100.303 77.698C100.358 79.2933 100.413 80.9022 100.77 82.4805C100.828 82.7293 100.866 83.0327 100.682 83.2815" stroke="#1E3C70" stroke-linecap="round" stroke-linejoin="round"/>
<path d="M120.188 118.53C121.17 120.82 120.822 123.166 118.276 124.512C116.735 125.327 115.058 125.627 113.35 125.821C111.612 126.019 109.863 126.094 108.121 126.216C107.634 126.251 107.143 126.193 106.662 126.322" stroke="#1E3C70" stroke-linecap="round" stroke-linejoin="round"/>
<path d="M63.5656 49.3882C63.7804 49.5825 64.0292 49.6916 64.319 49.7461C64.8541 49.8484 65.0211 50.0972 64.8132 50.5915C64.4792 51.3789 64.094 52.1424 63.7122 52.906C63.4668 53.4002 63.2043 53.8468 63.2282 54.4672C63.2486 55.0432 62.8259 55.5716 62.6146 56.1272C61.4352 59.2053 59.6899 61.98 57.9753 64.7683C57.205 66.0227 56.5914 67.3453 56.0324 68.6986C55.9403 68.9235 55.8756 69.1553 55.9881 69.4621C56.0835 69.7212 55.896 70.0893 55.8176 70.4063C55.4665 71.8721 55.0166 73.3105 54.5053 74.7286C53.8065 76.6715 53.2134 78.6384 52.7907 80.6631C52.3919 82.5754 52.1703 84.4979 52.1976 86.4477C52.1976 86.6318 52.2282 86.8159 52.2453 86.9999" stroke="#1E3C70" stroke-linecap="round" stroke-linejoin="round"/>
<path d="M120.29 127.734C119.703 127.417 119.08 127.642 118.48 127.649C117.457 127.659 116.434 127.809 115.412 127.826C112.964 127.867 110.517 127.891 108.069 127.878C106.225 127.867 104.381 127.786 102.537 127.734" stroke="#1E3C70" stroke-linecap="round" stroke-linejoin="round"/>
<path d="M58.7871 118.282C58.8041 119.403 58.8996 120.535 58.8178 121.65C58.7291 122.873 58.6848 124.1 58.5655 125.324C58.4905 126.108 58.3951 126.896 58.3201 127.683C58.2144 128.76 58.0338 129.837 57.8258 130.901C57.5088 132.517 56.9771 134.088 56.7896 135.731C56.7248 136.307 56.81 136.904 56.8271 137.49" stroke="#1E3C70" stroke-linecap="round" stroke-linejoin="round"/>
<path d="M66.1309 112.548C66.1581 113.547 66.5331 114.464 66.9012 115.357C67.6682 117.208 68.7658 118.899 69.6452 120.695C70.6406 122.727 71.4246 124.844 72.0041 127.032C72.2188 127.84 72.4268 128.655 72.5188 129.493C72.5461 129.728 72.6858 129.933 72.8665 130.096" stroke="#1E3C70" stroke-linecap="round" stroke-linejoin="round"/>
<path d="M127.074 92.6863C126.788 92.6419 126.471 92.6351 126.28 92.8465C125.813 93.3646 125.169 93.5282 124.559 93.6203C123.335 93.8043 122.827 94.5645 122.476 95.6484C122.244 96.3677 122.179 97.1108 121.92 97.8266C121.504 98.9753 120.87 99.923 119.933 100.683C118.361 101.965 116.507 102.783 114.803 103.85C114.179 104.242 113.538 104.61 112.996 105.114C112.669 105.421 112.471 105.619 113.092 105.967" stroke="#1E3C70" stroke-linecap="round" stroke-linejoin="round"/>
<path d="M76.9437 103.096C77.2573 103.41 77.2096 103.764 77.1005 104.153C76.9369 104.736 77.1005 105.325 77.138 105.912C77.2164 107.03 77.6595 108.076 77.7822 109.181C77.8504 109.794 77.8538 110.422 77.8879 111.042C77.9152 111.546 77.6936 111.751 77.0426 111.891C75.2189 112.286 73.368 112.361 71.5136 112.286C70.4705 112.242 69.4343 112.112 68.3946 111.99C67.4709 111.88 66.5539 111.676 65.6268 111.608C64.8359 111.55 64.0519 111.451 63.2645 111.393C62.9952 111.373 62.7294 111.379 62.4601 111.352C62.1022 111.315 61.7374 111.294 61.3965 111.533C61.2057 111.666 60.9364 111.679 60.7012 111.744" stroke="#1E3C70" stroke-linecap="round" stroke-linejoin="round"/>
<path d="M11.9219 81.3726C12.5252 82.3475 12.6957 83.4826 13.0638 84.5461C13.4933 85.7834 13.8137 87.0549 14.1853 88.3127C14.2807 88.6331 14.4102 88.9399 14.4989 89.2637C14.7102 90.0239 15.2317 90.4704 16.043 90.525C16.6498 90.5659 17.2088 90.7977 17.7474 91.0431C18.2553 91.2783 18.7666 91.3942 19.312 91.4317C20.2425 91.4964 21.1288 91.7657 22.0253 91.9907C22.8741 92.2055 23.7024 92.4952 24.5443 92.7338C24.9432 92.8463 25.1647 93.1974 25.4851 93.4121C25.8294 93.6439 26.1703 93.8928 26.5044 94.145" stroke="#3DC2EE" stroke-linecap="round" stroke-linejoin="round"/>
<path d="M85.4886 104.906C85.4511 106.436 85.1409 107.929 84.8853 109.433C84.5649 111.328 84.1558 113.209 83.8593 115.111C83.7093 116.069 83.6002 117.034 83.3889 117.985C83.2389 118.67 83.2866 119.4 83.1605 120.092C83.0207 120.862 83.0037 121.636 82.9219 122.406" stroke="#1E3C70" stroke-linecap="round" stroke-linejoin="round"/>
<path d="M86.7469 106.716C86.7299 107.79 86.764 108.867 86.6822 109.934C86.6004 110.994 86.4606 112.05 86.314 113.107C86.13 114.467 85.8948 115.82 85.6698 117.174C85.5232 118.046 85.4141 118.922 85.3085 119.795C85.2369 120.385 85.3085 121.005 85.4005 121.602C85.5028 122.26 85.6698 122.914 85.9868 123.517C86.2152 123.95 86.4981 124.312 86.948 124.52" stroke="#1E3C70" stroke-linecap="round" stroke-linejoin="round"/>
<path d="M77.6972 110.084C77.0564 109.634 76.2826 109.487 75.5702 109.215C75.0998 109.034 74.51 109.095 73.9749 109.037C72.9932 108.932 72.0319 108.727 71.0604 108.581C69.1345 108.291 67.2188 107.96 65.2792 107.766C64.0419 107.643 62.8045 107.527 61.5569 107.507C61.4444 107.507 61.3865 107.541 61.3047 107.572" stroke="#1E3C70" stroke-linecap="round" stroke-linejoin="round"/>
<path d="M75.0831 25.3535C75.2093 25.783 74.8582 26.0864 74.7559 26.4511C74.657 26.8022 74.4866 27.1499 74.3741 27.5146C74.173 28.1725 74.2582 28.5475 74.8888 28.81C75.9353 29.2463 76.2114 30.0712 76.1875 31.087C76.1671 31.9255 76.2319 32.7641 76.1535 33.6026C76.133 33.8276 76.1671 34.165 76.4943 34.1923C76.7875 34.2162 76.8454 33.9605 76.9034 33.7049C77.1556 32.6107 77.3704 31.5097 77.9908 30.5279C78.6214 29.536 79.794 28.9224 80.8609 29.2497C81.3177 29.3894 81.6279 29.8223 81.7778 30.3302C82.0949 31.3938 81.9312 32.4402 81.604 33.4424C81.3245 34.3014 80.8541 35.0786 80.1178 35.6683C79.8826 35.8558 79.644 35.9683 79.3577 36.0126" stroke="#1E3C70" stroke-linecap="round" stroke-linejoin="round"/>
<path d="M52.0014 52.6572C51.2685 53.2128 51.1561 54.065 50.9447 54.8695C50.5459 56.3864 50.2289 57.9271 49.8607 59.4508C49.2881 61.8301 48.5757 64.1616 47.8326 66.4864C47.611 67.1784 47.4712 67.8942 48.1734 68.4498C48.2621 68.5214 48.3098 68.6475 48.3779 68.7464" stroke="#1E3C70" stroke-linecap="round" stroke-linejoin="round"/>
<path d="M62.6615 42.5508C62.1161 42.4452 61.6423 42.7144 61.1549 42.861C58.8778 43.553 56.7201 44.5211 54.6647 45.7141C53.6693 46.2902 52.824 47.0094 52.3604 48.0832C52.074 48.7513 51.9615 49.4739 51.8491 50.1932C51.7809 50.6261 51.6889 51.0556 51.6957 51.5021C51.7059 52.2316 51.8866 52.477 52.5513 52.7667C53.0387 52.9815 53.55 53.094 54.0613 53.2133" stroke="#1E3C70" stroke-linecap="round" stroke-linejoin="round"/>
<path d="M123.053 111.795C123.82 111.775 124.567 111.928 125.358 111.962C125.156 112.811 124.516 113.159 123.953 113.547C122.242 114.74 120.357 115.582 118.376 116.216C117.05 116.639 115.701 116.963 114.306 117.086C113.683 117.14 113.066 117.311 112.445 117.075" stroke="#1E3C70" stroke-linecap="round" stroke-linejoin="round"/>
<path d="M60.8499 28.0703C60.5943 29.3009 60.4988 30.5519 60.717 31.7892C60.8636 32.6209 60.7442 33.4356 60.7545 34.2571C60.7715 35.3956 61.2249 36.4148 61.6987 37.4272C62.3225 38.7566 62.9054 40.0997 63.219 41.5484C63.4201 42.4789 63.7064 43.3891 63.9075 44.3162C64.095 45.1855 64.5893 45.6525 65.4721 45.724C65.8744 45.7581 66.2834 45.8877 66.6788 45.857C67.4321 45.7956 68.0014 46.0615 68.5502 46.5626C69.1808 47.1421 69.7058 47.7488 69.7978 48.6351" stroke="#1E3C70" stroke-linecap="round" stroke-linejoin="round"/>
<path d="M55.4196 92.2832C54.9321 91.956 54.3458 91.9423 53.8072 91.7992C52.1438 91.3492 50.4531 91.0083 48.7794 90.5925C47.058 90.1664 45.3298 89.7744 43.5981 89.3926C43.0187 89.2665 42.4255 88.9631 41.7949 89.1642" stroke="#3DC2EE" stroke-linecap="round" stroke-linejoin="round"/>
<path d="M79.3069 92.4336C78.8501 92.9006 78.666 93.538 78.2706 94.0596C77.49 95.089 76.5049 95.8048 75.3289 96.2479C73.3689 96.9876 71.3577 97.5739 69.35 98.1705C68.7262 98.3579 68.1092 98.5659 67.4888 98.7738C67.0048 98.934 66.6094 98.917 66.2208 98.4807C65.5731 97.7614 64.7107 97.3046 63.9199 96.7593" stroke="#1E3C70" stroke-linecap="round" stroke-linejoin="round"/>
<path d="M106.66 37.2194C106.524 37.1751 106.421 37.083 106.261 37.0558C104.976 36.8478 103.671 36.7013 102.392 36.8478C101.192 36.9842 100.013 36.7115 98.8166 36.8921C97.5008 37.0899 96.1612 37.1444 94.8489 37.3728C93.7376 37.5671 92.6196 37.7511 91.5322 38.0375C90.4721 38.317 89.3983 38.6067 88.4609 39.2305" stroke="#3DC2EE" stroke-linecap="round" stroke-linejoin="round"/>
<path d="M79.1555 36.3672C79.3498 36.9228 79.2612 37.5091 79.285 38.0784C79.3055 38.5522 79.3293 38.9476 79.5816 39.4009C80.0963 40.3213 80.6144 41.2621 80.8598 42.3052C81.0337 43.038 80.778 43.7198 80.3997 44.3061C79.7281 45.3457 78.7669 46.1229 77.8022 46.8831C75.9888 48.3079 73.9163 49.3578 72.1131 50.7997C71.7415 51.0962 71.3154 50.994 71.0155 50.5508C70.6951 50.077 70.3951 49.5896 70.1122 49.0919C70.0099 48.9147 69.9792 48.6965 69.7031 48.7442" stroke="#1E3C70" stroke-linecap="round" stroke-linejoin="round"/>
<path d="M98.6639 95.3992C98.7389 95.2118 98.9059 95.0652 98.9195 94.8198C98.9468 94.7107 98.8377 94.6493 98.7593 94.5982C98.064 94.1312 97.4742 93.5176 96.8879 92.9484C96.3051 92.3859 95.7188 91.8371 95.0881 91.3292C94.1439 90.5691 93.244 89.7578 92.4259 88.8613C92.2078 88.6227 92.0714 88.3227 91.826 88.1046C91.7476 88.0364 91.676 87.9069 91.6794 87.808C91.7203 86.6354 90.8511 86.1957 90.0092 85.7492C89.1468 85.2924 88.2707 85.5276 87.5651 86.0219C86.6516 86.6593 85.8676 87.4706 85.7824 88.7113C85.7449 89.2601 86.0551 89.5397 86.5391 89.3079C87.2447 88.9738 87.9128 88.5716 88.6491 88.2955C89.1774 88.0944 89.6956 87.9171 90.2648 87.9069C90.3943 87.9069 90.4864 87.8421 90.5682 87.7535" stroke="#1E3C70" stroke-linecap="round" stroke-linejoin="round"/>
<path d="M113.751 99.9265C113.062 99.8106 112.367 99.5584 111.692 99.6129C110.979 99.6709 110.305 99.572 109.63 99.4595C108.559 99.2823 107.492 99.0948 106.408 99.1323C104.632 99.1936 102.897 99.5004 101.282 100.281C100.794 100.516 100.419 100.843 100.464 101.484C100.484 101.781 100.402 102.098 100.174 102.34" stroke="#1E3C70" stroke-linecap="round" stroke-linejoin="round"/>
<path d="M56.5772 92.4336C56.117 92.4575 55.6943 92.4336 55.2444 92.7506C54.8388 93.0403 54.2252 93.071 53.7071 93.1631C52.7254 93.3335 51.7641 93.596 50.7994 93.8175C49.3882 94.1414 47.977 94.4618 46.576 94.8197C45.8363 95.0072 45.0694 95.106 44.3535 95.3924C44.2615 95.4299 44.1081 95.4571 44.0059 95.3515" stroke="#3DC2EE" stroke-linecap="round" stroke-linejoin="round"/>
<path d="M100.324 24.2457C100.273 24.2116 100.208 24.1911 100.174 24.1434C99.4242 23.0219 98.4459 23.0765 97.2596 23.4548C96.5711 23.673 95.9677 24.1093 95.5587 24.7093C95.1939 25.241 94.7133 25.5819 94.1338 25.7421C93.5066 25.9125 93.0465 26.2977 92.6954 26.7749C92.334 27.2658 91.8807 27.6101 91.366 27.8589C90.2854 28.377 89.7536 29.219 89.6582 30.3848C89.6411 30.5791 89.74 30.7256 89.8116 30.8892" stroke="#1E3C70" stroke-linecap="round" stroke-linejoin="round"/>
<path d="M127.327 125.219C127.76 125.662 127.627 126.255 127.713 126.78C127.829 127.472 127.859 128.184 127.873 128.89C127.91 131.048 127.607 133.141 126.567 135.073C126.301 135.571 125.978 136.035 125.725 136.539C125.589 136.808 125.446 137.119 125.661 137.442C125.739 137.562 125.804 137.429 125.865 137.466" stroke="#1E3C70" stroke-linecap="round" stroke-linejoin="round"/>
<path d="M96.7567 38.9305C97.493 39.0975 98.2361 39.2475 98.969 39.4384C100.397 39.8099 101.819 40.2122 103.247 40.5837C103.417 40.628 103.598 40.6928 103.806 40.5837C103.966 40.4985 104.212 40.5019 104.399 40.553C105.36 40.8019 106.342 40.9075 107.317 41.0541C108.169 41.1802 109.018 41.3404 109.88 41.4223C110.061 41.4393 110.201 41.4734 110.388 41.4154C110.623 41.3404 110.94 41.4325 111.073 41.5722C111.479 41.9915 112.055 41.8552 112.502 42.104C112.597 42.1585 112.716 42.087 112.798 42.0086C113.122 41.7018 113.405 41.3541 113.446 40.9007C113.568 39.5815 113.531 38.2794 113.016 37.0216C112.924 36.7966 112.819 36.6057 112.645 36.4796C111.731 35.8251 110.722 35.3377 109.73 34.8196C109.362 34.6287 108.991 34.4992 108.524 34.5912C107.907 34.7139 107.32 34.3628 106.72 34.2367C105.422 33.964 104.12 33.7799 102.794 33.7526C101.229 33.7186 99.6711 33.7867 98.1168 33.9606C97.7452 34.0015 97.3805 34.0935 97.0089 34.1549C96.859 34.1787 96.6987 34.2265 96.559 34.1992C95.2023 33.9367 93.9547 34.448 92.6901 34.7684C91.9913 34.9457 91.3198 35.2184 90.6653 35.5456C90.3551 35.699 90.2051 36.0331 89.8711 36.1183" stroke="#3DC2EE" stroke-linecap="round" stroke-linejoin="round"/>
<path d="M125.116 112.9C125.538 113.626 125.719 114.454 126.046 115.225C126.408 116.073 126.759 116.936 127.144 117.771C127.993 119.615 128.064 121.49 127.563 123.406C127.444 123.859 127.4 124.316 127.338 124.769C127.28 125.226 127.014 125.488 126.708 125.781C126.326 125.522 126.234 125.164 126.121 124.82C125.583 123.177 125.048 121.534 124.512 119.891C124.448 119.687 124.376 119.486 124.209 119.339" stroke="#1E3C70" stroke-linecap="round" stroke-linejoin="round"/>
<path d="M39.1797 85.2925C39.7421 86.1515 39.9262 87.157 40.2296 88.1115C40.9079 90.2658 41.5453 92.4337 42.1964 94.5949C42.3532 95.113 42.4861 95.6379 42.6566 96.1526C42.7452 96.4219 42.6532 96.6605 42.602 96.9094" stroke="#3DC2EE" stroke-linecap="round" stroke-linejoin="round"/>
<path d="M79.1554 39.1313C78.2555 40.8221 76.7387 41.8583 75.1843 42.8537C73.7629 43.7638 72.2801 44.5546 70.7052 45.158C70.0576 45.4068 69.3861 45.5977 68.6975 45.7204C68.5305 45.7511 68.3634 45.7817 68.2441 45.9215" stroke="#1E3C70" stroke-linecap="round" stroke-linejoin="round"/>
<path d="M30.4283 96.0029C29.675 95.8358 29.2455 95.27 28.816 94.6973C28.6114 94.4246 28.5228 94.186 28.6592 93.8349C28.8637 93.3134 29.3852 93.0441 29.8147 93.402C30.5101 93.9815 31.3111 94.394 31.9963 94.9871C32.661 95.5597 33.4825 95.8256 34.3517 95.9586C35.3266 96.1051 36.2913 96.3233 37.2696 96.4494C38.3774 96.5926 39.4614 96.9607 40.5862 96.8891C41.118 96.855 41.6259 96.8891 42.1474 96.9539C42.427 96.988 42.6894 96.9778 42.9621 97.1448C43.2928 97.3425 43.6609 97.2198 43.9575 96.9607" stroke="#1E3C70" stroke-linecap="round" stroke-linejoin="round"/>
<path d="M111.488 99.4247C111.082 99.0736 110.55 99.0634 110.077 98.9918C108.781 98.8009 107.476 98.6203 106.156 98.668C104.548 98.7259 102.963 98.9339 101.432 99.4349C100.955 99.5917 100.532 99.4418 100.13 99.2986C99.8913 99.2168 99.622 99.0975 99.4072 98.8793C98.6778 98.1362 97.8699 97.4852 96.9018 97.0557C95.8247 96.5784 94.7032 96.3194 93.5306 96.2512C93.2102 96.2342 92.8932 96.1864 92.5762 96.1523" stroke="#1E3C70" stroke-linecap="round" stroke-linejoin="round"/>
<path d="M103.443 111.239C103.357 111.222 103.252 111.164 103.194 111.195C102.359 111.638 101.541 111.27 100.729 111.127C100.208 111.035 99.7135 110.816 99.1681 110.833C98.6432 110.851 98.2512 111.11 98.1114 111.539C97.9615 111.999 98.183 112.282 98.5989 112.712C99.2977 113.427 100.238 113.434 101.084 113.68C101.653 113.847 102.216 114.044 102.781 114.222C102.942 114.273 103.088 114.276 103.242 114.304" stroke="#1E3C70" stroke-linecap="round" stroke-linejoin="round"/>
<path d="M106.258 86.6531C106.575 87.5598 107.325 88.0404 108.126 88.3983C109.568 89.046 110.959 88.8449 112.298 88.02C113.096 87.5291 113.764 86.9121 114.401 86.2474C114.568 86.0736 114.807 85.8554 114.691 85.6032C114.572 85.3407 114.255 85.3782 114.003 85.3987C112.503 85.5214 111.074 85.2044 109.677 84.6931C108.961 84.4306 108.289 84.0829 107.618 83.7318C107.25 83.5409 106.861 83.4591 106.459 83.4387C105.818 83.4046 105.443 84.1238 105.767 84.8396C105.903 85.143 106.057 85.4532 106.306 85.7055C106.473 85.8759 106.681 86.0361 106.715 86.302" stroke="#1E3C70" stroke-linecap="round" stroke-linejoin="round"/>
<path d="M88.3078 126.981C88.4646 127.85 88.4408 128.723 88.3556 129.595C88.2499 130.673 88.1442 131.753 87.909 132.813C87.5102 134.606 86.583 135.953 84.7866 136.58C84.6776 136.617 84.5514 136.617 84.4355 136.634" stroke="#1E3C70" stroke-linecap="round" stroke-linejoin="round"/>
<path d="M101.284 31.8913C100.967 31.5334 100.507 31.6629 100.125 31.6118C98.7545 31.4209 97.3842 31.4925 96.0003 31.6697C94.3709 31.8777 92.837 32.3481 91.3269 32.9514C90.9315 33.1082 90.6759 33.5718 90.168 33.5036" stroke="#3DC2EE" stroke-linecap="round" stroke-linejoin="round"/>
<path d="M67.0352 112.801C67.3522 112.93 67.3863 113.251 67.4817 113.506C68.46 116.216 69.8951 118.677 71.5074 121.05C71.7187 121.363 72.0016 121.541 72.3527 121.609C72.8675 121.309 73.0754 120.77 73.4197 120.344" stroke="#1E3C70" stroke-linecap="round" stroke-linejoin="round"/>
<path d="M111.588 92.7374C110.794 91.6091 109.993 90.4842 108.52 90.1741C108.162 90.0991 107.798 90.1741 107.47 90.2865C107.034 90.4331 106.69 90.3615 106.359 90.0752C106.233 89.9661 106.104 89.8434 105.957 89.7786C105.674 89.6525 105.374 89.5912 105.105 89.823C104.836 90.0547 104.559 90.2831 104.304 90.532C104.171 90.6615 104.014 90.7297 103.847 90.7774C103.24 90.9581 103.111 91.1864 103.135 91.8341C103.152 92.2295 103.233 92.6624 102.893 92.9896" stroke="#1E3C70" stroke-linecap="round" stroke-linejoin="round"/>
<path d="M108.872 34.4547C108.791 33.9161 108.467 33.5718 107.966 33.4014C106.486 32.9003 105 32.4401 103.442 32.222C102.839 32.1367 102.225 32.0924 101.629 31.939C101.288 31.8538 101.008 32.0958 100.674 32.1061C100.207 32.1197 99.737 32.1708 99.2666 32.1947C97.6543 32.2731 96.0624 32.4913 94.4876 32.8424C93.4684 33.0707 92.439 33.2616 91.4232 33.5105C91.1539 33.5752 91.0073 33.4389 90.8164 33.3468" stroke="#3DC2EE" stroke-linecap="round" stroke-linejoin="round"/>
<path d="M85.9931 79.0063C85.7647 79.1359 85.6011 79.32 85.4886 79.5586C84.149 82.4764 82.8128 85.3943 81.4561 88.3053C81.33 88.5746 81.3641 88.8064 81.4152 89.0621" stroke="#1E3C70" stroke-linecap="round" stroke-linejoin="round"/>
<path d="M99.7702 96.4569C99.3884 96.116 98.9726 95.7887 98.5806 95.4956C98.0488 95.0968 97.3159 94.9332 96.6035 94.8377C95.1923 94.6502 93.7811 94.64 92.3801 94.8582C91.0712 95.0627 89.7452 95.2263 88.5078 95.7513" stroke="#1E3C70" stroke-linecap="round" stroke-linejoin="round"/>
<path d="M48.2288 68.7495C47.9322 68.9336 47.5777 68.9984 47.2777 69.162C46.3847 69.6494 45.9109 70.4743 45.6143 71.4151C44.9155 73.641 43.9815 75.7374 42.6283 77.6735C41.817 78.8325 40.8557 79.7631 39.7309 80.5675C39.6115 80.6527 39.465 80.7039 39.332 80.7721" stroke="#1E3C70" stroke-linecap="round" stroke-linejoin="round"/>
<path d="M97.8586 93.9917C97.5075 94.3087 97.1121 94.2371 96.6996 94.1451C95.0736 93.794 93.4204 93.6713 91.774 93.8622C90.7889 93.9781 89.797 94.1724 88.8971 94.6803C88.4505 94.9325 88.2119 95.3791 87.8029 95.6552C87.4177 95.9142 87.087 96.2653 86.6882 96.4937C85.9622 96.913 85.1918 96.8584 84.4316 96.5551" stroke="#1E3C70" stroke-linecap="round" stroke-linejoin="round"/>
<path d="M111.888 33.7491C111.848 34.4035 112.127 34.7649 112.741 34.9626C113.174 35.1023 113.467 35.4739 113.845 35.7125C114.046 35.8386 114.21 36.0193 114.404 36.159C114.612 36.309 114.868 36.401 115.103 36.3022C115.382 36.1829 115.512 35.9341 115.57 35.6102C115.73 34.7546 115.362 33.9911 115.198 33.1969C115.024 32.3413 114.752 31.5061 114.646 30.6301C114.619 30.4085 114.53 30.187 114.448 29.9756C114.332 29.6791 114.053 29.6143 113.801 29.6825C113.003 29.8904 112.332 30.3233 111.844 30.988C111.421 31.5641 111.091 32.1913 111.077 32.9446C111.07 33.2275 110.46 33.582 109.976 33.5923C109.625 33.5991 109.257 33.6638 108.923 33.5377C108.735 33.4661 108.667 33.5582 108.568 33.6502" stroke="#3DC2EE" stroke-linecap="round" stroke-linejoin="round"/>
<path d="M73.522 120.242C73.8185 120.228 73.8458 120.467 73.8151 120.644C73.5526 122.11 73.4095 123.586 73.3038 125.069C73.2152 126.292 73.1163 127.513 73.1129 128.74C73.1129 129.196 73.1777 129.646 72.9459 130.11C72.8095 130.386 72.9391 130.802 72.9697 131.153C73.0413 131.958 73.1061 132.759 73.0686 133.566C73.0686 133.635 73.0959 133.733 73.0652 133.764C72.5198 134.241 72.8913 134.821 72.9425 135.325C73.0175 136.055 73.2527 136.771 73.4197 137.49" stroke="#1E3C70" stroke-linecap="round" stroke-linejoin="round"/>
<path d="M109.827 54.8218C109.967 55.0365 109.772 55.1354 109.677 55.2751C108.498 57.0102 107.226 58.677 105.9 60.2996C104.929 61.4892 103.93 62.6516 102.935 63.8208C102.754 64.0321 102.549 64.2366 102.232 64.2264" stroke="#1E3C70" stroke-linecap="round" stroke-linejoin="round"/>
<path d="M124.086 119.086C123.697 119.761 123.793 120.518 123.694 121.248C123.489 122.727 123.65 124.261 123.009 125.675C122.777 126.19 122.31 126.419 121.901 126.732C121.594 126.971 121.226 127.063 120.895 127.237C120.66 127.356 120.435 127.509 120.312 127.799C121.158 128.058 121.523 128.781 121.887 129.452C122.508 130.601 122.774 131.873 122.9 133.168C122.92 133.366 122.866 133.57 122.825 133.775C122.733 134.252 122.835 134.743 123.067 135.172C123.172 135.363 123.203 135.533 123.207 135.731C123.22 136.317 123.237 136.904 123.254 137.49" stroke="#1E3C70" stroke-linecap="round" stroke-linejoin="round"/>
<path d="M50.392 118.834C50.1329 120.539 50.1602 122.247 50.2761 123.965C50.3374 124.854 50.392 125.744 50.4976 126.627C50.5726 127.234 50.6919 127.833 50.7942 128.437" stroke="#1E3C70" stroke-linecap="round" stroke-linejoin="round"/>
<path d="M81.5178 19.6201C81.9166 21.2154 81.8859 22.8379 81.7018 24.4469C81.5655 25.6433 81.3848 26.8398 81.1292 28.0226C81.0474 28.4078 81.0269 28.8066 80.8633 29.1747" stroke="#1E3C70" stroke-linecap="round" stroke-linejoin="round"/>
<path d="M94.7441 128.239C94.9623 129.112 95.1702 129.985 95.3986 130.854C95.7156 132.064 96.1724 133.226 96.6701 134.368C97.0996 135.357 97.6688 136.28 98.1563 137.245C98.2415 137.416 98.3131 137.528 98.5142 137.494" stroke="#1E3C70" stroke-linecap="round" stroke-linejoin="round"/>
<path d="M107.063 115.061C107.175 115.814 107.295 116.557 107.08 117.327C106.947 117.808 106.933 118.33 107.107 118.834C107.175 119.028 107.22 119.216 107.465 119.182C108.859 118.984 110.271 118.837 111.487 118.03C112.442 117.396 112.568 116.393 112.773 115.371C112.963 114.409 112.8 113.489 112.793 112.548" stroke="#1E3C70" stroke-linecap="round" stroke-linejoin="round"/>
<path d="M96.4521 54.1675C96.1623 55.398 95.5692 56.5127 95.017 57.6239C94.1546 59.3658 93.2002 61.0735 92.0582 62.6518C91.5878 63.2994 91.8162 63.855 92.0412 64.4175C92.273 65.0038 92.8831 64.997 93.4763 64.7584C93.7115 64.6629 93.9228 64.5095 94.1887 64.4754" stroke="#1E3C70" stroke-linecap="round" stroke-linejoin="round"/>
<path d="M123.002 126.125C123.295 126.695 123.37 127.329 123.489 127.939C123.789 129.463 123.915 131.01 123.902 132.561C123.895 133.267 123.817 133.969 123.755 134.675C123.735 134.906 123.639 135.114 123.408 135.227" stroke="#1E3C70" stroke-linecap="round" stroke-linejoin="round"/>
<path d="M82.8738 122.505C82.5091 122.89 82.5671 123.405 82.4853 123.865C82.1717 125.624 81.9364 127.393 81.5922 129.148C81.5069 129.592 81.357 130.164 81.8683 130.553C82.1853 130.795 82.5466 130.849 82.867 130.686C83.2181 130.509 83.3988 130.12 83.4124 129.745C83.4397 128.958 83.3715 128.17 83.3852 127.383C83.392 126.94 83.4738 126.496 83.6306 126.077C83.6408 126.05 83.6919 126.036 83.7294 126.029C83.7431 126.029 83.7635 126.06 83.7806 126.077" stroke="#1E3C70" stroke-linecap="round" stroke-linejoin="round"/>
<path d="M40.9369 96.6061C40.7051 96.3573 40.3915 96.3164 40.0813 96.2516C38.1792 95.863 36.284 95.4608 34.3955 95.0074C33.7649 94.8574 33.1207 94.7552 32.4867 94.6018C32.2855 94.5541 32.0572 94.5779 31.8867 94.745" stroke="#3DC2EE" stroke-linecap="round" stroke-linejoin="round"/>
<path d="M101.834 37.0181C102.032 37.4851 102.492 37.5362 102.891 37.6691C105.311 38.4702 107.656 39.4383 109.875 40.6961C110.138 40.8461 110.485 40.9551 110.533 41.3437" stroke="#3DC2EE" stroke-linecap="round" stroke-linejoin="round"/>
<path d="M85.1366 85.8477C85.3377 86.2499 85.1809 86.6521 85.1366 87.0543C84.8877 89.4643 84.7957 91.8777 84.9388 94.2945C84.9491 94.4478 85.0036 94.5978 85.0377 94.7478" stroke="#1E3C70" stroke-linecap="round" stroke-linejoin="round"/>
<path d="M121.043 72.6221C121.009 73.7299 120.862 74.8309 120.831 75.9422C120.79 77.4522 120.763 78.9589 120.838 80.4689C120.855 80.8064 120.842 81.1473 120.944 81.4745" stroke="#1E3C70" stroke-linecap="round" stroke-linejoin="round"/>
<path d="M75.6848 24.4473C75.5008 24.8665 75.2451 25.1529 74.7952 25.3847C74.2634 25.6574 73.81 26.1039 73.2749 26.4141C71.8773 27.2288 70.4013 27.7946 68.7992 28.0844C67.4767 28.323 66.1575 28.4014 64.8247 28.3673C63.7305 28.34 62.6431 28.1934 61.5557 28.0775C60.8535 28.0026 60.2093 27.798 59.5957 27.464" stroke="#1E3C70" stroke-linecap="round" stroke-linejoin="round"/>
<path d="M99.9711 106.614C100.247 105.547 100.019 104.589 99.3166 103.751C98.911 103.267 98.4031 102.906 97.8577 102.595C97.6055 102.452 97.3839 102.254 97.1453 102.108C96.7192 101.845 96.2283 101.958 95.8023 102.149C94.9364 102.541 94.0774 102.96 93.2355 103.403C91.8516 104.129 90.4506 104.187 89.0053 103.608C88.7701 103.512 88.5042 103.502 88.252 103.451" stroke="#1E3C70" stroke-linecap="round" stroke-linejoin="round"/>
<path d="M106.46 49.3408C106.214 49.3647 106.16 49.5862 106.061 49.7465C105.11 51.2974 103.862 52.5109 102.185 53.2677C101.316 53.6597 100.395 53.779 99.4682 53.9255C98.5308 54.0721 97.59 54.0483 96.6526 54.0721C95.5073 54.0994 94.4983 53.779 93.6359 53.012C93.5269 52.9132 93.486 52.7768 93.4928 52.6575C93.5337 51.911 93.3701 51.2258 92.8792 50.6464C92.5179 50.2237 92.9678 49.9373 93.0326 49.5897" stroke="#1E3C70" stroke-linecap="round" stroke-linejoin="round"/>
<path d="M111.991 92.8361C110.839 92.8736 109.72 92.6213 108.626 92.3145C108.224 92.2021 107.856 91.9532 107.416 92.0384C107.218 92.0759 106.99 92.0248 106.854 92.2805C106.694 92.577 106.963 92.6963 107.075 92.8259C107.392 93.1906 107.767 93.5076 108.118 93.8416C108.466 94.1723 108.664 94.5916 108.769 95.0483C108.913 95.6823 108.698 95.863 108.067 95.7062C107.709 95.6176 107.368 95.471 107.072 95.2835C106.673 95.0347 106.451 95.154 106.261 95.4983C106.059 95.8562 105.794 96.163 105.507 96.4561C105.187 96.7868 104.805 96.9368 104.348 96.9061C104.099 96.889 103.919 96.8959 103.875 97.2538C103.837 97.564 103.626 97.8162 103.244 97.9219C102.62 98.0957 102.017 98.3514 101.355 98.3616" stroke="#1E3C70" stroke-linecap="round" stroke-linejoin="round"/>
<path d="M66.4295 98.8687C65.8194 99.7856 64.8513 100.062 63.8628 100.27C62.8367 100.488 61.7971 100.617 60.7472 100.696C60.3109 100.726 59.8746 100.747 59.4383 100.788C58.9576 100.832 58.5759 100.713 58.2793 100.328" stroke="#1E3C70" stroke-linecap="round" stroke-linejoin="round"/>
<path d="M85.4401 101.586C84.6766 101.742 83.9301 101.521 83.1768 101.476C82.5802 101.439 82.0008 101.258 81.4145 101.153C80.8554 101.05 80.3884 101.432 79.9658 101.746C79.2124 102.308 78.4148 102.806 77.6478 103.351C77.5183 103.443 77.3785 103.457 77.2422 103.498" stroke="#1E3C70" stroke-linecap="round" stroke-linejoin="round"/>
<path d="M79.3565 34.3046C80.2325 34.1307 80.8154 33.3263 80.8665 32.2423C80.8904 31.7412 80.7063 31.3288 80.3586 30.9879C80.0757 30.7084 79.636 30.6982 79.3599 30.9879C78.9474 31.4242 78.7906 31.9492 78.9542 32.5423C79.0974 33.0536 79.1656 33.5785 79.2712 34.0967C79.3224 34.3489 79.2508 34.3966 79.0565 34.4546C78.8179 34.5261 78.5793 34.6045 78.3543 34.7068C77.9418 34.8909 77.7816 35.3476 77.9521 35.8112C78.102 36.2169 78.5281 36.4044 78.961 36.3259C79.2031 36.2816 79.3599 36.1351 79.2951 35.968C79.111 35.484 79.3326 34.9761 79.1587 34.5023" stroke="#1E3C70" stroke-linecap="round" stroke-linejoin="round"/>
<path d="M81.0137 42.6528C81.5693 42.7994 81.9613 43.2187 82.3567 43.5732C83.2532 44.3845 84.0986 45.2503 84.8417 46.2183C85.6904 47.3228 85.5848 48.4408 84.9814 49.5896C84.8894 49.7668 84.7598 49.927 84.7837 50.1452" stroke="#1E3C70" stroke-linecap="round" stroke-linejoin="round"/>
<path d="M45.0614 113.049C44.5637 113.533 44.5807 114.181 44.4103 114.795C44.083 115.971 43.4661 117.068 42.7434 118.074C41.8947 119.253 40.8345 120.204 39.5835 120.947C39.2495 121.145 38.82 121.036 38.5234 121.319" stroke="#1E3C70" stroke-linecap="round" stroke-linejoin="round"/>
<path d="M100.679 107.319C100.216 106.566 99.408 106.515 98.6649 106.371C98.0888 106.262 97.557 106.106 97.1037 105.713C96.9673 105.594 96.7799 105.506 96.6026 105.465C96.2686 105.39 96.0163 105.567 95.7982 105.809C95.5834 106.048 95.6993 106.324 95.8118 106.508C96.3879 107.445 97.0457 108.301 98.2627 108.423C98.3785 108.434 98.4774 108.451 98.5626 108.529" stroke="#1E3C70" stroke-linecap="round" stroke-linejoin="round"/>
<path d="M63.2134 42.0972C62.6714 42.3869 62.6646 42.9971 62.4123 43.4572C61.8295 44.5105 61.0727 45.4479 60.4455 46.4705C60.0706 47.0773 60.1558 47.4318 60.8 47.7795C61.4102 48.1101 62.0749 48.3181 62.7089 48.584C62.968 48.693 63.3054 48.7101 63.3634 49.085" stroke="#1E3C70" stroke-linecap="round" stroke-linejoin="round"/>
<path d="M55.8229 69.1523C55.5604 69.1967 55.4343 69.4012 55.3218 69.6057C54.1628 71.7157 53.0073 73.8291 51.8517 75.9425C51.6949 76.2254 51.562 76.5254 51.1973 76.597" stroke="#1E3C70" stroke-linecap="round" stroke-linejoin="round"/>
<path d="M103.846 40.8906C104.497 41.2213 105.219 41.3303 105.908 41.5451C107.449 42.0291 109.02 42.2575 110.636 42.1962C110.943 42.1825 111.229 42.0939 111.44 41.8451" stroke="#3DC2EE" stroke-linecap="round" stroke-linejoin="round"/>
<path d="M43.3496 101.839C43.8507 102.084 43.8166 102.654 44.0314 103.059C44.6926 104.31 45.7937 104.77 47.0719 105.009C47.9616 105.173 48.8513 105.336 49.7341 105.52C49.8807 105.551 50.0034 105.68 50.1364 105.766" stroke="#1E3C70" stroke-linecap="round" stroke-linejoin="round"/>
<path d="M115.762 130.147C116.147 132.142 116.91 134.01 117.674 135.878C117.861 136.334 118.086 136.777 118.271 137.238C118.342 137.418 118.427 137.521 118.628 137.486" stroke="#1E3C70" stroke-linecap="round" stroke-linejoin="round"/>
<path d="M90.567 118.18C90.6011 119.151 90.6692 120.126 90.659 121.098C90.6488 122.154 90.5704 123.211 90.5159 124.264C90.4954 124.649 90.434 125.035 90.4204 125.42C90.4 126.023 91.0272 126.729 91.6237 126.773C92.4452 126.834 93.2667 126.882 94.0882 126.923C94.187 126.926 94.2893 126.862 94.3882 126.828" stroke="#1E3C70" stroke-linecap="round" stroke-linejoin="round"/>
<path d="M111.992 99.7755C111.675 100.26 111.542 100.778 111.899 101.279C112.288 101.821 112.748 102.271 113.502 102.301C114.023 102.322 114.483 102.189 114.906 101.933C115.843 101.371 116.764 100.781 117.708 100.188C117.636 100.069 117.602 99.9425 117.52 99.8812C116.648 99.2165 115.918 98.3916 115.056 97.72C114.255 97.0962 113.628 97.0962 112.949 97.5632C112.581 97.8155 112.418 98.1666 112.441 98.6199C112.459 98.954 112.445 99.2914 112.445 99.6255" stroke="#1E3C70" stroke-linecap="round" stroke-linejoin="round"/>
<path d="M111.688 45.4175C111.851 45.8947 112.012 46.3719 112.233 46.8287C112.305 46.9787 112.393 47.1559 112.536 47.115C112.898 47.0093 113.177 47.115 113.389 47.3843C113.62 47.6706 113.74 48.0251 113.678 48.3831C113.648 48.5637 113.692 48.6455 113.798 48.7376C114.156 49.0512 114.49 49.3886 114.895 49.6545C115.788 50.2408 115.969 50.7658 115.717 51.9077C115.379 53.4484 114.606 54.8017 113.995 56.2299C113.736 56.8367 113.45 57.4332 113.194 58.0434C112.813 58.9603 112.615 59.0728 111.582 58.8955" stroke="#1E3C70" stroke-linecap="round" stroke-linejoin="round"/>
<path d="M66.6311 91.5776C66.2119 91.8912 65.6937 91.864 65.2199 91.9662C63.7031 92.2901 62.1691 92.5389 60.6488 92.8457C60.2705 92.9241 59.8308 92.8866 59.541 93.2377" stroke="#3DC2EE" stroke-linecap="round" stroke-linejoin="round"/>
<path d="M44.3573 114.007C43.8631 114.28 43.8222 114.828 43.6108 115.268C43.062 116.39 42.3053 117.347 41.4429 118.234C40.6657 119.031 39.8271 119.771 39.125 120.644C39.0227 120.77 38.9579 120.889 38.9784 121.049" stroke="#1E3C70" stroke-linecap="round" stroke-linejoin="round"/>
<path d="M42.5961 98.167C42.5552 98.5249 42.6063 98.876 42.695 99.2237C42.8688 99.8918 43.0051 100.574 43.2097 101.231C43.3426 101.661 43.2233 101.988 42.9472 102.288C41.5599 103.819 41.0042 105.704 40.6429 107.67C40.5713 108.062 40.6395 108.465 40.8372 108.826" stroke="#1E3C70" stroke-linecap="round" stroke-linejoin="round"/>
<path d="M106.059 135.779C106.798 136.178 107.627 136.304 108.424 136.529C109.375 136.798 110.354 136.982 111.281 137.306C111.826 137.497 112.354 137.463 112.896 137.487" stroke="#1E3C70" stroke-linecap="round" stroke-linejoin="round"/>
<path d="M103.643 23.6428C103.902 23.0974 104.29 22.6543 104.853 22.4497C105.286 22.2929 105.47 22.6781 105.654 22.9883C105.838 23.2985 105.903 23.6701 106.148 23.9462C106.557 23.9598 106.782 23.6462 107.055 23.4349C107.269 23.2678 107.457 23.2474 107.607 23.4485C107.941 23.8882 108.241 24.3382 108.128 24.9551C108.07 25.2824 107.931 25.4937 107.665 25.6573C107.471 25.7766 107.286 25.913 107.113 26.0289C107.372 26.4925 107.852 26.3493 108.224 26.4379C109.018 26.6322 109.499 27.1435 109.819 27.8219C110.313 28.8581 110.647 29.9591 111.026 31.0397C111.104 31.2647 111.186 31.459 111.384 31.5919" stroke="#1E3C70" stroke-linecap="round" stroke-linejoin="round"/>
<path d="M42.0918 104.401C42.494 104.807 42.8656 105.28 43.5541 104.933C43.7757 104.82 44.1029 104.847 44.2427 104.97C44.9756 105.611 45.9232 105.679 46.7754 106C46.9697 106.071 47.1742 106.136 47.3753 106.211C48.0605 106.46 48.4354 107.07 48.3843 107.772C48.3127 108.791 48.2786 109.817 48.2275 110.84C48.1866 111.685 48.3127 111.716 49.1853 111.835C49.8159 111.921 50.4602 111.897 51.0942 111.955C51.384 111.978 51.6669 112.077 51.9498 112.149C52.1884 112.207 52.0964 112.408 52.0964 112.551C52.1032 113.41 51.8918 114.238 51.6907 115.063C51.418 116.175 50.9647 117.242 50.7874 118.383C50.7772 118.458 50.6613 118.52 50.5931 118.585" stroke="#1E3C70" stroke-linecap="round" stroke-linejoin="round"/>
<path d="M117.624 107.82C117.644 107.674 117.59 107.544 117.471 107.473C116.479 106.852 115.48 106.191 114.3 106.051C113.929 106.007 113.455 105.942 113.046 106.157C112.661 106.358 112.208 106.443 111.853 106.678C111.294 107.053 111.246 107.701 111.642 108.277C111.836 108.557 112.013 108.846 112.197 109.129" stroke="#1E3C70" stroke-linecap="round" stroke-linejoin="round"/>
<path d="M90.2167 77.7489C91.062 77.0365 91.2461 76.0548 91.3177 75.0322C91.3518 74.5481 91.2836 74.0607 90.8166 73.7812C90.3394 73.4948 89.5179 73.6073 89.0577 73.9755C88.3555 74.5379 88.1851 75.3083 88.2669 76.1366C88.3214 76.6956 88.3623 77.2649 88.5805 77.7966C88.6044 77.858 88.6214 77.9364 88.6044 77.9943C88.4816 78.4375 88.5839 78.8704 88.6589 79.3033" stroke="#1E3C70" stroke-linecap="round" stroke-linejoin="round"/>
<path d="M75.232 113.354C74.9968 114.444 74.7786 115.535 74.5229 116.622C74.24 117.816 74.0389 119.032 73.623 120.195" stroke="#1E3C70" stroke-linecap="round" stroke-linejoin="round"/>
<path d="M83.1777 130.751C83.5084 131.051 83.4607 131.487 83.5152 131.859C83.7197 133.308 83.9242 134.76 83.8902 136.232C83.8799 136.648 84.0163 137.064 83.9822 137.49" stroke="#1E3C70" stroke-linecap="round" stroke-linejoin="round"/>
<path d="M103.443 101.535C103.812 102.006 104.159 102.493 104.555 102.94C105.553 104.068 106.767 104.855 108.274 105.094C108.747 105.169 109.245 105.104 109.729 105.104C109.784 103.921 109.092 102.834 108.021 102.391C107.643 102.234 107.261 102.091 106.965 101.787C106.746 101.566 106.375 101.627 106.164 101.382" stroke="#1E3C70" stroke-linecap="round" stroke-linejoin="round"/>
<path d="M82.828 130.802C82.7701 132.561 82.0338 134.139 81.5259 135.782C81.3554 136.338 81.2259 136.907 81.168 137.49" stroke="#1E3C70" stroke-linecap="round" stroke-linejoin="round"/>
<path d="M51.6 112.147C51.0921 113.292 50.7751 114.502 50.5058 115.719C50.3251 116.541 50.1581 117.373 50.182 118.232C50.1888 118.497 50.1786 118.705 50.4956 118.76" stroke="#1E3C70" stroke-linecap="round" stroke-linejoin="round"/>
<path d="M101.834 121.196C102.008 122.086 102.26 122.959 102.417 123.855C102.526 124.499 102.417 125.106 102.369 125.72C102.315 126.384 102.223 127.022 102.417 127.69C102.509 128.007 102.41 128.378 102.468 128.743C102.608 129.602 102.737 130.471 102.696 131.354C102.673 131.866 102.523 132.367 102.512 132.864C102.492 133.751 102.202 134.644 102.642 135.54C102.874 136.011 102.727 136.6 102.737 137.139C102.737 137.255 102.737 137.374 102.737 137.49" stroke="#1E3C70" stroke-linecap="round" stroke-linejoin="round"/>
<path d="M96.4029 34.2539C96.0347 34.6902 95.4723 34.6595 94.9916 34.7959C93.5736 35.1981 92.1556 35.6038 90.7751 36.1253C90.5092 36.2276 90.3251 36.1969 90.1172 36.0639" stroke="#3DC2EE" stroke-linecap="round" stroke-linejoin="round"/>
<path d="M42.144 109.077C41.9974 109.013 41.8679 109.122 41.6804 109.054C41.1554 108.863 40.6509 108.914 40.1192 109.262C38.8511 110.09 37.9581 111.15 37.6785 112.65C37.6001 113.073 37.6717 113.519 37.6649 113.955C37.6615 114.191 37.6342 114.426 37.6172 114.661" stroke="#1E3C70" stroke-linecap="round" stroke-linejoin="round"/>
<path d="M99.1168 113.404C98.9157 113.52 98.7043 113.626 98.5169 113.759C97.8863 114.205 97.934 114.543 98.6123 114.921C99.2054 115.248 99.819 115.507 100.477 115.671C101.121 115.831 101.69 116.155 102.239 116.523C102.389 116.626 102.529 116.772 102.74 116.724" stroke="#1E3C70" stroke-linecap="round" stroke-linejoin="round"/>
<path d="M120.438 127.936C120.291 128.212 120.431 128.474 120.547 128.685C121.352 130.131 121.928 131.658 122.306 133.263C122.361 133.488 122.466 133.734 122.698 133.87" stroke="#1E3C70" stroke-linecap="round" stroke-linejoin="round"/>
<path d="M105.351 77.2991C105.037 76.9241 104.768 76.5048 104.342 76.2492C103.749 75.8913 103.21 75.8879 102.689 76.2015C101.98 76.6276 101.942 77.4695 102.44 78.2024C102.651 78.5126 102.883 78.8978 103.2 79.0341C103.803 79.2966 104.376 79.6545 104.966 79.8624C105.665 80.1079 106.19 79.5113 106.507 78.8569" stroke="#1E3C70" stroke-linecap="round" stroke-linejoin="round"/>
<path d="M109.676 96.8584C109.155 97.0391 108.599 96.9982 108.064 97.1004C106.929 97.322 105.766 97.397 104.642 97.7004C104.359 97.7753 104.031 97.7481 103.738 97.6117" stroke="#1E3C70" stroke-linecap="round" stroke-linejoin="round"/>
<path d="M90.3193 59.0928C89.1092 60.9403 87.715 62.6685 86.7435 64.6728C86.7094 64.7478 86.7094 64.8092 86.6992 64.8774" stroke="#1E3C70" stroke-linecap="round" stroke-linejoin="round"/>
<path d="M103.995 79.2078C103.995 78.7647 103.954 78.267 104.452 78.0625C104.908 77.875 105.45 77.7796 105.842 78.1613C106.282 78.5874 106.729 78.7613 107.356 78.8533C108.048 78.959 108.522 79.593 108.774 80.3088C109.036 81.0553 108.767 81.5973 108.017 81.8223C107.318 82.0336 106.804 81.72 106.367 81.2564C106.149 81.0247 105.941 80.7997 105.655 80.6633" stroke="#1E3C70" stroke-linecap="round" stroke-linejoin="round"/>
<path d="M53.5595 107.067C52.8982 107.251 52.2096 107.292 51.5517 107.194C51.0677 107.119 50.6075 107.108 50.1405 107.176C49.6701 107.245 49.5338 107.436 49.5372 107.923C49.5372 108.325 49.5678 108.727 49.5849 109.13" stroke="#1E3C70" stroke-linecap="round" stroke-linejoin="round"/>
<path d="M112.292 86.7002C111.808 86.7786 111.338 86.9082 110.833 86.9184C109.913 86.9354 109.044 86.6662 108.174 86.4719C107.329 86.2844 106.569 86.3594 105.805 86.7002C105.352 86.9014 104.837 86.9866 104.496 87.4024C104.343 87.5865 103.968 87.3513 103.896 87.7058" stroke="#1E3C70" stroke-linecap="round" stroke-linejoin="round"/>
<path d="M106.761 106.716C105.749 106.338 104.703 106.307 103.643 106.416C102.951 106.488 102.286 106.672 101.625 106.9C101.297 107.016 101.072 107.17 100.926 107.47" stroke="#1E3C70" stroke-linecap="round" stroke-linejoin="round"/>
<path d="M107.615 78.8563C107.782 78.4848 108.16 78.2973 108.382 77.9598C108.757 77.3804 108.825 77.1077 108.522 76.6952C108.147 76.1839 107.506 75.9146 107.015 76.0953C106.371 76.3339 105.873 76.7941 105.409 77.2781C105.276 77.4179 105.293 77.6497 105.304 77.8508" stroke="#1E3C70" stroke-linecap="round" stroke-linejoin="round"/>
<path d="M47.8768 78.8566C46.9122 78.226 45.818 78.0624 44.7067 78.0146C44.0727 77.9874 43.4319 78.0794 42.7979 78.168C42.6649 78.1885 42.5593 78.1237 42.4434 78.151" stroke="#1E3C70" stroke-linecap="round" stroke-linejoin="round"/>
<path d="M100.426 55.8276C100.627 56.6321 100.848 57.4331 101.026 58.241C101.24 59.2193 101.626 60.1533 101.735 61.1555" stroke="#1E3C70" stroke-linecap="round" stroke-linejoin="round"/>
<path d="M49.6367 109.229C49.6469 109.532 49.664 109.832 49.6742 110.136C49.7117 111.1 50.1583 111.278 50.9934 111.339C51.6956 111.39 52.4012 111.411 53.1068 111.441C53.284 111.448 53.4477 111.451 53.434 111.694" stroke="#1E3C70" stroke-linecap="round" stroke-linejoin="round"/>
<path d="M88.2046 95.4502C89.1351 96.6739 88.8011 97.7306 87.9557 98.5692C87.3353 99.1861 86.5718 99.3464 85.7401 99.3191C85.6549 99.3191 85.5765 99.3327 85.4844 99.2748C84.5334 98.6646 83.5755 98.0647 82.6211 97.4613" stroke="#1E3C70" stroke-linecap="round" stroke-linejoin="round"/>
<path d="M100.627 107.568C100.511 107.725 100.344 107.731 100.174 107.718C99.3828 107.653 99.2805 107.721 98.6329 108.454C98.5545 109.753 99.6589 109.787 100.433 110.118C101.121 110.411 101.875 110.547 102.584 110.803C102.761 110.868 103.03 110.922 103.091 111.188" stroke="#1E3C70" stroke-linecap="round" stroke-linejoin="round"/>
<path d="M59.7448 93.7909C59.2062 93.4909 58.6404 93.6818 58.0847 93.6954C56.8337 93.7227 55.6168 93.9817 54.417 94.3056C54.2943 94.3397 54.2125 94.2987 54.1136 94.2953C53.6841 94.2851 53.2546 94.2851 52.8558 94.493C52.5729 94.6396 52.3002 94.7692 51.9525 94.7623C51.5877 94.7555 51.3764 95.1305 51.4003 95.6009C51.4071 95.7338 51.4309 95.8702 51.448 96.0031" stroke="#3DC2EE" stroke-linecap="round" stroke-linejoin="round"/>
<path d="M89.2109 81.0181C89.5723 80.9568 89.5484 81.3215 89.6473 81.4817C90.0018 82.0714 90.3699 82.6645 91.0755 82.8111C91.6243 82.9236 91.9686 83.2645 92.2686 83.6428C92.9844 84.5427 93.6798 85.4597 94.3274 86.4073C94.7092 86.9629 95.241 87.4095 95.575 87.9719C96.3692 89.3217 97.3135 90.5591 98.2168 91.8271C98.527 92.2635 98.7553 92.8566 99.4678 92.7884" stroke="#1E3C70" stroke-linecap="round" stroke-linejoin="round"/>
<path d="M98.5649 54.1675C98.5206 54.8049 98.2513 55.381 98.0536 55.9741C97.7161 56.9831 97.3753 58.0057 96.956 58.9738C96.6697 59.6317 96.4856 60.4293 95.8073 60.9167C95.2141 61.3428 94.9823 62.0825 94.5119 62.6313C94.1642 63.037 93.7757 63.3471 93.3359 63.6198" stroke="#1E3C70" stroke-linecap="round" stroke-linejoin="round"/>
<path d="M111.286 107.521C110.754 107.18 110.256 107.268 109.721 107.561C108.644 108.155 107.481 108.57 106.401 109.167C106.108 109.327 105.92 109.617 105.59 109.702C105.521 110.288 105.767 110.738 106.05 111.195C106.51 111.948 106.888 112.743 106.912 113.656" stroke="#1E3C70" stroke-linecap="round" stroke-linejoin="round"/>
<path d="M99.7213 121.7C99.4997 121.772 99.5304 121.976 99.5849 122.096C99.6395 122.218 99.7622 122.392 99.9769 122.256C100.025 122.225 100.11 122.259 100.175 122.249C101.143 122.096 101.467 122.334 101.368 123.306C101.248 124.499 101.317 125.688 101.282 126.878C101.269 127.362 101.184 127.423 100.679 127.492C100.291 127.543 99.9735 127.522 99.6054 127.308C99.3293 127.144 98.9168 127.209 98.5657 127.181C97.6454 127.11 96.725 127.076 95.8012 127.066C95.4979 127.066 95.1979 126.984 94.8945 127.079" stroke="#1E3C70" stroke-linecap="round" stroke-linejoin="round"/>
<path d="M69.602 48.8359C68.893 49.4938 67.9488 49.5484 67.083 49.7802C66.599 49.9097 66.0945 50.0119 65.5763 50.0085C65.3582 50.0085 65.14 50.1619 64.9219 50.2471" stroke="#1E3C70" stroke-linecap="round" stroke-linejoin="round"/>
<path d="M103.167 100.379C103.31 101.388 102.84 102.162 102.182 102.837C101.759 103.27 101.391 103.778 101.132 104.276C100.893 104.736 100.805 105.428 101.183 105.983" stroke="#1E3C70" stroke-linecap="round" stroke-linejoin="round"/>
<path d="M100.979 132.913C101.34 133.288 101.159 133.789 101.258 134.225C101.425 134.975 101.551 135.735 101.728 136.485C101.807 136.812 101.834 137.153 101.885 137.49" stroke="#1E3C70" stroke-linecap="round" stroke-linejoin="round"/>
<path d="M101.129 107.67C101.582 108.093 102.206 108.09 102.741 108.315C103.706 108.72 104.715 109.02 105.553 109.682" stroke="#1E3C70" stroke-linecap="round" stroke-linejoin="round"/>
<path d="M28.5157 94.2441C28.2362 94.1998 28.0862 93.9918 27.9056 93.7975C27.3534 93.2078 26.7909 92.625 26.1024 92.1852C25.966 92.0966 25.8092 92.0284 25.6524 91.9841C24.8445 91.7523 24.79 91.8648 24.6707 92.4818C24.6571 92.55 24.623 92.6147 24.5957 92.6829" stroke="#1E3C70" stroke-linecap="round" stroke-linejoin="round"/>
<path d="M93.5381 52.9609C93.0165 53.3291 92.979 53.9563 92.7404 54.471C92.4166 55.1664 92.1303 55.8754 91.8303 56.581C91.7383 56.7957 91.619 56.973 91.377 57.0344" stroke="#1E3C70" stroke-linecap="round" stroke-linejoin="round"/>
<path d="M91.0723 76.8457C91.7438 76.89 92.4187 76.7707 93.0868 76.9855C93.8026 77.2138 94.3071 77.7081 94.7298 78.2637C95.0945 78.7444 94.7094 79.5897 94.0413 79.9613C93.7924 80.101 93.5402 80.2306 93.2879 80.3635" stroke="#1E3C70" stroke-linecap="round" stroke-linejoin="round"/>
<path d="M55.7207 107.016C56.1366 107.452 56.2525 107.994 56.2763 108.574C56.2866 108.809 56.3275 109.044 56.3752 109.276C56.5183 109.978 56.3445 110.623 56.0207 111.236" stroke="#1E3C70" stroke-linecap="round" stroke-linejoin="round"/>
<path d="M91.6235 87.8593C91.2076 87.7877 90.8054 87.7025 90.41 87.5218C89.776 87.2321 89.1283 87.4468 88.5079 87.6616C88.2182 87.7604 87.9387 87.8934 87.6523 88.0093" stroke="#1E3C70" stroke-linecap="round" stroke-linejoin="round"/>
<path d="M53.5586 96.8584C53.7733 97.4242 53.8483 98.0378 53.8313 98.6173C53.8142 99.3059 54.2233 99.7217 54.6767 99.8922C55.6277 100.247 56.6128 100.54 57.632 100.676C57.6797 100.683 57.7309 100.645 57.782 100.628" stroke="#1E3C70" stroke-linecap="round" stroke-linejoin="round"/>
<path d="M42.9986 105.155C43.0804 106.369 42.6578 107.49 42.3237 108.619C42.1669 109.147 42.3305 109.532 42.5589 109.927C42.6816 110.139 42.9168 110.292 43.1997 110.183C43.5338 110.057 43.8883 109.58 43.8406 109.28C43.8269 109.198 43.8201 109.109 43.8031 109.028" stroke="#1E3C70" stroke-linecap="round" stroke-linejoin="round"/>
<path d="M58.9902 107.568C59.8765 108.713 59.7879 110.06 59.7947 111.389" stroke="#1E3C70" stroke-linecap="round" stroke-linejoin="round"/>
<path d="M96.6516 92.887C96.0619 93.1563 95.5744 92.7677 95.1006 92.5632C94.3473 92.236 93.5906 91.9974 92.7793 91.9292" stroke="#1E3C70" stroke-linecap="round" stroke-linejoin="round"/>
<path d="M108.775 130.452C109.43 131.706 110.139 132.923 111.035 134.024C111.097 134.099 111.138 134.191 111.189 134.273" stroke="#1E3C70" stroke-linecap="round" stroke-linejoin="round"/>
<path d="M106.861 101.685C107.025 100.816 106.173 99.7555 105.351 99.7657C104.864 99.7725 104.659 100.13 104.4 100.43C104.298 100.55 104.23 100.696 104.145 100.829" stroke="#1E3C70" stroke-linecap="round" stroke-linejoin="round"/>
<path d="M70.0551 88.0093C69.3699 88.149 68.9132 88.6774 68.3473 89.0183C67.6894 89.4137 67.0418 89.8295 66.3839 90.2181C66.1657 90.3477 65.9851 90.4908 65.8828 90.726" stroke="#1E3C70" stroke-linecap="round" stroke-linejoin="round"/>
<path d="M97.2093 36.1152C96.3776 36.2823 95.5322 36.2039 94.6937 36.2107C94.254 36.2141 93.8211 36.2482 93.3848 36.3163" stroke="#3DC2EE" stroke-linecap="round" stroke-linejoin="round"/>
<path d="M53.5098 111.543C54.3415 111.403 55.1971 111.209 56.022 111.318C57.1639 111.468 58.3024 111.516 59.4443 111.475C59.8943 111.458 60.2488 111.662 60.651 111.751C60.6783 111.758 60.6851 111.846 60.7022 111.898" stroke="#1E3C70" stroke-linecap="round" stroke-linejoin="round"/>
<path d="M56.5781 107.47C57.2019 107.433 57.8223 107.48 58.4393 107.562C58.5825 107.583 58.7665 107.647 58.8892 107.514C59.3392 107.03 59.9664 107.225 60.505 107.071C60.7231 107.01 61.2106 107.484 61.306 107.818C61.6264 108.953 61.9128 110.091 61.8105 111.288" stroke="#1E3C70" stroke-linecap="round" stroke-linejoin="round"/>
<path d="M90.4707 78.2021C90.9888 78.5703 91.5649 78.8839 92.0149 79.3236C92.5568 79.8486 93.2249 80.2406 93.6033 80.9598C94.193 82.0847 93.5113 83.1755 92.5807 83.3868C92.458 83.4141 92.3455 83.4857 92.2296 83.5334" stroke="#1E3C70" stroke-linecap="round" stroke-linejoin="round"/>
<path d="M113.951 106.314C114.875 106.968 115.891 107.504 116.975 107.739C118.147 107.994 119.105 108.663 120.186 109.078" stroke="#1E3C70" stroke-linecap="round" stroke-linejoin="round"/>
<path d="M53.8107 106.563C53.5346 106.232 53.1221 106.232 52.754 106.167C51.9291 106.028 51.0974 105.925 50.2656 105.81" stroke="#1E3C70" stroke-linecap="round" stroke-linejoin="round"/>
<path d="M82.9766 122.505C83.3788 123.156 83.2731 123.913 83.4265 124.618C83.5288 125.085 83.5049 125.573 83.6822 126.026" stroke="#1E3C70" stroke-linecap="round" stroke-linejoin="round"/>
<path d="M96.1002 60.7524C96.3593 61.2842 96.0422 61.7478 95.8854 62.2046C95.6912 62.767 95.3776 63.2783 94.9003 63.6737C94.7538 63.7964 94.5356 63.9089 94.5936 64.1714" stroke="#1E3C70" stroke-linecap="round" stroke-linejoin="round"/>
<path d="M111.187 39.6326C110.191 38.8043 109.063 38.276 107.768 38.1226" stroke="#3DC2EE" stroke-linecap="round" stroke-linejoin="round"/>
<path d="M89.1124 81.1709C88.7851 81.5493 88.5295 81.9822 88.1579 82.3299C87.333 83.1036 86.8694 83.1684 85.8945 82.6298" stroke="#1E3C70" stroke-linecap="round" stroke-linejoin="round"/>
<path d="M51.5489 94.8981C51.0069 94.6731 50.5059 94.8163 50.0457 95.106C49.7662 95.2799 49.4696 95.1674 49.1833 95.239C48.6481 95.3753 48.0891 95.3958 47.571 95.6412C47.2437 95.798 47.1483 95.9821 47.2744 96.3059C47.4108 96.6604 47.2676 96.8479 46.9233 96.9638C46.2995 97.1717 45.6553 97.2774 45.011 97.349C44.3361 97.424 43.9577 97.0081 44.0566 96.4048" stroke="#3DC2EE" stroke-linecap="round" stroke-linejoin="round"/>
<path d="M97.7609 83.632C97.3757 83.4786 97.1064 83.6831 96.8576 83.9354C96.5508 84.2421 96.4928 84.6682 96.6769 84.9784C97.0348 85.592 97.2871 86.3181 98.0608 86.6078C98.3506 86.7169 98.596 86.9384 98.8687 87.0986C99.3016 87.3543 99.5198 88.1724 99.3834 88.6121C99.2402 89.0757 99.1073 89.5291 99.23 90.0745C99.3323 90.5278 99.1584 91.063 99.3766 91.5197C99.7345 92.2628 99.4823 93.0844 99.7209 93.8377" stroke="#1E3C70" stroke-linecap="round" stroke-linejoin="round"/>
<path d="M91.7282 47.2275C91.7452 47.5889 91.6873 47.9331 91.585 48.2876C91.3737 49.0137 91.7793 49.4807 92.5326 49.5012C93.0065 49.5148 93.47 49.45 93.9404 49.4364C94.6767 49.4193 95.2971 49.6545 95.8016 50.1931" stroke="#1E3C70" stroke-linecap="round" stroke-linejoin="round"/>
<path d="M101.179 124.367C100.518 124.605 100.398 125.212 100.228 125.774C100.068 126.303 100.044 126.869 99.8223 127.383" stroke="#1E3C70" stroke-linecap="round" stroke-linejoin="round"/>
<path d="M103.192 79.2085C103.059 79.3244 102.909 79.4301 102.793 79.563C102.128 80.3334 102.299 81.298 103.192 81.823C103.342 81.9116 103.492 81.99 103.645 82.0752" stroke="#1E3C70" stroke-linecap="round" stroke-linejoin="round"/>
<path d="M100.928 127.585C100.877 128.376 100.345 128.792 99.7245 129.146C99.4484 129.303 99.1518 129.412 98.8723 129.559C98.695 129.651 98.4462 129.729 98.4121 129.998" stroke="#1E3C70" stroke-linecap="round" stroke-linejoin="round"/>
<path d="M64.62 45.6187C64.1394 46.5186 63.8803 47.5105 63.4644 48.4343C63.4133 48.5501 63.3622 48.6695 63.3145 48.7853" stroke="#1E3C70" stroke-linecap="round" stroke-linejoin="round"/>
<path d="M44.6591 105.407C44.4342 105.973 44.4648 106.583 44.3762 107.169C44.308 107.629 44.2194 108.076 44.1035 108.522" stroke="#1E3C70" stroke-linecap="round" stroke-linejoin="round"/>
<path d="M58.5366 97.1611C58.5639 97.9485 58.3219 98.7019 58.2367 99.4756C58.206 99.7415 58.2026 100.011 58.1855 100.28" stroke="#1E3C70" stroke-linecap="round" stroke-linejoin="round"/>
<path d="M101.483 129.595C101.05 129.302 100.651 129.53 100.222 129.629C99.7343 129.745 99.3219 130.137 98.8174 130.082C98.1936 130.014 97.7164 130.311 97.2051 130.549" stroke="#1E3C70" stroke-linecap="round" stroke-linejoin="round"/>
<path d="M58.7882 106.965C58.6723 106.808 58.5053 106.808 58.3348 106.815C57.5917 106.836 56.8486 106.822 56.126 106.652C55.9419 106.607 55.8703 106.675 55.7715 106.764" stroke="#1E3C70" stroke-linecap="round" stroke-linejoin="round"/>
<path d="M92.5792 79.9651C92.3679 80.0708 92.1088 80.0844 91.9316 80.0026C91.1441 79.6345 90.367 79.5118 89.5625 79.914" stroke="#1E3C70" stroke-linecap="round" stroke-linejoin="round"/>
<path d="M102.133 23.5669C101.884 23.4306 101.86 23.1511 101.731 22.9397C101.509 22.5818 101.322 22.5989 101.073 22.9363C100.773 23.342 100.759 23.8874 100.388 24.2623C100.32 24.3305 100.439 24.5827 100.473 24.7498" stroke="#1E3C70" stroke-linecap="round" stroke-linejoin="round"/>
<path d="M96.6049 98.2656C97.4536 98.7974 98.1422 99.4928 98.7864 100.263C99.158 100.706 99.4614 101.16 99.6761 101.685C99.7545 101.879 99.8295 102.117 99.9829 102.223C100.218 102.387 100.341 102.612 100.157 102.772C99.9897 102.915 99.6693 103.034 99.4239 102.84C98.8989 102.424 98.3365 102.087 97.7161 101.824C97.4809 101.725 97.2184 101.783 96.9969 101.596C96.7208 101.364 96.414 101.183 96.3458 100.781C96.3083 100.543 96.1345 100.468 95.8958 100.474C95.5073 100.485 95.163 100.546 94.8835 100.877C94.5562 101.265 94.1199 101.531 93.6836 101.787" stroke="#1E3C70" stroke-linecap="round" stroke-linejoin="round"/>
<path d="M88.0039 95.301C87.7278 95.0113 87.4244 94.7591 87.0495 94.5954C86.262 94.2478 85.5224 94.4932 84.8986 94.9193C84.0873 95.4715 83.4771 96.2725 82.7715 96.9577C82.6181 97.1077 82.6795 97.394 82.4238 97.4622" stroke="#1E3C70" stroke-linecap="round" stroke-linejoin="round"/>
<path d="M101.283 127.431C101.675 127.962 101.665 128.617 101.597 129.186C101.525 129.81 101.672 130.441 101.484 131.051C101.321 131.582 101.314 132.227 100.997 132.632C100.608 133.133 100.213 133.692 99.623 134.016" stroke="#1E3C70" stroke-linecap="round" stroke-linejoin="round"/>
<path d="M44.3086 109.985C44.779 110.544 44.779 111.226 44.8063 111.898C44.8199 112.225 44.7108 112.511 44.3086 112.552" stroke="#1E3C70" stroke-linecap="round" stroke-linejoin="round"/>
<path d="M99.2676 115.565C98.8517 115.896 98.4359 116.244 98.4222 116.823C98.412 117.273 98.6234 117.658 99.0699 117.822C99.7073 118.061 100.358 118.255 101.03 118.381" stroke="#1E3C70" stroke-linecap="round" stroke-linejoin="round"/>
<path d="M47.1707 95.904C46.5606 95.3586 45.889 95.7302 45.2652 95.8324C44.9926 95.8768 44.6176 95.8018 44.4062 96.1051" stroke="#3DC2EE" stroke-linecap="round" stroke-linejoin="round"/>
<path d="M103.895 104.351C102.944 104.712 102.106 105.258 101.329 105.909C101.042 106.147 101.005 106.478 101.23 107.017" stroke="#1E3C70" stroke-linecap="round" stroke-linejoin="round"/>
<path d="M89.9648 80.2134C90.5034 80.936 90.9602 81.7064 91.4272 82.4734C91.5124 82.6131 91.4681 82.7426 91.4749 82.879" stroke="#1E3C70" stroke-linecap="round" stroke-linejoin="round"/>
<path d="M90.3676 125.672C89.8768 126.265 89.253 126.616 88.5167 126.858C88.1758 126.971 87.8213 127.001 87.4975 127.049C86.8226 127.144 86.134 127.223 85.4386 127.192C84.8796 127.165 84.4706 126.954 84.1774 126.48C84.1058 126.36 83.9797 126.275 83.8809 126.176" stroke="#1E3C70" stroke-linecap="round" stroke-linejoin="round"/>
<path d="M103.24 100.679C103.608 100.454 103.925 100.686 104.133 100.894C104.914 101.674 105.657 102.493 106.158 103.495" stroke="#1E3C70" stroke-linecap="round" stroke-linejoin="round"/>
<path d="M102.988 68.2461C102.722 68.3552 102.415 68.3484 102.183 68.5461C101.931 68.7608 101.904 69.0335 102.04 69.296C102.214 69.63 102.603 69.7698 102.889 69.6505C103.642 69.3403 103.707 68.904 103.09 68.2938" stroke="#1E3C70" stroke-linecap="round" stroke-linejoin="round"/>
<path d="M99.7715 93.9438C99.9215 94.0802 99.993 94.2472 99.9726 94.4483C99.9044 95.1164 100.106 95.7982 99.8397 96.4663C99.7681 96.6435 99.8397 96.9231 99.9351 97.1071C100.296 97.7957 100.184 98.4365 99.826 99.074" stroke="#1E3C70" stroke-linecap="round" stroke-linejoin="round"/>
<path d="M104.397 81.9761C104.091 81.7477 103.78 81.7477 103.654 82.1295C103.497 82.6033 103.187 83.0294 103.143 83.5339C103.013 85.1189 102.396 86.5847 102.028 88.1084C101.943 88.4629 101.705 88.7662 101.507 89.0492C101.241 89.4309 101.019 89.8298 100.777 90.2218" stroke="#1E3C70" stroke-linecap="round" stroke-linejoin="round"/>
<path d="M89.2628 79.7122C88.8265 79.0679 88.38 79.5929 87.9573 79.7224C87.5414 79.8485 87.146 80.0394 86.7506 80.2201C86.587 80.2951 86.4199 80.3223 86.2461 80.3155" stroke="#1E3C70" stroke-linecap="round" stroke-linejoin="round"/>
<path d="M99.0178 96.0542C98.8576 96.5791 99.0757 97.07 99.1848 97.5609C99.2564 97.8881 99.2393 98.1744 99.12 98.4676" stroke="#1E3C70" stroke-linecap="round" stroke-linejoin="round"/>
<path d="M99.3184 90.1702C99.5536 90.1361 99.7956 90.1327 100.021 90.0611C100.365 89.952 100.627 90.1157 100.815 90.3304C100.995 90.5349 101.002 90.777 100.845 91.0837C100.58 91.6087 100.43 92.1575 100.699 92.7949C100.91 93.2994 101.07 93.8652 101.023 94.4447C101.009 94.5913 101.091 94.6629 101.176 94.7481" stroke="#1E3C70" stroke-linecap="round" stroke-linejoin="round"/>
<path d="M100.226 89.969C100.396 89.2225 100.747 88.5271 100.829 87.7567C100.914 86.9591 101.081 86.1751 101.2 85.3877C101.292 84.7809 101.064 84.1333 100.87 83.5367C100.747 83.1652 99.7722 82.872 99.3768 82.9913C98.8757 83.1447 98.3951 83.3697 97.9179 83.5879C97.6758 83.697 97.5395 84.4264 97.6793 84.8355C98.0133 84.7639 98.3303 84.7434 98.5348 84.3446C98.7189 83.9833 98.5212 83.7822 98.3678 83.5333" stroke="#1E3C70" stroke-linecap="round" stroke-linejoin="round"/>
<path d="M95.1463 100.53C94.9929 99.7833 94.3111 99.7833 93.7862 99.5822C93.5714 99.5004 93.3192 99.5072 93.084 99.4731" stroke="#1E3C70" stroke-linecap="round" stroke-linejoin="round"/>
<path d="M102.586 133.516C103.326 133.959 103.898 134.562 104.181 135.38C104.263 135.615 104.369 135.629 104.549 135.626" stroke="#1E3C70" stroke-linecap="round" stroke-linejoin="round"/>
<path d="M106.361 118.282C105.815 119.038 105.035 119.362 104.148 119.488" stroke="#1E3C70" stroke-linecap="round" stroke-linejoin="round"/>
<path d="M101.028 90.876C101.549 91.1589 101.774 91.7077 102.132 92.1338C102.333 92.3724 102.483 92.6519 102.691 92.8803C103.077 93.3064 103.032 93.8109 102.48 94.0256C101.624 94.3631 101.307 95.0482 101.069 95.8459C100.905 96.3981 100.707 96.9503 100.322 97.4071" stroke="#1E3C70" stroke-linecap="round" stroke-linejoin="round"/>
<path d="M113.147 31.2363C112.895 31.5056 112.626 31.7579 112.397 32.0442C111.821 32.7737 112.033 33.5133 113.048 33.6974C113.587 33.7963 114.098 33.9633 114.606 34.1542" stroke="#3DC2EE" stroke-linecap="round" stroke-linejoin="round"/>
<path d="M85.5901 99.3735C85.4197 100.195 85.556 101.017 85.5833 101.838C85.6037 102.489 85.556 103.144 85.539 103.798" stroke="#1E3C70" stroke-linecap="round" stroke-linejoin="round"/>
<path d="M51.8486 109.331C50.959 109.263 50.0727 109.198 49.183 109.13C48.9308 109.113 48.6785 109.096 48.4297 109.079" stroke="#1E3C70" stroke-linecap="round" stroke-linejoin="round"/>
<path d="M105.553 79.9653C105.733 80.3369 105.699 80.6709 105.403 80.9709C105.379 80.9948 105.376 81.0493 105.352 81.0698C104.54 81.7106 104.21 82.6684 103.75 83.5377C103.623 83.7763 103.491 83.9774 103.238 84.0865" stroke="#1E3C70" stroke-linecap="round" stroke-linejoin="round"/>
<path d="M97.408 86.3491C97.1728 86.4752 96.907 86.4616 96.6547 86.5093C96.0548 86.6218 95.748 87.0684 95.5469 87.6035" stroke="#1E3C70" stroke-linecap="round" stroke-linejoin="round"/>
<path d="M101.03 85.7458C100.297 85.7355 99.8914 86.223 99.5232 86.7547C99.4176 86.9081 99.3528 87.0888 99.2676 87.2558" stroke="#1E3C70" stroke-linecap="round" stroke-linejoin="round"/>
<path d="M50.1409 105.86C49.3194 106.079 48.924 106.777 48.4297 107.37" stroke="#1E3C70" stroke-linecap="round" stroke-linejoin="round"/>
<path d="M55.6451 106.918C55.1168 106.618 54.5168 106.781 53.9578 106.683C53.8931 106.672 53.7942 106.87 53.709 106.969" stroke="#1E3C70" stroke-linecap="round" stroke-linejoin="round"/>
<path d="M102.534 94.0938C102.715 94.5982 102.337 95.0277 102.34 95.5015C102.34 96.2344 101.863 96.7764 101.638 97.4138C101.385 98.1263 100.97 98.7398 100.574 99.3738" stroke="#1E3C70" stroke-linecap="round" stroke-linejoin="round"/>
<path d="M56.6784 135.932C56.2591 136.368 55.8194 136.787 55.4308 137.247C55.2365 137.476 55.0252 137.506 54.7695 137.493" stroke="#1E3C70" stroke-linecap="round" stroke-linejoin="round"/>
<path d="M48.1283 109.934C47.6136 110.094 47.1228 109.859 46.6183 109.839C46.4512 109.832 46.2842 109.706 46.1172 109.832" stroke="#1E3C70" stroke-linecap="round" stroke-linejoin="round"/>
<path d="M97.96 88.3086C97.3124 88.4347 96.6545 88.404 96 88.4109" stroke="#1E3C70" stroke-linecap="round" stroke-linejoin="round"/>
<path d="M99.3188 87.9064C99.0324 87.9064 98.729 87.8451 98.47 87.9201C98.1087 88.0292 97.8735 88.67 97.9621 89.1131C98.0337 89.4608 98.3166 89.6449 98.8177 89.6653C98.9029 89.6688 98.9847 89.6653 99.0699 89.6653" stroke="#1E3C70" stroke-linecap="round" stroke-linejoin="round"/>
<path d="M77.1448 107.32C76.8278 108.066 76.3267 108.653 75.6348 109.079" stroke="#1E3C70" stroke-linecap="round" stroke-linejoin="round"/>
<path d="M121.546 69.8066C121.454 70.4441 121.259 71.0679 121.242 71.7189" stroke="#1E3C70" stroke-linecap="round" stroke-linejoin="round"/>
<path d="M112.442 50.5947C112.517 51.0856 112.067 51.3446 111.928 51.7469C111.835 52.0196 111.638 52.2548 111.484 52.5036" stroke="#1E3C70" stroke-linecap="round" stroke-linejoin="round"/>
<path d="M93.7387 64.5264C93.5683 64.2946 93.3944 64.073 93.3297 63.773C93.2274 63.289 92.8218 63.3435 92.4809 63.3776C92.1775 63.4083 91.8946 63.5549 91.5776 63.589C91.2572 63.6231 91.0935 63.9742 90.9299 64.2298C90.7049 64.5775 90.4425 64.8775 90.1152 65.1297" stroke="#1E3C70" stroke-linecap="round" stroke-linejoin="round"/>
<path d="M101.885 61.9126C101.997 62.5091 102.175 63.1022 102.035 63.7226C102.028 63.7567 101.98 63.8147 101.987 63.8215C102.355 64.1385 102.055 64.5748 102.185 64.9327" stroke="#1E3C70" stroke-linecap="round" stroke-linejoin="round"/>
<path d="M112.09 109.832C112.38 110.401 112.632 110.977 112.543 111.642" stroke="#1E3C70" stroke-linecap="round" stroke-linejoin="round"/>
<path d="M64.6715 49.8417C64.8658 49.2248 64.5011 48.8532 63.8159 48.9895C63.6932 49.0134 63.5807 49.085 63.4648 49.1361" stroke="#1E3C70" stroke-linecap="round" stroke-linejoin="round"/>
<path d="M104.851 79.9653C104.633 80.3505 104.422 80.7391 104.197 81.1209C104.074 81.3254 104.023 81.5402 104.047 81.7754" stroke="#1E3C70" stroke-linecap="round" stroke-linejoin="round"/>
<path d="M112.039 112.849C112.141 113.319 112.254 113.786 112.336 114.256C112.38 114.512 112.455 114.734 112.642 114.907" stroke="#1E3C70" stroke-linecap="round" stroke-linejoin="round"/>
<path d="M90.3674 78.1279C90.2277 78.1041 90.1561 78.0086 90.0572 77.9098C89.6516 77.4973 89.3448 77.4973 88.6562 77.8518" stroke="#1E3C70" stroke-linecap="round" stroke-linejoin="round"/>
<path d="M92.5777 99.4253C92.0323 99.4116 91.4937 99.4696 90.9688 99.6264" stroke="#1E3C70" stroke-linecap="round" stroke-linejoin="round"/>
<path d="M90.5192 99.7251C89.9874 99.9296 89.4625 100.141 89.3125 100.782" stroke="#1E3C70" stroke-linecap="round" stroke-linejoin="round"/>
<path d="M113.498 31.8916C113.123 32.379 112.728 32.8529 112.441 33.4017" stroke="#3DC2EE" stroke-linecap="round" stroke-linejoin="round"/>
<path d="M112.492 35.0073C112.458 35.2289 112.543 35.413 112.628 35.6175C112.744 35.8936 112.884 36.197 112.744 36.5174" stroke="#3DC2EE" stroke-linecap="round" stroke-linejoin="round"/>
<path d="M97.0547 59.144C97.4535 59.5429 97.6308 60.1189 98.1114 60.453" stroke="#1E3C70" stroke-linecap="round" stroke-linejoin="round"/>
<path d="M99.6698 99.2236C99.2505 99.6122 99.4619 100.178 99.2676 100.631" stroke="#1E3C70" stroke-linecap="round" stroke-linejoin="round"/>
<path d="M134.217 90.2729C134.309 90.3139 134.435 90.2934 134.425 90.4741C134.397 90.8252 134.404 91.1763 134.394 91.5308" stroke="#1E3C70" stroke-linecap="round" stroke-linejoin="round"/>
<path d="M111.637 110.79L111.94 112.45" stroke="#1E3C70" stroke-linecap="round" stroke-linejoin="round"/>
<path d="M102.334 96.2036C102.763 96.6161 103.063 97.1444 103.541 97.5126" stroke="#1E3C70" stroke-linecap="round" stroke-linejoin="round"/>
<path d="M100.225 102.844C100.47 103.039 100.589 103.315 100.671 103.601C100.733 103.816 100.821 104 100.981 104.153" stroke="#1E3C70" stroke-linecap="round" stroke-linejoin="round"/>
<path d="M104.146 135.478C103.692 135.549 103.198 135.335 102.789 135.679" stroke="#1E3C70" stroke-linecap="round" stroke-linejoin="round"/>
<path d="M102.535 85.7457C102.123 85.6026 101.755 85.3094 101.277 85.3947" stroke="#1E3C70" stroke-linecap="round" stroke-linejoin="round"/>
<path d="M101.178 132.562C101.621 132.541 101.982 132.797 102.384 132.913" stroke="#1E3C70" stroke-linecap="round" stroke-linejoin="round"/>
<path d="M103.243 87.8076C102.937 88.1553 102.569 88.3666 102.088 88.3121" stroke="#1E3C70" stroke-linecap="round" stroke-linejoin="round"/>
<path d="M37.9199 117.679C38.1279 117.839 38.0699 118.071 38.0665 118.283C38.0631 118.494 38.0972 118.692 38.1688 118.886" stroke="#1E3C70" stroke-linecap="round" stroke-linejoin="round"/>
<path d="M99.4199 61.1548C99.8767 61.3832 100.112 61.9081 100.627 62.0615" stroke="#1E3C70" stroke-linecap="round" stroke-linejoin="round"/>
<path d="M54.262 94.3936C54.2654 94.7787 54.2313 95.1673 54.3132 95.5491" stroke="#3DC2EE" stroke-linecap="round" stroke-linejoin="round"/>
<path d="M53.3079 111.795C53.1409 111.983 52.9159 111.942 52.7046 111.945C52.5068 111.945 52.2955 111.904 52.1523 112.095" stroke="#1E3C70" stroke-linecap="round" stroke-linejoin="round"/>
<path d="M101.029 62.7637C101.36 63.0739 101.455 63.592 101.936 63.7692" stroke="#1E3C70" stroke-linecap="round" stroke-linejoin="round"/>
<path d="M101.631 88.6122C100.905 88.6361 100.25 88.2066 99.5176 88.2611" stroke="#1E3C70" stroke-linecap="round" stroke-linejoin="round"/>
<path d="M90.067 78.103C89.6784 78.628 89.8216 79.3029 89.5625 79.8619" stroke="#1E3C70" stroke-linecap="round" stroke-linejoin="round"/>
<path d="M111.285 108.929C111.5 109.249 111.333 109.662 111.537 109.985" stroke="#1E3C70" stroke-linecap="round" stroke-linejoin="round"/>
<path d="M101.885 119.387C101.868 119.721 101.851 120.058 101.834 120.392" stroke="#1E3C70" stroke-linecap="round" stroke-linejoin="round"/>
<path d="M99.6685 93.9438C99.3856 94.1688 99.3685 94.629 98.9629 94.7483" stroke="#1E3C70" stroke-linecap="round" stroke-linejoin="round"/>
<path d="M103.696 23.3421C102.994 22.3127 102.871 22.7524 102.288 23.3899C102.063 23.6387 102.036 23.9353 102.039 24.2455" stroke="#1E3C70" stroke-linecap="round" stroke-linejoin="round"/>
<path d="M111.086 33.146C111.171 33.2312 111.256 33.313 111.338 33.3982C111.713 33.7868 111.74 33.7868 112.194 33.4494" stroke="#3DC2EE" stroke-linecap="round" stroke-linejoin="round"/>
<path d="M103.04 68.2453C103.002 67.8022 102.695 67.7374 102.334 67.7408" stroke="#1E3C70" stroke-linecap="round" stroke-linejoin="round"/>
<path d="M100.776 118.984C100.646 119.345 100.882 119.604 101.028 119.891" stroke="#1E3C70" stroke-linecap="round" stroke-linejoin="round"/>
<path d="M100.574 120.495C100.949 120.583 100.99 120.89 101.028 121.2" stroke="#1E3C70" stroke-linecap="round" stroke-linejoin="round"/>
<path d="M100.777 87.0547C100.481 87.2047 100.178 87.3376 99.9219 87.5592" stroke="#1E3C70" stroke-linecap="round" stroke-linejoin="round"/>
<path d="M102.186 95.8523C101.838 95.8216 101.664 95.4603 101.33 95.3989" stroke="#1E3C70" stroke-linecap="round" stroke-linejoin="round"/>
<path d="M113.096 49.2896C113.181 49.5963 112.922 49.8145 112.895 50.094" stroke="#1E3C70" stroke-linecap="round" stroke-linejoin="round"/>
<path d="M88.6582 40.9927C88.9036 41.0711 89.1559 41.1086 89.4115 41.0949" stroke="#1E3C70" stroke-linecap="round" stroke-linejoin="round"/>
<path d="M70.7564 87.2554C70.4326 87.2997 70.3406 87.5519 70.252 87.8076" stroke="#1E3C70" stroke-linecap="round" stroke-linejoin="round"/>
<path d="M88.5078 102.69C88.5214 102.929 88.5078 103.167 88.6101 103.396" stroke="#1E3C70" stroke-linecap="round" stroke-linejoin="round"/>
</svg>
