<svg width="156" height="155" viewBox="0 0 156 155" fill="none" xmlns="http://www.w3.org/2000/svg">
<rect x="0.699219" y="0.125" width="154.6" height="154.6" rx="77.3" fill="#FFF4DE"/>
<path d="M56.524 73.745C55.8357 74.0654 55.1474 73.782 54.4591 73.745C51.0176 73.5294 48.7775 75.3284 46.9066 77.9283C45.2233 80.2633 44.0908 82.8879 42.7079 85.3769C41.5941 87.3854 39.9922 88.6176 37.9461 89.5787C35.4933 90.7246 33.1906 92.1971 32.1206 94.8217C31.0443 97.4524 30.0932 100.139 29.2109 102.837C28.8167 104.057 29.261 105.406 29.0232 106.651C28.6791 108.474 27.9407 110.224 27.6341 112.048C27.1398 114.999 25.9134 117.771 25.6318 120.778C25.4566 122.626 25.5942 124.45 25.6631 126.286C25.7444 128.436 25.2313 130.457 24.3177 132.385C23.5293 134.055 23.5481 135.761 23.9298 137.536C24.1425 138.515 24.7432 138.731 25.5317 138.583C26.4577 138.41 27.3588 138.404 28.2035 138.737C32.5336 140.437 36.6071 139.513 40.6055 137.646C40.887 137.517 41.2124 137.462 41.4502 137.277C42.2073 136.685 42.8956 136.846 43.39 137.536C44.3286 138.848 45.4862 138.953 46.9316 138.497C49.7724 137.603 52.7383 137.542 55.6793 137.425C56.9808 137.375 58.1446 137.11 59.0707 136.199C59.8717 135.416 60.7414 135.287 61.874 135.318C65.0715 135.404 68.1939 134.929 71.1223 133.475C72.1985 132.946 73.1559 132.447 73.4312 131.177C73.475 130.962 73.6189 130.728 73.7941 130.586C76.3596 128.43 77.5422 125.325 79.3131 122.638C81.8347 118.819 79.1566 114.075 75.0018 113.551C74.4198 113.477 73.938 113.563 73.4187 113.699" stroke="#1E3C70" stroke-width="1.2" stroke-miterlimit="10"/>
<path d="M115.225 15.9486C114.843 15.3264 114.211 15.4865 113.648 15.4742C107.566 15.351 101.49 15.5728 95.4205 15.7391C91.7349 15.8439 88.0431 15.8316 84.3638 15.9856C81.0725 16.1211 77.8 15.8377 74.5211 15.9548C74.1582 15.9671 73.7953 15.9547 73.4198 16.0287C72.913 16.1334 72.3811 16.2197 72.4938 16.7742C72.6064 17.3287 72.8755 17.9756 73.6701 17.9756C78.4069 17.9756 83.1499 18.0803 87.8867 17.9571C96.0274 17.7414 104.168 17.5504 112.315 17.6182C113.579 17.6305 114.368 16.7742 115.231 16.0657" stroke="#F16622" stroke-width="1.2" stroke-miterlimit="10"/>
<path d="M108.907 90.3794C108.469 89.7879 107.955 89.9912 107.449 90.2623C107.192 90.3978 106.967 90.712 106.717 90.7182C104.451 90.7737 104.733 92.4679 104.664 93.848C104.545 96.2384 104.745 98.635 104.533 101.025C104.376 102.818 104.333 104.617 104.151 106.41C103.907 108.757 104.257 111.012 105.015 113.23C106.241 116.816 107.442 120.414 108.663 124C109.432 126.248 109.795 128.614 111.059 130.721C112.085 132.434 113.431 133.685 115.22 134.535C115.546 134.689 115.877 134.843 116.19 135.015C117.767 135.866 118.58 135.669 119.594 134.178C121.021 135.41 122.741 135.453 124.456 134.295C124.55 134.233 124.606 134.116 124.7 134.061C126.214 133.192 126.859 132.108 126.452 130.216C125.639 126.439 126.346 122.626 126.802 118.861C127.434 113.699 127.109 108.714 125.351 103.761C124.143 100.36 122.935 97.0208 120.57 94.1991C119.394 92.7944 118.192 91.4329 116.672 90.3732" stroke="#1E3C70" stroke-width="1.2" stroke-miterlimit="10"/>
<path d="M98.5731 96.959C98.1914 103.41 99.8495 109.57 101.389 115.738C102.071 118.455 102.196 121.141 101.733 123.882C101.107 127.548 102.021 130.746 104.649 133.456C105.75 134.596 106.927 135.637 108.297 136.445" stroke="#1E3C70" stroke-width="1.2" stroke-miterlimit="10"/>
<path d="M43.6431 85.9497C43.1174 88.9809 42.548 92.0059 42.0224 95.0371C40.8461 101.833 40.0326 108.665 39.2692 115.504C39.0064 117.857 38.7811 120.211 38.5371 122.564" stroke="#1E3C70" stroke-width="1.2" stroke-miterlimit="10"/>
<path d="M125.192 97.6738C125.13 98.1975 125.274 98.6719 125.555 99.1093C127.664 102.313 128.252 105.954 128.577 109.645C128.865 112.91 129.116 116.181 129.166 119.453C129.197 121.812 128.89 124.178 129.453 126.513C129.91 128.411 130.461 130.278 131.637 131.898" stroke="#1E3C70" stroke-width="1.2" stroke-miterlimit="10"/>
<path d="M131.025 40.5986C131.451 43.7099 131.138 46.8212 131.069 49.9325C131.025 51.9225 131.357 53.931 131.645 55.9148C132.239 59.9934 133.04 64.0411 133.528 68.1258C133.791 70.3315 133.66 72.5925 133.547 74.8228C133.459 76.5417 133.403 78.2544 133.472 79.9672C133.553 82.1666 132.984 82.2406 131.388 81.5259" stroke="#1E3C70" stroke-width="1.2" stroke-miterlimit="10"/>
<path d="M110.849 86.0672C112.551 84.798 114.385 84.6624 116.318 85.4942C116.268 85.9932 116.231 86.4676 116.375 87.0406C116.619 88.0202 116.625 89.1415 116.387 90.121C116.193 90.9343 116.456 91.5011 116.825 92.0371C118.959 95.1669 120.223 98.6232 120.536 102.344C120.755 104.957 119.741 107.31 118.145 109.405C117.107 110.773 115.918 112.011 114.942 113.44C113.352 115.763 112.689 118.283 112.551 121.006C112.539 121.246 112.495 121.487 112.439 121.899C111.119 120.655 110.655 119.324 110.956 117.654C111.375 115.301 112.239 113.058 112.645 110.711C113.008 108.616 113.465 106.497 112.57 104.365C111.97 102.936 110.968 101.796 110.111 100.552C108.296 97.9085 107.852 95.0005 108.453 91.9385C108.578 91.2916 108.954 90.6755 109.467 90.0964C110.518 88.9074 111.256 87.5211 110.38 85.8145C109.911 84.8904 111.194 82.962 112.426 82.5985C113.79 82.1981 115.017 82.617 116.056 83.4549C116.569 83.8677 116.769 84.5392 116.437 85.2292" stroke="#1E3C70" stroke-width="1.2" stroke-miterlimit="10"/>
<path d="M38.2987 95.7642C37.016 98.3456 36.0461 101.063 35.7958 103.903C35.5706 106.478 35.483 109.078 35.8459 111.678C36.5405 116.619 36.3402 121.535 35.1388 126.396C35.0825 126.631 35.0575 126.877 35.0137 127.111" stroke="#1E3C70" stroke-width="1.2" stroke-miterlimit="10"/>
<path d="M73.6615 18.105C73.9306 22.7319 73.9931 27.3526 73.6865 31.9856C73.3486 37.1238 73.2673 42.2744 73.5426 47.4188" stroke="#F16622" stroke-width="1.2" stroke-miterlimit="10"/>
<path d="M101.01 70.5162C93.4762 70.5162 85.9425 70.5285 78.4024 70.5039C77.176 70.5039 75.9621 70.5778 74.7607 70.775C73.9598 70.9105 73.2214 70.8489 72.4455 70.6579C71.8511 70.51 71.776 70.1034 71.7322 69.6783C71.6821 69.093 72.1577 69.1669 72.5644 69.056C73.065 68.9205 73.6281 68.8343 74.0161 69.0006C75.0235 69.438 76.0497 69.3148 77.0696 69.3148C82.9014 69.3271 88.7395 69.3271 94.5713 69.3148C96.3546 69.3148 98.1379 69.2285 99.9213 69.2101C100.366 69.2101 100.81 69.284 101.26 69.321" stroke="#F16622" stroke-width="1.2" stroke-miterlimit="10"/>
<path d="M39.1506 39.2798C36.5538 39.4153 33.9633 39.5509 31.2852 39.6864C31.9547 41.165 32.7368 42.4712 33.2312 43.9313C34.1322 46.5928 34.5702 49.3098 34.6328 52.0822C34.7204 56.3641 34.7642 60.6583 33.8256 64.8909C33.7067 65.4146 33.982 66.0183 33.907 66.5605C33.7318 67.8605 33.4627 69.0803 32.7806 70.3125C31.767 72.1485 31.6856 74.3233 32.1424 76.3687C32.5178 78.0507 32.9746 78.9687 35.8029 78.4019C36.0908 76.7076 35.6527 75.0565 35.3899 73.3868C35.2836 72.7215 35.2523 72.0314 35.271 71.3537C35.2898 70.4727 35.5902 70.368 36.3598 70.7376C37.142 71.1135 37.2671 71.6125 37.2296 72.4319C37.0794 75.8204 37.0982 79.2151 36.9355 82.6036C36.8291 84.877 36.8979 87.1689 36.4787 89.43C36.4349 89.6518 36.5475 89.9044 36.5913 90.1447" stroke="#1E3C70" stroke-width="1.2" stroke-miterlimit="10"/>
<path d="M61.6311 100.551C61.4684 102.942 61.2807 105.338 61.1493 107.729C60.9991 110.495 61.4121 113.237 61.6311 115.985C61.7437 117.42 62.0817 118.819 61.9127 120.297C61.7876 121.406 62.4759 122.417 62.9827 123.396C63.3206 124.049 63.6397 124.758 64.303 125.201" stroke="#1E3C70" stroke-width="1.2" stroke-miterlimit="10"/>
<path d="M99.6699 118.018C100.239 119.687 100.415 121.431 100.377 123.162C100.296 126.785 100.696 130.333 101.741 133.808C102.386 135.964 103.355 137.942 105.007 139.569C105.877 140.425 106.872 140.641 107.93 140.252C111.002 139.137 114.087 139.427 117.172 140.049C118.436 140.302 119.649 140.117 120.813 139.76C121.827 139.452 122.816 139.273 123.861 139.31" stroke="#1E3C70" stroke-width="1.2" stroke-miterlimit="10"/>
<path d="M73.665 48.2567C72.645 47.9055 71.6251 48.1273 70.893 48.7619C69.4601 50.0125 67.7518 50.1419 66.006 50.2898C63.6971 50.487 61.3882 50.4192 59.0792 50.3884C58.1344 50.376 57.7902 50.7457 57.4649 51.5959C56.6013 53.8755 57.0644 56.1427 57.2521 58.4284" stroke="#1E3C70" stroke-width="1.2" stroke-miterlimit="10"/>
<path d="M107.572 38.6831C99.7814 39.1205 91.9785 39.3793 84.2383 40.476" stroke="#F16622" stroke-width="1.2" stroke-miterlimit="10"/>
<path d="M129.077 50.8877C129.641 55.0217 129.29 59.2666 130.435 63.3267C131.111 65.7356 131.211 68.1753 131.261 70.6336C131.274 71.1511 131.23 71.6748 131.267 72.1861C131.349 73.1719 130.879 73.788 129.928 73.597C127.269 73.061 124.71 73.5909 122.151 74.133C121.418 74.287 120.711 74.2069 120.086 74.0591C118.678 73.7202 117.795 74.5581 116.801 75.1865C116.275 75.5192 116.807 76.2462 116.312 76.6159" stroke="#1E3C70" stroke-width="1.2" stroke-miterlimit="10"/>
<path d="M131.758 102.221C133.178 104.445 134.561 106.694 135.775 109.035C135.856 109.195 136.038 109.287 136.013 109.515C135.856 110.957 136.857 111.967 137.496 113.089C137.946 113.877 138.071 114.604 137.702 115.374C136.313 118.227 134.524 120.833 132.484 123.273C132.302 123.494 132.108 123.729 131.758 123.636" stroke="#1E3C70" stroke-width="1.2" stroke-miterlimit="10"/>
<path d="M109.998 26.1209C109.197 26.7124 108.215 26.6446 107.32 26.6878C103.347 26.8972 99.3735 27.0451 95.4126 27.4209C94.5241 27.5072 93.6168 27.4702 92.7408 27.193C91.2953 26.737 89.8812 26.8972 88.4107 27.464C88.0541 26.3859 89.1115 25.856 89.3368 25.0366" stroke="#F16622" stroke-width="1.2" stroke-miterlimit="10"/>
<path d="M92.3768 70.7505C92.2955 77.7309 92.2142 84.7113 92.1328 91.6916" stroke="#1E3C70" stroke-width="1.2" stroke-miterlimit="10"/>
<path d="M106.595 46.4639C104.405 46.7042 102.252 47.2033 100.031 47.3327C97.4029 47.4867 94.8124 47.4497 92.2531 46.8275C91.8151 46.7227 91.3646 46.6673 90.9203 46.581C88.1296 46.0696 87.8543 46.199 86.6654 48.6141C84.7006 47.0164 82.8672 46.9466 81.1652 48.4047C80.9587 47.9734 80.4331 47.7454 80.4707 47.1786" stroke="#F16622" stroke-width="1.2" stroke-miterlimit="10"/>
<path d="M95.0502 93.4901C93.7925 93.5025 92.7288 92.9295 91.6525 92.4058C90.9079 92.0423 90.157 91.7096 89.3373 91.5802C87.7355 91.3276 86.6154 92.1655 85.8395 93.3792C85.0949 94.5437 84.9197 95.8128 85.8082 97.0758C87.2411 99.1151 88.7554 101.093 89.2685 103.643C89.4312 104.469 90.5575 104.37 91.2833 104.611" stroke="#1E3C70" stroke-width="1.2" stroke-miterlimit="10"/>
<path d="M68.6759 78.8891C68.5132 78.7289 68.2942 78.5995 68.2004 78.4086C67.1366 76.2584 65.128 76.8006 63.3322 76.7328C62.7002 76.7082 62.1433 76.9854 61.9055 77.4721C61.5864 78.119 61.0233 78.4517 60.5039 78.9261C61.8805 81.6492 61.48 84.551 61.1109 87.3851C60.7104 90.4656 61.7241 92.7575 64.3083 94.4517C67.0928 96.2815 68.5007 98.9369 69.2015 102.104C69.6333 104.044 70.3341 105.936 71.2352 107.735" stroke="#1E3C70" stroke-width="1.2" stroke-miterlimit="10"/>
<path d="M109.031 34.2596C105.871 34.3212 102.698 33.7544 99.5446 34.5923C97.7738 35.0605 95.9341 35.3131 94.0819 35.2084C93.1496 35.1591 92.2173 35.0482 91.2849 34.9743C90.5153 34.9127 89.827 35.0236 89.4829 35.8491C88.0437 34.9743 86.5857 34.9496 85.084 35.5719" stroke="#F16622" stroke-width="1.2" stroke-miterlimit="10"/>
<path d="M48.1389 37.6045C47.4882 38.2452 46.8875 38.9291 46.1867 39.5082C44.8038 40.6419 44.1968 42.1205 44.0029 43.8271C43.9466 44.3076 43.8527 44.7882 43.7526 45.3796C44.516 45.9218 45.1104 46.7658 46.0991 47.2587C45.8363 48.3985 45.3357 49.526 44.4722 50.3946C43.4898 51.3866 42.6263 52.5386 41.2246 53.0747C40.9368 53.1855 40.6677 53.6661 40.6302 54.005C40.3611 56.1058 40.067 58.2129 40.1296 60.4801C41.5813 60.3877 42.9141 60.2891 44.2532 60.2398C44.6536 60.2275 45.0541 60.2029 45.4733 60.3261C46.731 60.6834 47.9262 60.6095 49.1339 59.901C50.2038 59.2664 51.3552 59.6299 52.3939 60.2276" stroke="#1E3C70" stroke-width="1.2" stroke-miterlimit="10"/>
<path d="M115.349 50.77C115.705 52.6614 115.43 54.5467 115.08 56.3888C114.535 59.2413 113.916 62.0815 114.009 65.008C114.028 65.698 114.11 66.3696 114.229 67.0473C114.335 67.6326 114.366 68.2733 114.009 68.8401" stroke="#1E3C70" stroke-width="1.2" stroke-miterlimit="10"/>
<path d="M126.65 132.495C127.301 133.74 127.207 135.114 127.376 136.444C127.395 136.598 127.376 136.765 127.376 136.925C127.451 138.792 127.739 139.081 129.429 138.33C132.338 137.036 135.26 137.652 138.189 138.021C138.733 138.089 139.246 138.151 139.772 137.997" stroke="#1E3C70" stroke-width="1.2" stroke-miterlimit="10"/>
<path d="M113.041 17.8647C113.003 18.3823 112.928 18.8998 112.922 19.4173C112.91 22.929 112.897 26.4346 112.922 29.9464C112.941 32.7003 112.603 35.4481 112.916 38.2021C112.928 38.3191 112.96 38.4608 112.916 38.5594C112.102 40.1058 112.359 41.6953 112.472 43.3526C112.553 44.4801 111.833 45.663 111.458 46.8151C111.089 47.9364 111.483 48.9591 111.965 49.9202C112.403 50.7889 113.46 51.1031 114.618 50.8875C115.563 50.7088 115.713 49.9141 115.813 49.2117C116.038 47.5852 116.157 45.9464 116.32 44.3076" stroke="#F16622" stroke-width="1.2" stroke-miterlimit="10"/>
<path d="M101.979 94.563C101.398 96.9658 101.379 99.4178 101.26 101.864C101.103 105.197 101.404 108.505 101.979 111.795" stroke="#1E3C70" stroke-width="1.2" stroke-miterlimit="10"/>
<path d="M112.916 51.0112C112.703 52.3605 112.672 53.7159 112.672 55.0774C112.672 58.9096 112.678 62.7355 112.665 66.5677C112.665 66.962 112.809 67.3871 112.553 67.7629" stroke="#F16622" stroke-width="1.2" stroke-miterlimit="10"/>
<path d="M52.8824 40.5987C53.9837 40.2845 54.5719 39.5637 54.7096 38.4424C54.9474 36.4955 55.2289 34.5487 55.0725 32.5771C55.0725 32.5402 55.06 32.4909 55.0725 32.4601C55.7358 30.809 54.8848 29.7739 53.6146 28.8621C52.2067 27.8578 50.6799 27.4327 48.9967 27.9195C46.7378 28.5725 44.9482 29.7985 44.3913 32.2198C44.2099 32.9961 44.2161 33.8093 44.1348 34.6103" stroke="#1E3C70" stroke-width="1.2" stroke-miterlimit="10"/>
<path d="M73.666 52.687C73.8662 58.1087 74.0727 63.5365 74.273 68.9581" stroke="#F16622" stroke-width="1.2" stroke-miterlimit="10"/>
<path d="M104.895 91.0939C103.481 90.9029 102.424 91.71 101.385 92.4308C100.765 92.8621 100.208 93.2317 99.4326 93.3981C97.7431 93.7554 97.1174 95.1478 96.6293 96.5956C96.0098 98.4316 95.9848 100.329 96.1725 102.214C96.2351 102.861 96.0787 103.33 95.8346 103.915C95.4404 104.833 95.4091 105.899 95.1714 106.884C94.8022 108.382 94.408 109.86 94.5581 111.437C94.627 112.152 94.7146 112.682 95.528 113.027C96.4541 113.415 97.2926 114 98.3376 114.068" stroke="#1E3C70" stroke-width="1.2" stroke-miterlimit="10"/>
<path d="M52.3957 60.4617C50.3684 60.9669 48.6476 62.3162 46.5577 62.5934C44.5991 62.8583 42.7908 63.6469 40.851 63.9427C39.9062 64.0844 38.9926 63.992 38.054 63.9612C36.9903 63.9242 36.7337 63.3451 36.5898 62.4949C36.1518 59.9504 36.2769 57.3997 36.327 54.8368C36.3833 51.9227 36.8777 49.0824 37.3344 46.2237C37.4158 45.7062 37.5472 45.1949 37.4471 44.665" stroke="#1E3C70" stroke-width="1.2" stroke-miterlimit="10"/>
<path d="M117.172 89.5411C118.029 88.2103 119.055 86.9905 119.612 85.4749C120.519 82.9859 120.15 80.7556 118.517 78.6424C115.32 74.4837 109.438 76.5477 107.179 79.5912C105.101 82.3883 104.945 87.0767 107.686 89.6643C107.767 89.7444 107.773 89.8985 107.811 90.0155" stroke="#1E3C70" stroke-width="1.2" stroke-miterlimit="10"/>
<path d="M94.1989 114.549C91.477 113.754 86.9968 114.728 85.6703 117.414C84.131 120.537 85.5076 125.207 88.6174 126.735C89.1868 127.012 89.8376 127.29 90.1505 127.739C91.7023 129.92 93.8923 129.773 96.1387 129.501C97.5278 129.335 98.8418 128.959 99.7867 127.832" stroke="#1E3C70" stroke-width="1.2" stroke-miterlimit="10"/>
<path d="M63.9391 76.4983C65.0529 75.2292 66.1792 74.0401 67.6621 73.079C69.7145 71.7544 70.4341 69.5487 69.8647 67.1706C69.3203 64.9219 67.925 63.3077 65.5222 62.7348C61.261 61.7182 57.6317 64.3366 57.1186 68.717C56.9247 70.3866 57.0748 72.0008 58.0385 73.3501C58.4702 73.96 57.7694 74.6131 58.4639 75.0751C59.0897 75.4941 59.3587 76.2088 59.6904 76.8557C59.9719 77.4163 60.2598 77.9708 60.5414 78.5314" stroke="#1E3C70" stroke-width="1.2" stroke-miterlimit="10"/>
<path d="M118.871 91.9319C120.066 91.7902 120.923 92.6035 121.9 93.0347C124.991 94.4025 126.674 96.9593 128.038 99.9288C129.377 102.831 129.534 105.917 130.165 108.93C131.123 113.464 131.467 118.054 131.423 122.687C131.398 125.38 132.8 127.746 133.676 130.235C134.452 132.453 135.497 134.455 137.349 135.964C138.219 136.673 139.12 137.338 140.021 137.997C140.34 138.231 140.74 138.145 141.109 138.121" stroke="#1E3C70" stroke-width="1.2" stroke-miterlimit="10"/>
<path d="M63.939 125.318C63.7138 126.304 64.5022 126.902 64.9339 127.573C66.5671 130.093 67.0051 130.943 63.4447 132.607C61.9555 133.303 60.3473 133.642 58.7079 133.814C58.2011 133.864 57.713 133.79 57.25 133.574" stroke="#1E3C70" stroke-width="1.2" stroke-miterlimit="10"/>
<path d="M126.893 56.5127C127.08 61.041 127.312 65.5631 128.106 70.036C128.138 70.227 128.106 70.4364 128.106 70.6336" stroke="#1E3C70" stroke-width="1.2" stroke-miterlimit="10"/>
<path d="M114.98 41.3131C116 42.4097 117.377 42.2742 118.622 42.1078C120.08 41.9107 121.576 41.7505 123.009 41.6704C124.016 41.615 125.292 42.4097 125.924 43.5803C126.15 43.9869 126.219 44.4921 126.682 44.8063C127.226 44.5722 127.896 44.5784 128.352 44.0485C128.071 43.0381 127.82 42.0216 127.845 40.9496C127.864 39.9207 128.778 39.052 128.415 37.8999C127.714 38.2264 127.464 38.9842 126.807 39.1814C126.325 38.7994 126.444 38.3003 126.394 37.8383C126.344 37.3454 126.644 36.754 125.812 36.4706C125.493 36.3597 125.624 35.6326 125.687 35.2075C125.981 33.1436 125.662 31.0489 126.118 28.9726C126.413 27.648 124.986 26.0154 123.365 25.3931C121.425 24.6477 118.722 25.4917 117.79 27.1922C117.289 28.1101 117.058 29.102 117.777 30.057" stroke="#1E3C70" stroke-width="1.2" stroke-miterlimit="10"/>
<path d="M39.9995 74.1021C39.8806 75.3404 39.6929 76.5726 39.6491 77.811C39.5302 81.2426 39.4739 84.6681 39.3926 88.0998" stroke="#1E3C70" stroke-width="1.2" stroke-miterlimit="10"/>
<path d="M66.0059 97.6741C63.9535 97.3846 61.8948 97.4154 59.9363 98.0623C57.7588 98.7831 56.6575 100.582 55.7627 102.566C55.4123 103.336 55.331 104.273 54.5801 104.852" stroke="#1E3C70" stroke-width="1.2" stroke-miterlimit="10"/>
<path d="M126.285 76.6157C126.248 78.5318 126.223 80.4478 126.154 82.3577C126.129 83.0786 125.979 83.7932 125.929 84.5141C125.91 84.8036 125.772 85.0193 125.547 85.0932C125.284 85.1856 125.097 85.0624 124.928 84.7605C124.164 83.4051 123.826 81.9819 124.095 80.4417" stroke="#1E3C70" stroke-width="1.2" stroke-miterlimit="10"/>
<path d="M71.11 51.7254C71.7044 51.2263 72.1988 50.6472 72.9058 50.2468C73.5191 49.9018 74.2011 49.335 73.7944 48.3677C73.6818 48.1028 73.9633 47.8748 74.1385 47.653C75.7216 45.5952 77.2422 43.5005 78.6688 41.3318C78.8816 41.0115 78.9191 40.5987 79.2007 40.3584C79.9578 40.303 80.4959 40.5618 80.7775 41.0916C78.2683 45.2194 75.2836 48.9406 72.3364 52.7728C71.1288 51.3372 69.627 51.6823 68.3255 52.2368C64.8527 53.7031 61.1922 54.2021 57.4941 54.5964" stroke="#1E3C70" stroke-width="1.2" stroke-miterlimit="10"/>
<path d="M112.188 68.0029C112.507 68.4588 112.877 68.8285 113.396 69.0934C114.091 69.4446 114.059 70.0237 113.271 70.3133C112.514 70.5967 111.713 70.7569 110.843 70.5351C108.728 69.9991 105.587 71.2005 104.429 73.0426C103.772 74.09 102.996 74.6629 101.732 74.4658" stroke="#1E3C70" stroke-width="1.2" stroke-miterlimit="10"/>
<path d="M125.918 30.4273C127.701 30.107 129.478 29.7742 131.268 29.4724C132.156 29.3245 133.076 29.3122 133.934 29.0842C134.753 28.8624 134.866 29.2259 134.785 29.8235C134.39 32.8547 133.965 35.8859 133.583 38.9171C133.489 39.6749 133.183 39.946 132.363 40.0322C130.943 40.1801 129.553 40.5806 128.108 40.4759" stroke="#1E3C70" stroke-width="1.2" stroke-miterlimit="10"/>
<path d="M49.4763 45.5024C48.4251 46.8455 48.2687 48.4474 48.1435 50.0492C48.0747 50.8871 48.1685 51.7189 48.0309 52.5629C47.6554 54.9041 46.0849 56.4813 43.6445 56.8694" stroke="#1E3C70" stroke-width="1.2" stroke-miterlimit="10"/>
<path d="M44.7368 106.774C44.6805 110.483 44.3176 114.142 43.0286 117.66C42.8221 118.233 42.5468 118.782 42.3027 119.336" stroke="#1E3C70" stroke-width="1.2" stroke-miterlimit="10"/>
<path d="M55.5545 93.8481C55.1916 94.2609 54.6972 94.2055 54.2154 94.2055C53.2831 94.2055 52.3507 94.2301 51.4184 94.2055C48.5964 94.1254 48.3085 95.0434 47.5514 96.7315C47.0133 97.9267 46.7004 99.2205 46.6816 100.551" stroke="#1E3C70" stroke-width="1.2" stroke-miterlimit="10"/>
<path d="M57.9832 74.4591C57.1509 74.3913 56.7379 73.9416 56.5064 73.1468C56.0058 71.4156 54.7294 70.0355 53.4028 69.0559C52.3391 68.2735 50.7059 67.7313 49.1041 68.2242C47.5147 68.7171 45.9754 69.2408 44.5925 70.245C41.6767 72.3767 41.4326 75.6174 42.2085 78.6301C42.44 79.5419 42.5902 80.6262 43.6352 81.1499" stroke="#1E3C70" stroke-width="1.2" stroke-miterlimit="10"/>
<path d="M57.6192 50.5301C57.4189 50.1728 57.3001 49.6984 56.9997 49.4705C55.6544 48.4601 55.4729 46.9198 55.085 45.4967C54.6595 43.9256 53.9399 42.5086 52.995 41.1963C52.4006 40.3708 50.6548 40.3091 49.9665 41.0731C48.3959 42.829 47.1194 44.7697 46.1934 46.9322" stroke="#1E3C70" stroke-width="1.2" stroke-miterlimit="10"/>
<path d="M34.2869 78.7715C34.3182 79.1165 34.0178 79.3444 34.0178 79.7264C34.0178 83.1581 33.9803 86.5897 33.8927 90.0152C33.8802 90.4465 34.4558 90.9517 33.7988 91.3337" stroke="#1E3C70" stroke-width="1.2" stroke-miterlimit="10"/>
<path d="M103.679 74.2256C104.017 74.7 103.636 75.1189 103.542 75.5379C103.341 76.4251 103.198 77.2999 103.56 78.1748C103.842 78.8525 103.698 79.5548 103.529 80.2017C103.354 80.8794 103.241 81.5448 103.179 82.241C103.016 84.0277 103.93 85.075 105.5 85.7096" stroke="#1E3C70" stroke-width="1.2" stroke-miterlimit="10"/>
<path d="M48.2598 88.8203C49.2797 90.7857 51.1256 91.2108 53.1217 91.3278C54.7799 91.4264 56.4443 91.488 58.1025 91.5743C58.8221 91.6112 59.4728 91.8577 60.0485 92.2889" stroke="#1E3C70" stroke-width="1.2" stroke-miterlimit="10"/>
<path d="M94.081 117.18C92.4916 117.204 91.0024 117.537 89.6133 118.393C90.1639 118.991 90.8022 119.09 91.4091 119.207C94.713 119.854 96.8717 121.782 98.1044 124.832C98.4611 125.713 98.7614 126.686 99.7939 127.111" stroke="#1E3C70" stroke-width="1.2" stroke-miterlimit="10"/>
<path d="M112.065 67.7623C110.651 66.6102 109.211 65.5444 107.466 64.8421C106.54 64.4662 105.77 64.4601 105.025 64.9098C103.336 65.9325 101.978 67.2695 101.371 69.1979" stroke="#1E3C70" stroke-width="1.2" stroke-miterlimit="10"/>
<path d="M94.9319 70.7505C95.1885 73.985 94.9758 77.2134 94.8193 80.4417C94.7943 80.9592 94.7004 81.4952 94.9319 81.9942" stroke="#1E3C70" stroke-width="1.2" stroke-miterlimit="10"/>
<path d="M94.8073 90.0156C95.5456 91.1677 95.4017 92.4307 95.02 93.5951C94.4005 95.505 93.2993 97.1993 91.8664 98.6102C90.7025 99.7561 90.5461 100.939 91.1593 102.344C91.3658 102.818 91.5347 103.317 91.785 103.773C91.8851 103.946 91.9352 104.204 91.8789 104.241C90.9027 104.864 91.6536 105.467 91.8976 106.046C92.1417 106.619 92.4045 107.199 92.7486 107.716C93.3618 108.634 93.462 109.49 93.1679 110.612C92.8863 111.69 92.8174 112.91 93.1053 114.068" stroke="#1E3C70" stroke-width="1.2" stroke-miterlimit="10"/>
<path d="M116.439 42.2749C116.984 43.926 117.972 45.2938 119.368 46.3288C121.001 47.5425 122.947 47.216 124.224 45.6265C124.743 44.9796 125.275 44.3512 125.8 43.7104" stroke="#1E3C70" stroke-width="1.2" stroke-miterlimit="10"/>
<path d="M131.027 81.6431C130.645 83.9842 130.745 86.3501 130.651 88.7035C130.62 89.5045 130.501 90.2992 130.414 91.094C130.351 91.6423 130.119 92.0797 129.562 92.2892" stroke="#1E3C70" stroke-width="1.2" stroke-miterlimit="10"/>
<path d="M119.965 85.1113C120.916 85.3824 121.529 86.1156 122.136 86.7995C122.649 87.3786 123.237 87.5634 123.976 87.508C126.253 87.3416 127.755 88.5491 128.681 90.3913C129.445 91.9069 129.926 93.5703 130.54 95.1599C130.827 95.9115 130.903 96.62 130.177 97.193" stroke="#1E3C70" stroke-width="1.2" stroke-miterlimit="10"/>
<path d="M72.3262 92.893C73.3836 91.1618 73.734 89.2395 73.903 87.268C73.9718 86.4301 73.8404 85.5923 74.0156 84.7544C74.0782 84.4587 74.0156 84.0951 73.8967 83.8056C73.027 81.6739 71.544 80.0967 69.4103 79.1417C69.3101 79.0986 69.1725 79.1417 69.016 79.1417C68.6719 82.789 68.3152 86.4425 66.9824 89.9111" stroke="#1E3C70" stroke-width="1.2" stroke-miterlimit="10"/>
<path d="M54.5784 46.938C54.2092 48.7555 54.7161 50.4744 55.1728 52.2056C55.5545 53.6596 55.8987 55.1444 55.298 56.623C55.1603 56.968 54.9038 57.2637 54.6973 57.5841" stroke="#1E3C70" stroke-width="1.2" stroke-miterlimit="10"/>
<path d="M129.81 104.494C130.417 103.656 131.005 102.806 131.637 101.986C132.182 101.278 132.269 100.496 131.737 99.8425C129.654 97.2549 128.196 94.199 125.68 91.9318C124.548 90.9091 123.691 89.529 121.914 89.3996C121.494 89.3688 121.1 89.2333 120.693 89.4243" stroke="#1E3C70" stroke-width="1.2" stroke-miterlimit="10"/>
<path d="M96.2663 103.896C96.9296 108.56 98.325 113.039 99.7016 117.616C99.0696 118.189 98.3312 118.602 97.4803 118.855C95.722 119.372 94.3203 118.313 94.3203 116.458C94.3203 115.281 94.3453 114.105 94.8084 112.99" stroke="#1E3C70" stroke-width="1.2" stroke-miterlimit="10"/>
<path d="M83.9945 111.918C82.9245 112.22 81.8107 112.275 80.7157 112.263C78.438 112.238 76.1791 112.485 73.9077 112.645C73.7012 112.657 73.501 112.799 73.3008 112.873" stroke="#1E3C70" stroke-width="1.2" stroke-miterlimit="10"/>
<path d="M54.948 32.5835C53.8968 33.8218 52.8518 35.0663 51.7881 36.2924C51.0059 37.1919 50.5617 37.2596 49.9798 36.5265C49.6982 36.1753 49.6231 35.5531 49.0036 35.7132C48.3529 35.8796 48.3967 36.4834 48.3841 37.0132C48.3841 37.0933 48.3028 37.1672 48.2402 37.2781C48.5218 37.7402 48.9848 37.9435 49.4854 38.0852" stroke="#1E3C70" stroke-width="1.2" stroke-miterlimit="10"/>
<path d="M71.4735 108.443C72.2119 110.236 72.9878 112.011 73.3069 113.945C73.5948 115.719 73.4321 115.972 71.7238 116.471C70.754 116.748 69.7778 116.718 68.8017 116.693C67.7004 116.662 66.6241 116.348 65.3477 116.514C65.6042 115.516 65.8858 114.752 66.3676 114.068" stroke="#1E3C70" stroke-width="1.2" stroke-miterlimit="10"/>
<path d="M34.4079 96.7188C32.8936 99.6945 31.9738 102.88 31.0039 106.053" stroke="#1E3C70" stroke-width="1.2" stroke-miterlimit="10"/>
<path d="M122.276 76.1353C122.107 78.8461 122.069 81.5569 122.276 84.2739C122.307 84.6743 122.357 85.0686 122.395 85.4691" stroke="#1E3C70" stroke-width="1.2" stroke-miterlimit="10"/>
<path d="M123.854 119.693C123.804 123.537 121.921 126.433 118.992 128.786" stroke="#1E3C70" stroke-width="1.2" stroke-miterlimit="10"/>
<path d="M44.373 100.311C45.6558 103.219 46.5881 106.219 46.8009 109.405" stroke="#1E3C70" stroke-width="1.2" stroke-miterlimit="10"/>
<path d="M51.1808 49.335C50.2172 51.097 49.848 53.05 49.3662 54.9599C49.0471 56.2414 48.4527 57.2826 47.1699 57.8309" stroke="#1E3C70" stroke-width="1.2" stroke-miterlimit="10"/>
<path d="M104.289 88.5806C103.519 88.5498 102.749 88.5806 101.98 88.482C100.816 88.328 99.7708 88.6546 98.9448 89.5356C97.8561 90.7 96.761 91.8521 95.666 93.0042" stroke="#1E3C70" stroke-width="1.2" stroke-miterlimit="10"/>
<path d="M125.065 30.3103C123.038 30.5999 121.004 30.4828 118.996 30.2672C117.663 30.1255 116.405 30.5197 114.953 30.2425C115.047 31.986 114.822 33.5386 114.772 35.0973C114.753 35.6641 114.603 36.2063 114.603 36.7731C114.603 37.4077 114.828 37.6726 115.473 37.6172C115.973 37.574 116.449 37.7404 116.937 37.8328C117.613 37.956 117.969 38.2518 118.032 38.9295C118.088 39.5825 117.638 39.8598 117.169 40.1185C116.868 40.2849 116.518 40.482 116.205 40.4635C114.709 40.4019 114.465 41.4739 114.284 42.5213C114.203 42.9833 114.121 43.39 113.771 43.7104C113.408 43.6303 113.039 43.5502 112.676 43.4701" stroke="#1E3C70" stroke-width="1.2" stroke-miterlimit="10"/>
<path d="M89.9451 104.377C89.3194 105.48 88.0992 105.843 87.1356 106.515C85.396 107.735 83.6065 108.881 81.7918 109.983C81.0347 110.445 80.1587 110.76 79.2514 110.827C77.2553 110.982 75.2467 111.142 73.2944 110.489C73.113 110.427 72.894 110.482 72.6875 110.482" stroke="#1E3C70" stroke-width="1.2" stroke-miterlimit="10"/>
<path d="M64.5474 62.2544C64.0969 60.0919 61.9945 58.5271 59.6918 58.2683C57.0825 57.9726 55.7434 59.5251 54.4669 61.2933C52.8526 63.5359 52.6586 66.0804 52.8838 68.7111" stroke="#1E3C70" stroke-width="1.2" stroke-miterlimit="10"/>
<path d="M88.4876 126.871C87.8181 128.399 88.0246 128.935 89.5827 129.113C90.5087 129.218 91.1282 129.68 91.4974 130.358C92.2608 131.762 93.3933 132.021 94.8012 131.652C95.4958 131.467 96.1278 131.695 96.4782 132.157C97.786 133.876 99.6569 134.141 101.609 134.295" stroke="#1E3C70" stroke-width="1.2" stroke-miterlimit="10"/>
<path d="M83.5061 101.026C81.7166 101.229 80.1335 101.697 78.9759 103.275C78.0936 104.476 76.9485 105.499 75.8347 106.515C74.8273 107.439 73.6009 107.834 72.1992 107.489" stroke="#1E3C70" stroke-width="1.2" stroke-miterlimit="10"/>
<path d="M130.535 73.8623C130.654 75.8153 130.823 77.7683 130.873 79.7275C130.886 80.319 131.186 80.8242 131.142 81.4033" stroke="#1E3C70" stroke-width="1.2" stroke-miterlimit="10"/>
<path d="M92.8608 111.197C92.0099 111.234 91.1401 111.173 90.3141 111.339C88.0114 111.801 87.4608 112.091 86.9102 114.672" stroke="#1E3C70" stroke-width="1.2" stroke-miterlimit="10"/>
<path d="M125.68 30.3097C124.585 29.515 123.49 28.714 122.402 27.9193C121.876 27.5373 121.382 27.4017 120.812 27.9131C120.043 28.597 119.11 29.1083 118.635 30.0756" stroke="#1E3C70" stroke-width="1.2" stroke-miterlimit="10"/>
<path d="M127.746 80.4482C127.364 82.7586 127.383 85.0751 127.746 87.3854" stroke="#1E3C70" stroke-width="1.2" stroke-miterlimit="10"/>
<path d="M75.9725 99.3501C74.6772 101.728 73.8763 104.322 72.4872 106.669C71.6237 108.129 70.2971 108.807 68.9205 109.51C67.7379 110.113 66.5428 110.711 65.041 110.575C65.7481 112.035 66.1548 113.44 66.9745 114.66" stroke="#1E3C70" stroke-width="1.2" stroke-miterlimit="10"/>
<path d="M87.0281 99.4727C84.6629 99.7622 82.3226 99.4727 79.9824 99.2324" stroke="#1E3C70" stroke-width="1.2" stroke-miterlimit="10"/>
<path d="M101.372 74.9399C98.9312 77.0655 99.5132 80.7497 100.658 83.0724C101.322 84.4155 102.46 85.4382 103.468 86.5287C104.043 87.151 104.363 87.7547 104.431 88.5864C104.5 89.3935 104.894 90.0528 105.864 89.6461C106.546 89.3566 106.646 90.0713 107.091 90.1452" stroke="#1E3C70" stroke-width="1.2" stroke-miterlimit="10"/>
<path d="M117.291 135.607C117.785 136.876 119.043 136.993 120.094 137.246C121.815 137.659 123.26 138.416 124.462 139.673" stroke="#1E3C70" stroke-width="1.2" stroke-miterlimit="10"/>
<path d="M74.1474 84.7544C74.7294 85.0624 74.8044 85.697 74.9734 86.196C76.156 89.6462 77.5827 93.0039 79.3097 96.2076C80.1732 97.8094 79.7352 99.0478 79.2033 100.434C77.1509 100.132 75.912 99.1156 74.7919 97.3659C73.0712 94.6674 70.8749 92.2461 67.959 90.595C65.8565 89.4059 63.5726 88.796 61.2637 88.2169" stroke="#1E3C70" stroke-width="1.2" stroke-miterlimit="10"/>
<path d="M125.068 49.8096C123.022 51.5162 120.469 52.5327 118.504 54.3564" stroke="#1E3C70" stroke-width="1.2" stroke-miterlimit="10"/>
<path d="M94.1992 83.5591C95.119 84.6126 95.2755 85.7462 94.7061 87.04C94.4307 87.6623 94.4057 88.3523 94.5434 89.0731C94.7812 90.3423 94.5872 91.6238 94.4433 92.8991" stroke="#1E3C70" stroke-width="1.2" stroke-miterlimit="10"/>
<path d="M86.1767 124.96C84.5811 125.484 82.9918 126.008 81.3398 126.55C81.8717 127.69 82.6601 127.53 83.5049 127.234C84.481 126.895 85.3821 126.655 86.2143 127.677C86.5709 128.115 87.3719 128.072 87.9976 127.825" stroke="#1E3C70" stroke-width="1.2" stroke-miterlimit="10"/>
<path d="M37.3204 41.7941C36.6008 41.597 35.8749 41.4676 34.9238 41.6586C35.7185 44.9239 35.7873 48.2262 36.2253 51.4853" stroke="#1E3C70" stroke-width="1.2" stroke-miterlimit="10"/>
<path d="M121.67 92.7702C121.702 91.5997 120.725 90.7741 120.563 89.6589C120.525 89.4186 120.225 89.4002 119.968 89.4125C118.861 89.468 117.747 89.5111 116.689 89.893" stroke="#1E3C70" stroke-width="1.2" stroke-miterlimit="10"/>
<path d="M89.7016 24.4443C89.6077 24.623 89.6515 24.8941 89.3387 24.9249C87.1799 25.1528 85.2402 26.0462 83.2566 26.8163C82.7372 27.0196 82.4869 27.3461 82.293 27.7897" stroke="#F16622" stroke-width="1.2" stroke-miterlimit="10"/>
<path d="M120.693 123.285C119.41 124.671 116.169 125.694 114.617 125.201" stroke="#1E3C70" stroke-width="1.2" stroke-miterlimit="10"/>
<path d="M69.2906 71.7119C69.9163 73.7512 69.8662 75.7165 68.6836 77.5772" stroke="#1E3C70" stroke-width="1.2" stroke-miterlimit="10"/>
<path d="M42.0625 36.6499C42.4255 36.767 42.8009 36.8717 43.1576 37.0134C44.1462 37.4015 44.1274 36.5328 44.3652 36.0461C44.628 35.5101 44.6155 34.894 43.996 34.6476C43.6519 34.5059 42.707 34.5675 42.8635 34.9433C43.3515 36.1324 42.1689 36.4835 41.781 36.6869C40.3606 37.4508 39.6785 38.6029 39.1216 39.983C38.8651 40.6175 38.4145 41.1905 37.8514 41.7081C36.9566 42.5336 35.9304 43.4331 36.237 44.8994" stroke="#1E3C70" stroke-width="1.2" stroke-miterlimit="10"/>
<path d="M126.524 45.7432C126.511 46.8768 126.799 47.9549 127.268 48.9653C128.113 50.8075 128.789 51.1586 130.779 50.1667" stroke="#1E3C70" stroke-width="1.2" stroke-miterlimit="10"/>
<path d="M43.4035 39.6436C42.0957 40.5862 41.9893 41.0113 42.4148 42.4037C42.759 43.5373 42.8403 44.7202 42.4148 45.8661C42.2396 46.3344 42.0206 46.7471 42.4273 47.1846" stroke="#1E3C70" stroke-width="1.2" stroke-miterlimit="10"/>
<path d="M54.9492 83.1953C55.869 84.9635 56.5949 86.8426 57.9903 88.3397" stroke="#1E3C70" stroke-width="1.2" stroke-miterlimit="10"/>
<path d="M87.3926 93.8481C87.9182 95.4808 88.4438 97.1196 88.9694 98.7522" stroke="#1E3C70" stroke-width="1.2" stroke-miterlimit="10"/>
<path d="M113.893 70.7505C115.864 71.5329 116.421 73.2395 116.808 75.057" stroke="#1E3C70" stroke-width="1.2" stroke-miterlimit="10"/>
<path d="M125.069 39.0399C124.4 38.4916 124.569 37.3518 123.624 36.9575C122.76 37.6784 123.661 38.4485 123.48 39.1632C123.004 39.2001 122.698 38.7996 122.285 38.6887C122.035 38.8243 121.909 39.12 122.047 39.2679C122.535 39.8039 122.867 40.3337 122.541 41.0854C122.504 41.1778 122.76 41.3934 122.886 41.5536" stroke="#1E3C70" stroke-width="1.2" stroke-miterlimit="10"/>
<path d="M49.7207 86.1899C50.2713 88.1738 51.5854 89.3505 53.6127 89.7818" stroke="#1E3C70" stroke-width="1.2" stroke-miterlimit="10"/>
<path d="M135.768 110.957C135.011 111.696 134.016 112.041 133.09 112.503C132.371 112.867 131.695 112.528 131.025 112.269" stroke="#1E3C70" stroke-width="1.2" stroke-miterlimit="10"/>
<path d="M85.3254 33.8957C83.5296 33.9326 82.0529 34.7212 80.645 35.8857C80.3134 35.1279 80.476 34.4502 80.7076 33.7725" stroke="#F16622" stroke-width="1.2" stroke-miterlimit="10"/>
<path d="M79.614 102.221C78.0747 102.086 76.5104 102.27 74.9961 101.864" stroke="#1E3C70" stroke-width="1.2" stroke-miterlimit="10"/>
<path d="M99.6662 79.9673C97.9267 80.762 96.1809 81.563 94.4414 82.3577" stroke="#1E3C70" stroke-width="1.2" stroke-miterlimit="10"/>
<path d="M75.8463 48.6143C76.5597 49.255 76.7349 49.8649 75.8526 50.5365C75.4021 50.8815 75.0579 51.3497 74.6199 51.7132C74.232 52.0398 73.7877 52.354 73.2871 51.8426" stroke="#1E3C70" stroke-width="1.2" stroke-miterlimit="10"/>
<path d="M41.82 41.677C41.2318 41.5723 40.8751 41.9112 40.4746 42.2623C39.292 43.2912 38.0343 44.2339 36.5889 44.8931C36.3386 45.004 36.0257 44.9855 35.7441 45.0225" stroke="#1E3C70" stroke-width="1.2" stroke-miterlimit="10"/>
<path d="M76.5812 91.0938C75.2609 92.1473 74.1096 93.4226 72.5703 94.205" stroke="#1E3C70" stroke-width="1.2" stroke-miterlimit="10"/>
<path d="M41.0927 51.128C39.6973 51.3867 38.327 51.1711 36.9629 50.8877" stroke="#1E3C70" stroke-width="1.2" stroke-miterlimit="10"/>
<path d="M43.6418 45.626C41.8773 47.3818 41.7083 49.7661 41.1076 51.9718C41.0325 52.249 40.9512 52.631 41.2077 52.9267" stroke="#1E3C70" stroke-width="1.2" stroke-miterlimit="10"/>
<path d="M64.0584 69.4384C63.3951 68.9085 63.4264 67.9043 62.5003 67.473C61.9559 67.2204 61.4741 67.0356 60.8984 67.0479" stroke="#1E3C70" stroke-width="1.2" stroke-miterlimit="10"/>
<path d="M126.893 94.6855C127.374 95.7514 127.393 96.9959 128.232 97.9139" stroke="#1E3C70" stroke-width="1.2" stroke-miterlimit="10"/>
<path d="M36.596 63.0923C35.2382 63.6468 34.8065 64.8974 34.2871 66.0865" stroke="#1E3C70" stroke-width="1.2" stroke-miterlimit="10"/>
<path d="M51.6608 55.0771C51.2791 55.9089 51.0413 56.8022 50.3467 57.4923C50.0651 57.7695 49.8524 57.9543 49.4707 57.9482" stroke="#1E3C70" stroke-width="1.2" stroke-miterlimit="10"/>
<path d="M120.447 42.6318C121.505 43.9811 121.999 44.0427 123.488 42.9891" stroke="#1E3C70" stroke-width="1.2" stroke-miterlimit="10"/>
<path d="M125.557 51.0112C124.793 52.114 123.636 52.7918 122.641 53.642" stroke="#1E3C70" stroke-width="1.2" stroke-miterlimit="10"/>
<path d="M47.1699 39.04C47.8895 40.0258 48.9971 40.3585 50.0858 40.7158" stroke="#1E3C70" stroke-width="1.2" stroke-miterlimit="10"/>
<path d="M71.1099 124.72C70.5656 124.887 70.0274 125.059 70.1401 125.798C70.2652 126.612 70.9973 126.378 71.4791 126.495C71.817 126.575 72.205 126.439 72.5679 126.396" stroke="#1E3C70" stroke-width="1.2" stroke-miterlimit="10"/>
<path d="M37.4492 71.7119C37.7308 71.9522 38.0624 72.1555 38.294 72.4389C39.2138 73.5787 40.4465 74.1948 41.8293 74.5891" stroke="#1E3C70" stroke-width="1.2" stroke-miterlimit="10"/>
<path d="M114.501 36.1689C113.619 36.514 113.863 37.6907 113.043 38.085" stroke="#1E3C70" stroke-width="1.2" stroke-miterlimit="10"/>
<path d="M81.5586 110.359C82.2094 110.876 82.9852 111.234 83.5046 111.911" stroke="#1E3C70" stroke-width="1.2" stroke-miterlimit="10"/>
<path d="M125.8 36.6494C125.268 37.1854 125.444 37.937 125.193 38.5655" stroke="#1E3C70" stroke-width="1.2" stroke-miterlimit="10"/>
<path d="M54.3426 61.1826C53.8545 60.7452 53.2726 60.4988 52.6406 60.3447" stroke="#1E3C70" stroke-width="1.2" stroke-miterlimit="10"/>
<path d="M82.8978 26.7182C82.7976 25.8187 82.3534 25.9296 81.8027 26.3608" stroke="#F16622" stroke-width="1.2" stroke-miterlimit="10"/>
<path d="M86.9106 33.1812C85.1648 33.4707 84.9208 34.7645 84.8457 36.1754" stroke="#F16622" stroke-width="1.2" stroke-miterlimit="10"/>
<path d="M96.3887 92.7695C96.7954 93.2501 97.1959 93.7245 97.6026 94.205" stroke="#1E3C70" stroke-width="1.2" stroke-miterlimit="10"/>
<path d="M104.648 85.5923C104.229 85.888 104.091 86.3439 103.916 86.7875" stroke="#1E3C70" stroke-width="1.2" stroke-miterlimit="10"/>
<path d="M93.5938 109.521C93.988 109.46 93.9254 110.076 94.3259 110.002" stroke="#1E3C70" stroke-width="1.2" stroke-miterlimit="10"/>
</svg>
