<svg width="155" height="155" viewBox="0 0 155 155" fill="none" xmlns="http://www.w3.org/2000/svg">
<rect x="0.298828" y="0.125" width="154.6" height="154.6" rx="77.3" fill="#FFF4DE"/>
<path d="M28.3997 88.9515C27.788 88.1688 27.4328 87.2348 26.7751 86.4586C24.8347 84.1631 22.3945 82.9726 19.4347 82.7687C16.2446 82.545 13.4097 83.5382 11.1076 85.6759C7.04276 89.4382 6.58888 95.7065 10.4564 99.6859C12.5481 101.843 15.0804 102.975 17.9942 102.929C22.2104 102.869 25.5385 101.08 27.6959 97.3048C29.0509 94.937 29.2877 92.477 28.6102 89.8789C28.5576 89.675 28.5182 89.4711 28.459 89.1817C29.1693 88.9317 29.8731 88.6818 30.5703 88.4384" stroke="#F16622" stroke-width="1.2" stroke-miterlimit="10"/>
<path d="M110.954 57.1033C111.914 58.9516 113.17 60.5696 114.979 61.6286C118.314 63.5755 121.807 63.5755 125.155 61.8062C128.042 60.2802 130.035 57.8795 130.962 54.6368C132.909 47.8225 128.147 41.4358 121.465 41.4029C115.913 41.3766 110.763 46.0664 110.211 51.7427C110.033 53.5383 110.368 55.2156 110.914 56.9718C110.125 57.2941 109.355 57.6098 108.586 57.9255" stroke="#F16622" stroke-width="1.2" stroke-miterlimit="10"/>
<path d="M92.405 111.005C92.9312 111.433 93.5824 111.097 94.1677 111.288C94.4506 111.38 94.6874 111.426 94.7794 111.722C94.8715 112.018 94.6742 112.229 94.4703 112.327C93.6218 112.729 92.7865 113.275 91.8919 113.432C90.5041 113.669 89.1031 113.952 87.6758 113.886C86.972 113.853 86.9063 114.281 86.9523 114.814C87.0312 115.669 87.1167 116.524 87.2088 117.504C83.5912 117.412 80.1249 117.787 76.6454 117.504C75.0734 117.379 73.4817 117.596 71.9031 117.399C71.4492 117.339 71.2848 117.629 71.2782 118.109C71.1861 122.963 70.6139 127.791 70.3574 132.639C70.2982 133.737 70.1732 134.842 70.0482 135.934C70.0022 136.342 69.9627 136.769 69.3379 136.769C66.9305 136.769 64.5429 137.138 62.1224 137.085C58.6561 137.013 55.1832 137.019 51.7169 137.085C49.4148 137.131 47.1127 137.342 44.8105 137.48" stroke="#1E3C70" stroke-width="1.2" stroke-miterlimit="10"/>
<path d="M126.312 93.2796C126.431 94.8845 126.444 96.5355 127.154 98.0154C129.088 102.061 132.285 104.198 136.823 104.323C141.151 104.442 145.657 101.712 147.11 96.9893C148.301 93.1152 147.308 89.3726 144.229 86.6035C139.06 81.9467 130.568 83.3345 127.345 89.9909C126.858 90.9973 126.615 92.0891 126.411 93.181" stroke="#F16622" stroke-width="1.2" stroke-miterlimit="10"/>
<path d="M70.6603 84.4194C69.9105 86.9123 69.6211 89.4907 69.2396 92.0493C68.8712 94.5487 68.4371 97.0416 68.2858 99.5673C68.2201 100.633 68.0622 101.698 67.9964 102.764C67.9701 103.218 67.9109 103.534 67.365 103.487C67.0229 103.455 66.7072 103.593 66.3323 103.514C65.0366 103.244 63.7277 103.086 62.3332 102.876C60.9257 108.072 58.367 112.821 56.1504 117.715C55.3085 119.576 54.7363 121.536 54.4732 123.582C54.4206 124.003 54.2298 124.417 54.0719 124.818C53.0261 127.462 54.1772 128.495 55.8347 129.856C56.3741 130.304 57.3278 130.547 57.9921 130.587C58.2289 131.501 58.0053 132.448 58.2815 133.375C58.6367 134.573 59.301 135.533 60.4784 135.796C61.5834 136.039 60.9585 136.441 60.7744 136.875" stroke="#1E3C70" stroke-width="1.2" stroke-miterlimit="10"/>
<path d="M85.603 108.736C88.8654 108.69 90.2466 106.158 91.5227 103.862C93.5419 100.225 94.6075 96.1997 94.9627 92.0428C95.1403 89.9841 93.7656 88.9317 92.1015 88.1161C90.3387 87.2544 88.4444 86.8466 86.5304 86.7151C84.5111 86.5769 82.4655 86.5901 80.4528 86.9913C80.1108 87.0571 79.7688 87.1229 79.5254 87.4057" stroke="#1E3C70" stroke-width="1.2" stroke-miterlimit="10"/>
<path d="M45.0999 45.5602C44.1461 44.3829 43.2384 43.1726 41.9098 42.357C38.5027 40.272 35.043 40.1273 31.4977 41.9492C27.4723 44.0211 25.4464 47.448 25.2491 51.8417C24.9992 57.3865 29.0969 62.2933 34.793 62.5761C38.4961 62.7603 41.4822 61.3198 43.837 58.6231C45.7313 56.4591 46.593 53.8215 46.5403 50.9143C46.5075 49.0397 45.9549 47.3033 45.0999 45.6589" stroke="#F16622" stroke-width="1.2" stroke-miterlimit="10"/>
<path d="M71.6862 80.085C71.2521 81.7425 71.0285 83.4132 70.9364 85.1364C70.6799 89.984 69.9564 94.7987 70.0353 99.6726C70.0419 100.278 70.1076 100.85 70.3313 101.429C70.7917 102.619 71.7717 103.073 72.8044 102.33C74.2514 101.297 75.8892 100.903 77.5533 100.475C79.2371 100.041 80.8092 99.3372 82.2102 98.2453C82.8482 97.7454 83.1902 97.1403 83.2231 96.3773C83.3086 93.9634 83.2889 91.5758 81.8024 89.4644C81.0196 88.3528 79.7831 87.8398 78.7702 87.0373C77.8888 86.3335 77.4612 85.5903 77.6717 84.5313C78.2834 81.4333 78.7636 78.2893 80.5395 75.5597C81.1775 74.5862 81.8944 73.7048 82.835 72.9682C82.0391 71.5014 81.2433 70.028 80.4408 68.5547" stroke="#1E3C70" stroke-width="1.2" stroke-miterlimit="10"/>
<path d="M20.8752 98.436C20.52 96.6864 20.987 95.2328 22.3091 93.9963C23.7495 92.6479 24.5388 90.918 24.2428 88.9645C23.9008 86.7019 22.3946 85.2088 19.4281 84.7747C16.9813 84.4129 14.1925 85.2877 13.2519 88.241C12.8836 89.392 13.2914 90.4773 13.6729 91.5297C14.0544 92.5821 14.5017 93.6214 15.0147 94.6211C15.7185 95.9958 15.4093 97.4363 15.4027 98.8504C15.4027 100.113 15.7711 101.133 16.5472 101.185C17.3957 101.245 18.2442 101.449 19.1256 101.238C20.6647 100.87 21.1646 100.166 20.8752 98.5413" stroke="#F16622" stroke-width="1.2" stroke-miterlimit="10"/>
<path d="M68.3901 37.6274C69.0807 39.1928 69.7648 40.7451 71.0539 41.9685C73.4284 44.2246 76.2633 45.1322 79.4073 44.5995C84.3009 43.7707 87.7344 40.2781 88.5895 35.6673C89.8655 28.7873 84.0115 23.1109 77.1381 24.4001C71.9287 25.3802 68.0217 30.2475 68.1862 35.3581C68.2059 36.0159 68.3111 36.6671 68.3769 37.3577C67.6797 37.8642 66.6865 37.8181 66.0156 38.4496" stroke="#F16622" stroke-width="1.2" stroke-miterlimit="10"/>
<path d="M59.012 77.5134C58.7489 76.1979 58.9659 74.8956 59.1172 73.5998C59.308 71.9817 59.5382 70.3637 59.7618 68.647C60.7682 68.7128 61.8205 68.3115 62.5967 68.5352C63.8332 68.8903 64.7738 68.4562 65.8197 68.1339C66.0236 68.0682 66.2209 67.9761 66.4971 67.8643C66.7142 69.7125 66.2472 71.449 65.9972 73.1788C65.4447 77.0069 64.6883 80.8021 64.0766 84.6236C63.2215 89.9777 62.4125 95.3383 61.6035 100.699C61.4851 101.475 60.9523 102.376 62.11 102.863" stroke="#1E3C70" stroke-width="1.2" stroke-miterlimit="10"/>
<path d="M100.133 66.9961C101.495 65.8911 103.159 65.3452 104.744 64.5361C104.79 64.569 104.889 64.6414 104.974 64.7335C106.276 66.0884 106.059 67.3842 104.356 68.2261C103.764 68.5221 103.113 68.6865 102.508 68.9628C100.376 69.9296 98.8308 71.6398 97.1404 73.1789C94.8975 75.2245 92.4704 77.0136 89.721 78.3356C88.491 78.9276 87.9911 78.875 87.0505 77.9147C86.1692 77.0201 85.3536 76.0664 84.7616 74.9417C84.6564 74.7443 84.5314 74.547 84.163 74.4747C83.5513 74.3497 83.308 73.6525 82.9199 73.1789" stroke="#1E3C70" stroke-width="1.2" stroke-miterlimit="10"/>
<path d="M121.366 52.0522C122.307 53.7952 124.28 54.5845 126.516 53.4861C128.97 52.2758 129.424 49.7764 128.766 48.1452C127.97 46.1588 126.306 45.3695 124.05 46.0864C121.498 46.8955 120.465 48.9739 121.176 51.8154C120.32 52.2035 119.452 52.5915 118.584 52.9796" stroke="#F16622" stroke-width="1.2" stroke-miterlimit="10"/>
<path d="M62.4115 63.4966C62.2471 63.615 62.1681 63.8123 61.8984 63.8123C60.4909 63.8255 59.149 64.299 57.7809 64.549C55.9064 64.891 55.3736 66.1407 55.2223 67.8245C54.9526 70.8041 54.7422 73.7903 54.7816 76.7896C54.7948 77.7236 54.683 78.6445 54.1699 79.4666" stroke="#1E3C70" stroke-width="1.2" stroke-miterlimit="10"/>
<path d="M73.3371 102.35C73.6857 105.455 72.8438 108.276 70.9232 110.664C70.0155 111.795 69.2985 112.867 68.9828 114.301C68.233 117.689 66.4768 120.622 64.5825 123.483C62.8066 126.16 60.6821 128.489 58.084 130.383" stroke="#1E3C70" stroke-width="1.2" stroke-miterlimit="10"/>
<path d="M76.9405 27.5245C75.8553 27.2877 75.0988 27.9718 74.2569 28.4453C70.5538 30.5304 70.0474 35.3253 71.8562 38.055C72.777 39.4494 73.961 40.3966 75.4014 41.1069C75.6119 41.2122 75.9408 41.37 76.217 41.1267" stroke="#F16622" stroke-width="1.2" stroke-miterlimit="10"/>
<path d="M35.102 47.8295C37.7791 46.764 40.2127 46.7245 41.3901 47.7309C41.3177 47.869 41.1928 48.0071 41.1928 48.1387C41.1928 50.9604 41.1204 53.7756 41.3967 56.5907C41.5019 57.6431 41.3638 57.8141 40.2587 57.8273C38.5749 57.8536 36.8911 57.893 35.2073 57.9259C34.714 57.9391 34.2535 57.8996 33.8655 57.5181C32.8525 56.5381 31.8133 55.5844 30.7741 54.6306C30.4649 54.3478 30.3136 54.0321 30.3597 53.598C30.6425 50.9867 30.9122 48.3755 31.195 45.7642C31.2082 45.659 31.2608 45.5603 31.2937 45.4551" stroke="#F16622" stroke-width="1.2" stroke-miterlimit="10"/>
<path d="M101.883 65.6608C101.633 65.4832 101.962 65.0557 101.574 64.9373C100.956 65.1807 100.337 65.4175 99.719 65.6608C99.0152 65.9371 98.4364 66.2594 98.5679 67.2065C98.6863 68.0616 97.7918 68.2787 97.3182 68.6075C95.2857 70.0348 93.1613 71.3372 91.0565 72.6592C89.7081 73.5077 89.445 73.442 88.5899 72.1462C87.6296 70.686 86.8206 69.1535 86.2089 67.5157C85.5906 65.8647 84.525 64.6939 82.611 64.7531C82.0453 64.7729 81.7888 64.3716 81.7231 64.102C81.5652 63.4442 81.2166 62.7404 81.6836 62.0498" stroke="#1E3C70" stroke-width="1.2" stroke-miterlimit="10"/>
<path d="M60.6614 76.7896C60.7009 77.125 60.3588 77.0329 60.2404 77.079C58.4251 77.7499 57.5963 79.2758 58.0831 81.1175C58.333 82.0449 58.5961 82.9658 58.8855 84.0116C57.4779 84.2352 56.2348 84.1431 55.0903 83.2881C53.8077 82.3343 53.538 81.1241 54.2023 79.6902C53.4985 79.5324 53.1105 79.9928 52.6172 80.0849" stroke="#1E3C70" stroke-width="1.2" stroke-miterlimit="10"/>
<path d="M138.678 88.228C136.652 88.7805 134.626 89.3462 132.593 89.8724C131.587 90.1355 130.89 90.5104 130.693 91.7272C130.528 92.7599 130.272 93.7991 130.035 94.8318C129.805 95.8447 129.713 96.884 129.555 97.9429C133.488 98.6993 137.369 99.4557 141.256 100.179C142.664 100.442 142.67 100.396 143.006 99.0545C143.381 97.5417 143.755 96.0289 144.143 94.5227C144.334 93.7662 144.236 93.194 143.538 92.6481C141.861 91.3194 140.532 89.5961 138.783 88.3398" stroke="#F16622" stroke-width="1.2" stroke-miterlimit="10"/>
<path d="M117.754 52.5718C116.176 53.4334 114.591 54.2885 113.012 55.1501C112.795 55.2685 112.598 55.4198 112.394 55.5579C111.861 55.9329 112.019 56.4788 112.216 56.8866C112.446 57.3602 113.006 57.1431 113.315 56.9852C114.781 56.2091 116.209 55.354 117.656 54.5319C117.695 54.5056 117.722 54.4595 117.761 54.4332C118.715 53.6899 118.721 53.5124 117.866 52.5784" stroke="#F16622" stroke-width="1.2" stroke-miterlimit="10"/>
<path d="M84.7759 94.7197C83.9932 97.798 83.0526 100.843 82.625 104.001C82.4803 105.046 82.6514 106.118 83.0526 107.079C83.3223 107.723 83.3749 108.315 83.2236 108.947C82.9802 109.94 82.9276 110.94 83.1315 111.933C83.3683 113.077 84.3549 113.709 85.3744 113.13C86.7294 112.36 87.9331 112.749 89.2091 113.163C89.5379 113.268 89.8931 113.288 90.2812 113.36C90.4654 112.288 91.2415 111.716 92.1952 111.315" stroke="#1E3C70" stroke-width="1.2" stroke-miterlimit="10"/>
<path d="M82.3016 64.8316C81.8872 65.7984 81.0585 65.7064 80.3547 65.4301C78.5788 64.7197 76.8358 63.9305 75.8031 62.1611C75.6847 61.9638 75.54 61.7073 75.198 61.7336C73.9022 61.8454 72.6591 61.4573 71.383 61.3324C70.5411 61.2469 69.7124 61.3718 68.9099 61.6349C67.259 62.1808 65.608 62.7202 63.9637 63.2859C63.2402 63.5358 62.6022 63.5424 61.9904 62.9833C61.7537 62.7662 61.3853 62.6939 61.0762 62.5558" stroke="#1E3C70" stroke-width="1.2" stroke-miterlimit="10"/>
<path d="M104.567 113.275C100.588 113.564 96.6019 113.788 92.6094 113.584" stroke="#1E3C70" stroke-width="1.2" stroke-miterlimit="10"/>
<path d="M53.5456 127.186C52.6379 127.824 51.7499 128.475 51.1777 129.455C50.5528 130.534 50.8159 131.58 52.0065 132.106C53.3811 132.711 54.4072 133.54 54.8939 135.013C55.1899 135.908 56.1503 136.223 56.7357 136.875" stroke="#1E3C70" stroke-width="1.2" stroke-miterlimit="10"/>
<path d="M83.8484 53.8076C84.2628 53.9326 84.3089 54.2943 84.3615 54.6298C84.5786 56.136 84.8285 57.6357 84.572 59.1617C84.2957 60.8323 83.1183 61.7861 81.3753 61.8584C80.7965 61.8847 80.2177 62.0623 79.6191 62.0426" stroke="#1E3C70" stroke-width="1.2" stroke-miterlimit="10"/>
<path d="M40.6668 48.1382C38.7462 48.0264 36.819 48.3158 34.8918 48.0527C34.5235 48.0001 34.3262 48.3092 34.2538 48.7499C34.1025 49.7168 34.1617 50.6771 34.188 51.6374C34.2472 53.6633 34.3788 55.6891 34.484 57.7216" stroke="#F16622" stroke-width="1.2" stroke-miterlimit="10"/>
<path d="M92.6092 96.9891C92.3132 94.9304 91.9317 92.898 90.761 91.1089C90.1624 90.1881 89.5178 89.3922 88.2812 89.4645" stroke="#1E3C70" stroke-width="1.2" stroke-miterlimit="10"/>
<path d="M15.9297 89.7734C16.3375 92.6215 16.3112 95.5287 17.061 98.3307" stroke="#F16622" stroke-width="1.2" stroke-miterlimit="10"/>
<path d="M80.9609 27.6299C85.6967 28.9651 87.7226 34.477 84.9732 38.338C84.8482 38.5156 84.8943 38.8379 84.572 38.8576" stroke="#F16622" stroke-width="1.2" stroke-miterlimit="10"/>
<path d="M34.5826 47.8291C34.4116 47.2766 34.2274 46.7306 34.0695 46.1781C33.813 45.2573 33.2145 44.6851 32.3134 44.4351C31.9648 44.3364 31.5899 44.4746 31.4057 44.7508C31.2347 45.0073 31.4912 45.2507 31.6885 45.4612C32.4581 46.2768 33.2079 47.1056 33.9577 47.9277" stroke="#F16622" stroke-width="1.2" stroke-miterlimit="10"/>
<path d="M77.9743 50.8155C76.5076 50.8287 75.4026 51.5193 74.5804 52.6769C74.0608 53.407 74.291 53.8082 75.1855 54.124C77.1653 54.8277 79.2306 55.0119 81.2631 54.762C82.2365 54.6436 83.5783 54.5383 83.9861 53.0913C84.1177 52.6243 84.6439 52.2625 85.1043 51.7232C82.7167 51.2628 80.4343 50.8089 78.0795 50.8155" stroke="#1E3C70" stroke-width="1.2" stroke-miterlimit="10"/>
<path d="M20.7766 90.3916C20.5003 92.3122 20.2307 94.2394 19.9478 96.16C19.8557 96.7783 19.7439 97.3966 19.6387 98.0149" stroke="#F16622" stroke-width="1.2" stroke-miterlimit="10"/>
<path d="M138.058 93.7929C138.335 93.3785 138.624 92.9773 138.874 92.5498C139.032 92.2735 139.052 92.0104 138.789 91.721C138.526 91.4316 138.164 91.4382 137.966 91.55C137.197 91.9644 136.533 92.53 136.204 93.3851C135.98 93.9705 136.269 94.306 136.921 94.2007C137.269 94.1415 137.611 94.0034 137.953 93.8982" stroke="#F16622" stroke-width="1.2" stroke-miterlimit="10"/>
<path d="M69.2119 112.657C67.2847 114.229 65.2062 115.617 63.5355 117.491C63.279 117.781 63.1014 118.096 62.9238 118.425" stroke="#1E3C70" stroke-width="1.2" stroke-miterlimit="10"/>
<path d="M137.132 95.5488C135.58 95.5751 134.199 96.3052 132.706 96.6012C131.739 96.792 130.818 97.2129 129.818 97.2984" stroke="#F16622" stroke-width="1.2" stroke-miterlimit="10"/>
<path d="M90.3403 101.527C90.36 102.021 90.1824 102.442 89.9391 102.876C89.0577 104.461 87.7554 105.586 86.2097 106.467C85.9071 106.638 85.5519 106.737 85.1836 106.684" stroke="#1E3C70" stroke-width="1.2" stroke-miterlimit="10"/>
<path d="M74.264 54.0117C73.8364 54.4393 73.4352 54.7484 73.672 55.5772C73.8365 56.1428 73.5997 56.9387 73.6654 57.6162C73.7904 58.9382 74.4481 60.0104 75.5071 60.8062C75.7505 60.9904 76.0004 61.1417 76.1188 61.4377" stroke="#1E3C70" stroke-width="1.2" stroke-miterlimit="10"/>
<path d="M74.1589 53.5979C73.3236 53.348 72.6658 53.7229 71.8831 54.7227C71.0609 55.7751 70.3966 57.0051 69.1074 57.6168" stroke="#1E3C70" stroke-width="1.2" stroke-miterlimit="10"/>
<path d="M61.8997 122.135C61.2354 124.266 60.0777 125.97 57.8809 126.772" stroke="#1E3C70" stroke-width="1.2" stroke-miterlimit="10"/>
<path d="M134.553 93.5885C134.941 92.3782 135.552 91.339 136.717 90.701C137.94 90.0235 139.578 90.3984 140.222 91.5297C140.282 91.635 140.4 91.7271 140.42 91.8389C140.584 92.8584 140.045 93.6411 139.506 94.4172C139.236 94.8053 139.256 94.8185 138.42 94.9369C138.269 94.6343 138.111 94.3186 137.953 94.0029" stroke="#F16622" stroke-width="1.2" stroke-miterlimit="10"/>
<path d="M73.4421 55.0449C72.8698 55.5382 72.6923 56.242 72.4029 56.8932C71.8504 58.1297 70.8045 58.9256 69.7324 59.682" stroke="#1E3C70" stroke-width="1.2" stroke-miterlimit="10"/>
<path d="M56.8465 123.891C56.0177 125.325 56.3532 128.002 57.7739 128.943" stroke="#1E3C70" stroke-width="1.2" stroke-miterlimit="10"/>
<path d="M137.236 95.7524C138.953 97.1929 140.742 98.5479 142.288 100.186" stroke="#F16622" stroke-width="1.2" stroke-miterlimit="10"/>
<path d="M20.7771 99.5676C19.4353 99.2585 18.1001 99.6663 16.7583 99.5676C16.3833 99.5413 16.0019 99.5676 15.627 99.5676" stroke="#F16622" stroke-width="1.2" stroke-miterlimit="10"/>
<path d="M77.5604 54.9395C77.4946 55.9063 78.3037 56.176 78.9088 56.5772C79.4152 56.9193 79.8494 56.5707 80.2374 56.2747C80.711 55.9129 81.3161 55.6564 81.3753 54.9395" stroke="#1E3C70" stroke-width="1.2" stroke-miterlimit="10"/>
<path d="M61.998 63.9043C62.2414 65.4171 62.4782 66.9299 62.7216 68.4362" stroke="#1E3C70" stroke-width="1.2" stroke-miterlimit="10"/>
<path d="M144.037 93.4834C142.596 93.8583 141.149 94.2398 139.709 94.6147" stroke="#F16622" stroke-width="1.2" stroke-miterlimit="10"/>
<path d="M74.8828 38.1406C75.0999 39.0023 75.3498 39.8573 75.8234 40.6072C76.5995 41.8372 77.8953 41.8569 79.1056 41.7253C81.1906 41.4951 83.0652 40.7321 84.4662 39.068" stroke="#F16622" stroke-width="1.2" stroke-miterlimit="10"/>
<path d="M77.2508 55.5576C76.6325 56.0707 76.9088 56.7744 76.8298 57.4125C76.7969 57.6887 77.0337 57.9123 77.1455 57.9058C78.2769 57.8137 77.7836 58.5767 77.7572 59.0634C77.7309 59.4909 77.5665 59.8922 77.481 60.3065C77.2705 61.3195 76.4681 61.4839 75.7051 61.747" stroke="#1E3C70" stroke-width="1.2" stroke-miterlimit="10"/>
<path d="M87.4585 107.71C86.1693 107.98 84.8933 108.447 83.5449 108.125" stroke="#1E3C70" stroke-width="1.2" stroke-miterlimit="10"/>
<path d="M78.2832 27.4194C78.5068 29.0967 78.3227 30.7871 78.3884 32.4709C78.4016 32.8853 78.4542 33.2931 78.4871 33.7075" stroke="#F16622" stroke-width="1.2" stroke-miterlimit="10"/>
<path d="M78.3887 33.918C78.3887 36.3253 78.4742 38.7327 78.6978 41.1334" stroke="#F16622" stroke-width="1.2" stroke-miterlimit="10"/>
<path d="M74.777 34.2266C74.7902 35.4631 74.5402 36.7063 74.8823 37.9362" stroke="#F16622" stroke-width="1.2" stroke-miterlimit="10"/>
<path d="M71.377 34.9442C74.8235 33.6287 78.4016 33.6747 81.9929 33.9181C83.3545 34.0102 84.6963 34.2601 86.0118 34.635" stroke="#F16622" stroke-width="1.2" stroke-miterlimit="10"/>
<path d="M15.6191 98.5349C17.3359 98.4231 19.0592 98.6862 20.7693 98.4297" stroke="#F16622" stroke-width="1.2" stroke-miterlimit="10"/>
<path d="M83.4404 29.6885C82.0262 30.9645 80.3095 31.2473 78.4941 31.2342" stroke="#F16622" stroke-width="1.2" stroke-miterlimit="10"/>
<path d="M87.972 71.7383C87.1893 72.9683 86.1961 73.9483 84.7754 74.4153" stroke="#1E3C70" stroke-width="1.2" stroke-miterlimit="10"/>
<path d="M81.7893 37.7261C81.3815 38.8969 80.7369 39.9821 80.5527 41.2319" stroke="#F16622" stroke-width="1.2" stroke-miterlimit="10"/>
<path d="M84.3677 38.7587C81.9538 37.0815 79.2504 37.0552 76.5405 37.5682C75.2645 37.8116 73.8963 38.0681 72.8242 38.9626" stroke="#F16622" stroke-width="1.2" stroke-miterlimit="10"/>
<path d="M82.0984 30.6162C82.4536 32.9315 82.6838 35.2402 81.8945 37.5225" stroke="#F16622" stroke-width="1.2" stroke-miterlimit="10"/>
<path d="M82.0973 30.5177C81.7553 29.7613 81.3606 29.0246 81.0778 28.2484C80.8015 27.4855 80.1898 27.2947 79.5189 27.2355C78.9072 27.1829 78.2824 27.2289 77.6641 27.2224C77.401 27.2224 77.151 27.321 77.0523 27.5381C76.1315 29.5902 75.0726 31.6029 74.9805 33.9248" stroke="#F16622" stroke-width="1.2" stroke-miterlimit="10"/>
<path d="M110.546 85.4459C109.632 84.6829 108.514 84.2882 107.455 83.7949" stroke="#1E3C70" stroke-width="1.2" stroke-miterlimit="10"/>
<path d="M87.662 100.08C87.7146 101.198 87.2279 102.172 86.8398 103.171" stroke="#1E3C70" stroke-width="1.2" stroke-miterlimit="10"/>
<path d="M131.363 90.7012C133.047 92.2798 134.731 93.8649 136.415 95.4435" stroke="#F16622" stroke-width="1.2" stroke-miterlimit="10"/>
<path d="M20.2565 89.5698C19.7434 89.9645 19.7237 90.7801 18.9475 91.0366C18.5726 90.7669 18.7042 90.1552 18.1911 89.9119C17.9149 89.9974 17.8031 90.4183 17.4939 90.6156C17.1914 90.5499 17.1914 90.267 17.0664 90.0894" stroke="#F16622" stroke-width="1.2" stroke-miterlimit="10"/>
<path d="M57.9775 132.652C57.2605 133.132 56.5633 133.619 56.1029 134.395C55.9187 134.704 55.8003 134.987 55.8135 135.335" stroke="#1E3C70" stroke-width="1.2" stroke-miterlimit="10"/>
<path d="M60.2482 122.135C59.9259 123.359 59.1563 124.26 58.1895 125.023" stroke="#1E3C70" stroke-width="1.2" stroke-miterlimit="10"/>
<path d="M37.0565 85.9653C36.0633 86.3402 35.0635 86.7217 34.0703 87.0967" stroke="#F16622" stroke-width="1.2" stroke-miterlimit="10"/>
<path d="M72.8242 29.8994C73.9292 30.8203 75.3171 30.8795 76.6392 31.1228C77.1785 31.2215 77.7376 31.2018 78.2835 31.2346" stroke="#F16622" stroke-width="1.2" stroke-miterlimit="10"/>
<path d="M127.857 70.8105C128.199 71.7051 128.541 72.5996 128.89 73.4876" stroke="#1E3C70" stroke-width="1.2" stroke-miterlimit="10"/>
<path d="M89.8259 110.283C89.3457 111.079 89.0497 111.947 88.8984 112.861" stroke="#1E3C70" stroke-width="1.2" stroke-miterlimit="10"/>
<path d="M95.9106 77.6123C94.9635 77.507 94.2991 76.7835 93.4375 76.481" stroke="#1E3C70" stroke-width="1.2" stroke-miterlimit="10"/>
<path d="M96.627 78.1318C97.4162 78.5791 98.3108 78.8422 98.9949 79.4736" stroke="#1E3C70" stroke-width="1.2" stroke-miterlimit="10"/>
<path d="M104.355 82.1504C105.171 82.453 105.914 82.8871 106.625 83.387" stroke="#1E3C70" stroke-width="1.2" stroke-miterlimit="10"/>
<path d="M123.943 92.043C124.601 92.6349 125.364 93.0362 126.213 93.2795" stroke="#F16622" stroke-width="1.2" stroke-miterlimit="10"/>
<path d="M58.703 134.711C57.9861 135.263 57.9335 136.072 57.8809 136.875" stroke="#1E3C70" stroke-width="1.2" stroke-miterlimit="10"/>
<path d="M50.6641 57.5176C51.3415 57.978 52.2098 58.0832 52.8281 58.6489" stroke="#1E3C70" stroke-width="1.2" stroke-miterlimit="10"/>
<path d="M30.2536 61.4312C29.7866 62.0823 29.5827 62.8519 29.3262 63.5951" stroke="#1E3C70" stroke-width="1.2" stroke-miterlimit="10"/>
<path d="M100.549 61.2275C99.8252 61.5367 99.1083 61.8458 98.3848 62.155" stroke="#1E3C70" stroke-width="1.2" stroke-miterlimit="10"/>
<path d="M132.389 82.3545C132.632 83.078 132.869 83.795 133.112 84.5185" stroke="#F16622" stroke-width="1.2" stroke-miterlimit="10"/>
<path d="M93.9512 41.0283C94.6747 41.3375 95.3917 41.6466 96.1152 41.9557" stroke="#F16622" stroke-width="1.2" stroke-miterlimit="10"/>
<path d="M87.7676 108.533C88.9976 109.789 90.5235 110.486 92.2008 110.901" stroke="#1E3C70" stroke-width="1.2" stroke-miterlimit="10"/>
<path d="M65.5041 75.1387C64.7542 75.2044 64.1425 75.6517 63.4453 75.8622" stroke="#1E3C70" stroke-width="1.2" stroke-miterlimit="10"/>
<path d="M47.2638 44.8433C46.5798 45.0866 45.8891 45.3234 45.2051 45.5668" stroke="#F16622" stroke-width="1.2" stroke-miterlimit="10"/>
<path d="M68.4957 66.4829C68.0879 67.1407 67.2657 67.2196 66.7461 67.7195" stroke="#1E3C70" stroke-width="1.2" stroke-miterlimit="10"/>
<path d="M69.1146 57.8267C69.062 57.4649 68.8449 57.5175 68.6016 57.6162C68.1609 57.7938 67.707 57.9648 67.2598 58.1358" stroke="#1E3C70" stroke-width="1.2" stroke-miterlimit="10"/>
<path d="M87.9727 38.3447C88.3673 38.8578 89.1303 38.746 89.5183 39.2721" stroke="#F16622" stroke-width="1.2" stroke-miterlimit="10"/>
<path d="M83.4395 93.7925C84.334 94.2726 85.2285 94.7528 86.1165 95.2329" stroke="#1E3C70" stroke-width="1.2" stroke-miterlimit="10"/>
<path d="M87.5566 66.5884C87.1094 66.7923 86.6621 67.0028 86.2148 67.2067" stroke="#1E3C70" stroke-width="1.2" stroke-miterlimit="10"/>
<path d="M46.0273 55.2485C46.4483 55.3998 46.7772 55.7616 47.2639 55.7616" stroke="#F16622" stroke-width="1.2" stroke-miterlimit="10"/>
<path d="M138.164 95.0293L137.342 95.4437" stroke="#F16622" stroke-width="1.2" stroke-miterlimit="10"/>
<path d="M22.2171 82.249C22.079 82.4924 21.9409 82.7292 21.8027 82.9725" stroke="#F16622" stroke-width="1.2" stroke-miterlimit="10"/>
<path d="M125.279 47.2109C124.417 47.4806 123.667 47.8818 123.102 48.6448C122.503 49.4472 122.431 50.276 122.819 51.1245C123.246 52.0585 124.147 52.4137 125.068 52.3347C126.272 52.2427 127.212 51.631 127.877 50.5194C128.692 49.1513 128.022 47.428 126.206 47.2109C125.936 47.178 125.66 47.2109 125.384 47.2109" stroke="#F16622" stroke-width="1.2" stroke-miterlimit="10"/>
</svg>
